<svg width="290" height="65" viewBox="0 0 290 65" fill="none" xmlns="http://www.w3.org/2000/svg">
<g clip-path="url(#clip0_758_1114)">
<path d="M1.698 57.5098H287.872" stroke="white"/>
<path d="M1.69775 57.5098H287.871" stroke="#CCCCCC" stroke-linecap="round"/>
<path d="M1.69775 43.1328H287.871" stroke="#CCCCCC" stroke-linecap="round"/>
<path d="M1.69775 28.7549H287.871" stroke="#CCCCCC" stroke-linecap="round"/>
<path d="M1.69775 14.3779H287.871" stroke="#CCCCCC" stroke-linecap="round"/>
<path d="M1.69775 0H287.871" stroke="#CCCCCC" stroke-linecap="round"/>
<path d="M1.69775 0V57.51" stroke="#CCCCCC" stroke-linecap="round"/>
<path d="M33.4949 0V57.51" stroke="#CCCCCC" stroke-linecap="round"/>
<path d="M65.2917 0V57.51" stroke="#CCCCCC" stroke-linecap="round"/>
<path d="M97.0889 0V57.51" stroke="#CCCCCC" stroke-linecap="round"/>
<path d="M128.886 0V57.51" stroke="#CCCCCC" stroke-linecap="round"/>
<path d="M160.683 0V57.51" stroke="#CCCCCC" stroke-linecap="round"/>
<path d="M192.48 0V57.51" stroke="#CCCCCC" stroke-linecap="round"/>
<path d="M224.277 0V57.51" stroke="#CCCCCC" stroke-linecap="round"/>
<path d="M256.074 0V57.51" stroke="#CCCCCC" stroke-linecap="round"/>
<path d="M287.871 0V57.51" stroke="#CCCCCC" stroke-linecap="round"/>
<path d="M1.698 33.356L33.4951 48.8837L65.2922 10.8121L97.0893 9.5469L128.886 44.6855L160.683 35.7714L192.48 8.51172L224.278 20.1862L256.075 34.1612L288.022 14.0003" stroke="#F66B06"/>
<path d="M2.34019 34.4349C3.13308 34.4349 3.77585 33.9522 3.77585 33.3566C3.77585 32.7611 3.13308 32.2783 2.34019 32.2783C1.5473 32.2783 0.904541 32.7611 0.904541 33.3566C0.904541 33.9522 1.5473 34.4349 2.34019 34.4349Z" fill="white" stroke="#F66B06"/>
<path d="M33.495 49.9623C34.2879 49.9623 34.9306 49.4795 34.9306 48.884C34.9306 48.2884 34.2879 47.8057 33.495 47.8057C32.7021 47.8057 32.0593 48.2884 32.0593 48.884C32.0593 49.4795 32.7021 49.9623 33.495 49.9623Z" fill="white" stroke="#F66B06"/>
<path d="M65.2919 11.891C66.0847 11.891 66.7275 11.4082 66.7275 10.8127C66.7275 10.2172 66.0847 9.73438 65.2919 9.73438C64.499 9.73438 63.8562 10.2172 63.8562 10.8127C63.8562 11.4082 64.499 11.891 65.2919 11.891Z" fill="white" stroke="#F66B06"/>
<path d="M97.089 10.6254C97.8819 10.6254 98.5247 10.1426 98.5247 9.54706C98.5247 8.95153 97.8819 8.46875 97.089 8.46875C96.2961 8.46875 95.6533 8.95153 95.6533 9.54706C95.6533 10.1426 96.2961 10.6254 97.089 10.6254Z" fill="white" stroke="#F66B06"/>
<path d="M128.886 45.7641C129.679 45.7641 130.322 45.2813 130.322 44.6857C130.322 44.0902 129.679 43.6074 128.886 43.6074C128.093 43.6074 127.45 44.0902 127.45 44.6857C127.45 45.2813 128.093 45.7641 128.886 45.7641Z" fill="white" stroke="#F66B06"/>
<path d="M160.684 36.85C161.477 36.85 162.119 36.3672 162.119 35.7717C162.119 35.1761 161.477 34.6934 160.684 34.6934C159.891 34.6934 159.248 35.1761 159.248 35.7717C159.248 36.3672 159.891 36.85 160.684 36.85Z" fill="white" stroke="#F66B06"/>
<path d="M192.48 9.59022C193.273 9.59022 193.916 9.10744 193.916 8.51191C193.916 7.91637 193.273 7.43359 192.48 7.43359C191.687 7.43359 191.045 7.91637 191.045 8.51191C191.045 9.10744 191.687 9.59022 192.48 9.59022Z" fill="white" stroke="#F66B06"/>
<path d="M224.277 21.265C225.07 21.265 225.713 20.7822 225.713 20.1867C225.713 19.5912 225.07 19.1084 224.277 19.1084C223.485 19.1084 222.842 19.5912 222.842 20.1867C222.842 20.7822 223.485 21.265 224.277 21.265Z" fill="white" stroke="#F66B06"/>
<path d="M256.075 35.2396C256.867 35.2396 257.51 34.7569 257.51 34.1613C257.51 33.5658 256.867 33.083 256.075 33.083C255.282 33.083 254.639 33.5658 254.639 34.1613C254.639 34.7569 255.282 35.2396 256.075 35.2396Z" fill="white" stroke="#F66B06"/>
<path d="M287.531 15.1566C288.324 15.1566 288.967 14.6739 288.967 14.0783C288.967 13.4828 288.324 13 287.531 13C286.738 13 286.095 13.4828 286.095 14.0783C286.095 14.6739 286.738 15.1566 287.531 15.1566Z" fill="white" stroke="#F66B06"/>
</g>
<defs>
<clipPath id="clip0_758_1114">
<rect width="289.045" height="65" fill="white" transform="translate(0.262207)"/>
</clipPath>
</defs>
</svg>
