<svg width="40" height="40" viewBox="0 0 40 40" fill="none" xmlns="http://www.w3.org/2000/svg">
<g clip-path="url(#clip0_675_1557)">
<path d="M39.6451 28.6275C38.8626 29.615 36.9476 30.3175 36.9476 30.3175L22.7076 35.4325V31.66L33.1876 27.9275C34.3776 27.5025 34.5601 26.8975 33.5926 26.5825C32.6276 26.265 30.8801 26.3575 29.6926 26.7825L22.7076 29.2425V25.3275L23.1101 25.1925C23.1101 25.1925 25.1276 24.4775 27.9651 24.1625C30.8026 23.85 34.2776 24.205 37.0051 25.2375C40.0801 26.2125 40.4251 27.6425 39.6451 28.6275ZM24.0626 22.2075V12.5575C24.0626 11.425 23.8551 10.3825 22.7926 10.0875C21.9776 9.825 21.4726 10.5825 21.4726 11.7125V35.8725L14.9576 33.805V5C17.7276 5.515 21.7626 6.73 23.9326 7.4625C29.4501 9.355 31.3201 11.7125 31.3201 17.025C31.3201 22.2025 28.1251 24.165 24.0626 22.205V22.2075ZM3.00264 31.27C-0.152364 30.375 -0.677364 28.525 0.760136 27.46C2.09014 26.475 4.35014 25.735 4.35014 25.735L13.6926 22.41V26.1975L6.96764 28.605C5.78264 29.03 5.60014 29.6325 6.56514 29.95C7.53014 30.265 9.27764 30.175 10.4651 29.75L13.6901 28.5775V31.9675L13.0476 32.075C9.68317 32.6197 6.23688 32.3427 3.00264 31.2675V31.27Z" fill="black"/>
</g>
<defs>
<clipPath id="clip0_675_1557">
<rect width="40" height="40" fill="white"/>
</clipPath>
</defs>
</svg>
