<svg width="40" height="40" viewBox="0 0 40 40" fill="none" xmlns="http://www.w3.org/2000/svg">
<path d="M0.8225 25.8325C2.07698 29.9336 4.61496 33.5236 8.06283 36.0741C11.5107 38.6246 15.6863 40.0007 19.975 40C31.035 40 40 31.045 40 20C40 8.955 31.035 1.49946e-06 19.9775 1.49946e-06C14.9007 -0.00196246 10.0128 1.9254 6.30364 5.39182C2.59446 8.85824 0.34116 13.6047 0 18.67L0.0075 18.685L10.7675 23.1075C11.738 22.465 12.8873 22.1472 14.05 22.2L18.95 15.09L18.9475 14.99C18.9495 12.9734 19.7513 11.0399 21.177 9.61376C22.6027 8.18758 24.5359 7.38515 26.5525 7.3825C28.5691 7.38515 30.5023 8.18758 31.928 9.61376C33.3537 11.0399 34.1555 12.9734 34.1575 14.99C34.1567 16.0033 33.9538 17.0063 33.5606 17.9402C33.1673 18.8741 32.5917 19.7202 31.8674 20.4289C31.1432 21.1376 30.2848 21.6946 29.3425 22.0674C28.4003 22.4402 27.3931 22.6213 26.38 22.6L19.37 27.6C19.3938 28.5262 19.1856 29.4436 18.7645 30.2688C18.3434 31.094 17.7226 31.8009 16.9587 32.3251C16.1948 32.8493 15.3119 33.1742 14.3904 33.2702C13.469 33.3662 12.5381 33.2304 11.6825 32.875C10.8613 32.5328 10.1346 31.998 9.56366 31.3157C8.99276 30.6334 8.59449 29.8237 8.4025 28.955L0.825 25.8325H0.8225Z" fill="black"/>
<path d="M12.1698 31.7069C13.2114 32.1045 14.3669 32.0807 15.3913 31.6406C16.4156 31.2005 17.2282 30.3787 17.6568 29.3495C18.0854 28.3203 18.0963 27.1646 17.6871 26.1275C17.2778 25.0905 16.4808 24.2536 15.4648 23.7944C14.4576 23.3741 13.3274 23.3562 12.3073 23.7444L14.8648 24.8044C15.2473 24.9636 15.5947 25.1966 15.8871 25.4901C16.1795 25.7836 16.4113 26.1318 16.5692 26.5148C16.727 26.8978 16.8079 27.3082 16.8071 27.7225C16.8064 28.1368 16.7241 28.5469 16.5648 28.9294C16.4056 29.3118 16.1726 29.6592 15.8791 29.9516C15.5857 30.2441 15.2375 30.4758 14.8544 30.6337C14.4714 30.7915 14.061 30.8724 13.6467 30.8717C13.2324 30.8709 12.8223 30.7886 12.4398 30.6294L9.96484 29.6044C10.4152 30.5527 11.2007 31.3007 12.1698 31.7044V31.7069ZM21.4848 14.9894C21.4855 16.3336 22.0195 17.6227 22.9695 18.5737C23.9196 19.5247 25.2081 20.0599 26.5523 20.0619C27.8966 20.0599 29.1851 19.5247 30.1352 18.5737C31.0852 17.6227 31.6192 16.3336 31.6198 14.9894C31.6179 13.646 31.0833 12.3582 30.1334 11.4083C29.1835 10.4584 27.8957 9.92386 26.5523 9.92188C25.209 9.92386 23.9212 10.4584 22.9713 11.4083C22.0214 12.3582 21.4868 13.646 21.4848 14.9894ZM26.5598 11.1719C27.0602 11.1722 27.5556 11.2711 28.0177 11.4628C28.4798 11.6546 28.8996 11.9355 29.2532 12.2896C29.6067 12.6436 29.8871 13.0638 30.0783 13.5262C30.2694 13.9885 30.3677 14.484 30.3673 14.9844C30.367 15.4847 30.2681 15.9801 30.0764 16.4422C29.8846 16.9043 29.6037 17.3242 29.2497 17.6777C28.8956 18.0313 28.4754 18.3116 28.0131 18.5028C27.5507 18.694 27.0552 18.7922 26.5548 18.7919C25.5444 18.7912 24.5755 18.3892 23.8615 17.6742C23.1475 16.9592 22.7467 15.9898 22.7473 14.9794C22.748 13.9689 23.1501 13.0001 23.865 12.286C24.58 11.572 25.5494 11.1712 26.5598 11.1719Z" fill="black"/>
</svg>
