<svg width="40" height="40" viewBox="0 0 40 40" fill="none" xmlns="http://www.w3.org/2000/svg">
<path d="M16.6925 0.21859C10.2826 1.33838 4.87179 5.3727 2.02807 11.1097C-0.385259 15.9877 -0.661946 21.9702 1.29023 27.1243C3.21167 32.2017 7.43883 36.5121 12.5422 38.5523C17.3227 40.4697 22.6566 40.4851 27.3757 38.583C31.7719 36.8036 35.4457 33.5362 37.6592 29.4099C40.1801 24.7006 40.7028 18.8869 39.0426 13.7788C36.7215 6.67656 30.6498 1.4611 23.2407 0.21859C21.473 -0.0728645 18.3833 -0.0728645 16.6925 0.21859ZM18.6139 4.34494C18.6139 5.86356 18.6447 5.98628 18.9982 6.33909C19.3671 6.72258 20.1203 6.8453 20.6891 6.63055C21.181 6.44647 21.3808 5.72551 21.3808 4.20689V2.73428L22.1186 2.82632C23.21 2.96438 25.5157 3.57796 26.6071 4.02281C32.0947 6.24706 36.4602 11.9534 37.1058 17.7211L37.1981 18.5341H35.6609C33.4474 18.5341 32.7557 18.9022 32.7557 20.068C32.7557 20.3595 32.894 20.6816 33.14 20.9117C33.4935 21.2799 33.6011 21.2952 35.3688 21.2952H37.2288L37.1366 22.0162C36.9367 23.5655 36.7062 24.4859 36.1835 25.8971C34.5695 30.2535 31.5106 33.5976 27.3603 35.5457C25.7155 36.3127 23.0102 37.095 21.9803 37.095H21.4115L21.35 35.5457C21.3039 34.0117 21.3039 33.9964 20.7813 33.5362C20.3663 33.1681 20.1818 33.0914 19.7975 33.1681C19.5362 33.2294 19.1673 33.4135 18.9675 33.5976C18.6447 33.9044 18.6139 34.0578 18.6139 35.515V37.095H18.0144C16.9845 37.095 14.2791 36.3127 12.6344 35.5457C10.1596 34.3799 7.99221 32.6465 6.33209 30.5143C4.53362 28.198 3.22704 25.0227 2.8735 22.0929L2.7659 21.2952H4.62585C6.39357 21.2952 6.50117 21.2799 6.85472 20.9117C7.51569 20.2675 7.28512 19.117 6.39357 18.7642C6.0554 18.6108 5.31757 18.5341 4.33379 18.5341H2.79664L2.88887 17.7211C3.04258 16.2945 3.68819 14.1163 4.3799 12.659C6.65489 7.85772 10.8513 4.43698 16.0008 3.20981C17.1382 2.9337 17.5686 2.857 18.4295 2.74962C18.5678 2.73428 18.6139 3.14845 18.6139 4.34494Z" fill="#FF7A00"/>
<path d="M25.4543 13.3489C22.3492 15.6652 22.6567 15.5271 21.3347 15.3124C20.4432 15.159 19.9513 15.159 19.1059 15.3124L18.0145 15.4964L16.9692 14.7601C16.4005 14.3613 15.3245 13.5943 14.602 13.0575C13.3415 12.1524 12.8804 11.9377 12.7267 12.1984C12.6498 12.3211 12.7421 13.4409 13.0802 17.0457L13.2493 18.7024L12.6037 20.85C12.0503 22.6907 11.9889 23.0282 12.1733 23.1969C12.2963 23.3043 13.111 23.5191 14.0025 23.6725C14.8941 23.8259 15.924 23.9946 16.2929 24.0559C16.8616 24.148 17.0768 24.3167 17.8147 25.1451C19.3211 26.8478 19.9513 27.4307 20.2895 27.4307C20.5047 27.4307 20.9197 27.1085 21.427 26.5563C23.6712 24.102 23.5021 24.24 24.7626 23.9946C25.3928 23.8719 26.4534 23.6878 27.099 23.5804C27.76 23.4884 28.3595 23.3196 28.4517 23.2123C28.5593 23.0742 28.544 22.8134 28.3903 22.3533C28.2673 21.9851 28.0982 21.4329 28.0213 21.1414C27.9291 20.85 27.7139 20.0983 27.5448 19.4847C27.222 18.3956 27.222 18.3189 27.4526 15.297C27.6678 12.3978 27.6678 11.9223 27.4065 11.953C27.345 11.953 26.4688 12.5819 25.4543 13.3489Z" fill="#FF7A00"/>
</svg>
