<svg width="64" height="64" viewBox="0 0 64 64" fill="none" xmlns="http://www.w3.org/2000/svg">
<g clip-path="url(#clip0_675_1568)">
<path d="M34.2857 50.2563V59.4187H48C48.6062 59.4187 49.1876 59.66 49.6162 60.0896C50.0449 60.5192 50.2857 61.1018 50.2857 61.7093C50.2857 62.3168 50.0449 62.8994 49.6162 63.329C49.1876 63.7586 48.6062 63.9999 48 63.9999H16C15.3938 63.9999 14.8124 63.7586 14.3838 63.329C13.9551 62.8994 13.7143 62.3168 13.7143 61.7093C13.7143 61.1018 13.9551 60.5192 14.3838 60.0896C14.8124 59.66 15.3938 59.4187 16 59.4187H29.7143V50.2563H9.14286C6.71802 50.2563 4.3925 49.291 2.67788 47.5727C0.963263 45.8544 0 43.5239 0 41.0939V13.6067C0 11.1767 0.963263 8.84622 2.67788 7.12794C4.3925 5.40966 6.71802 4.44434 9.14286 4.44434H54.8571C57.282 4.44434 59.6075 5.40966 61.3221 7.12794C63.0367 8.84622 64 11.1767 64 13.6067V41.0939C64 43.5239 63.0367 45.8544 61.3221 47.5727C59.6075 49.291 57.282 50.2563 54.8571 50.2563H34.2857ZM9.14286 9.02553C7.93044 9.02553 6.76768 9.50819 5.91037 10.3673C5.05306 11.2265 4.57143 12.3917 4.57143 13.6067V41.0939C4.57143 42.3089 5.05306 43.4742 5.91037 44.3333C6.76768 45.1924 7.93044 45.6751 9.14286 45.6751H54.8571C56.0696 45.6751 57.2323 45.1924 58.0896 44.3333C58.9469 43.4742 59.4286 42.3089 59.4286 41.0939V13.6067C59.4286 12.3917 58.9469 11.2265 58.0896 10.3673C57.2323 9.50819 56.0696 9.02553 54.8571 9.02553H9.14286Z" fill="url(#paint0_linear_675_1568)"/>
<path d="M39.6359 19.6889C35.2888 22.9317 35.7192 22.7384 33.8685 22.4377C32.6203 22.223 31.9317 22.223 30.7481 22.4377L29.2201 22.6954L27.7568 21.6646C26.9605 21.1062 25.4541 20.0325 24.4427 19.2808C22.678 18.0138 22.0324 17.7131 21.8172 18.0782C21.7096 18.25 21.8387 19.8177 22.3122 24.8644L22.5489 27.1838L21.645 30.1904C20.8703 32.7674 20.7842 33.2399 21.0425 33.4761C21.2146 33.6264 22.3552 33.9271 23.6034 34.1418C24.8515 34.3566 26.2934 34.5928 26.8099 34.6787C27.6061 34.8076 27.9074 35.0438 28.9404 36.2035C31.0493 38.5873 31.9317 39.4033 32.4051 39.4033C32.7064 39.4033 33.2874 38.9523 33.9976 38.1792C37.1395 34.7431 36.9028 34.9364 38.6675 34.5928C39.5498 34.421 41.0347 34.1633 41.9385 34.013C42.8639 33.8841 43.7032 33.6479 43.8323 33.4976C43.9829 33.3043 43.9614 32.9392 43.7462 32.2949C43.574 31.7795 43.3373 31.0064 43.2297 30.5984C43.1006 30.1904 42.7993 29.1381 42.5626 28.279C42.1107 26.7543 42.1107 26.6469 42.4335 22.4162C42.7348 18.3574 42.7348 17.6916 42.3689 17.7346C42.2828 17.7346 41.0562 18.6151 39.6359 19.6889Z" fill="url(#paint1_linear_675_1568)"/>
</g>
<defs>
<linearGradient id="paint0_linear_675_1568" x1="9.70212e-07" y1="11.0616" x2="64.5103" y2="13.9001" gradientUnits="userSpaceOnUse">
<stop stop-color="#FF7A00"/>
<stop offset="1" stop-color="#FFA800"/>
</linearGradient>
<linearGradient id="paint1_linear_675_1568" x1="20.9116" y1="36.9955" x2="44.114" y2="35.9864" gradientUnits="userSpaceOnUse">
<stop stop-color="#FF7A00"/>
<stop offset="1" stop-color="#FFA800"/>
</linearGradient>
<clipPath id="clip0_675_1568">
<rect width="64" height="64" fill="white"/>
</clipPath>
</defs>
</svg>
