<svg width="58" height="64" viewBox="0 0 58 64" fill="none" xmlns="http://www.w3.org/2000/svg">
<path fill-rule="evenodd" clip-rule="evenodd" d="M26.2479 3.77518C26.2479 3.81454 26.0335 3.84062 25.7077 3.84062C25.4106 3.84062 25.1496 3.86942 25.1279 3.90462C25.1061 3.93982 24.9189 3.96862 24.7119 3.96862C24.5048 3.96862 24.3184 3.99614 24.2976 4.0299C24.2768 4.0635 24.2205 4.07598 24.1725 4.05758C24.1245 4.03918 23.968 4.05566 23.8248 4.09422C23.6816 4.13278 23.4554 4.16766 23.3221 4.1715C23.1888 4.1755 23.0079 4.21406 22.9199 4.25742C22.8319 4.30062 22.6951 4.32558 22.6159 4.31278C22.5367 4.29998 22.4719 4.31806 22.4719 4.3531C22.4719 4.38798 22.3979 4.41662 22.3077 4.41662C22.2173 4.41662 22.0909 4.44478 22.0268 4.47902C21.9626 4.51342 21.8183 4.54846 21.7061 4.5571C21.594 4.56558 21.4882 4.59502 21.4712 4.62254C21.4543 4.65006 21.384 4.67262 21.3152 4.67262C21.2464 4.67262 21.1402 4.6987 21.0791 4.7307C20.8783 4.83566 20.284 4.99278 20.2253 4.95662C20.1938 4.9371 20.1679 4.9515 20.1679 4.98878C20.1679 5.02606 20.0959 5.05662 20.0079 5.05662C19.9199 5.05662 19.8479 5.08542 19.8479 5.12062C19.8479 5.15582 19.7816 5.18462 19.7007 5.18462C19.6197 5.18462 19.5248 5.21326 19.4898 5.2483C19.4549 5.28318 19.3483 5.31838 19.253 5.32622C19.1578 5.33406 19.0799 5.36302 19.0799 5.39054C19.0799 5.41806 19.0079 5.44062 18.9199 5.44062C18.8319 5.44062 18.7599 5.46942 18.7599 5.50462C18.7599 5.53982 18.708 5.56862 18.6447 5.56862C18.5813 5.56862 18.5008 5.59726 18.4658 5.6323C18.4309 5.66718 18.3264 5.70222 18.2336 5.7099C18.141 5.71742 18.0791 5.74654 18.0962 5.77422C18.1135 5.8019 18.0879 5.82462 18.0397 5.82462C17.9914 5.82462 17.8327 5.88222 17.6869 5.95262C17.5413 6.02302 17.3775 6.08062 17.3229 6.08062C17.2685 6.08062 17.2239 6.10942 17.2239 6.14462C17.2239 6.17982 17.1663 6.20862 17.0959 6.20862C17.0255 6.20862 16.9679 6.23742 16.9679 6.27262C16.9679 6.30782 16.9103 6.33662 16.8399 6.33662C16.7695 6.33662 16.7119 6.36542 16.7119 6.40062C16.7119 6.43582 16.6615 6.46526 16.5999 6.46606C16.5383 6.46686 16.4159 6.52382 16.3279 6.59262C16.2399 6.66142 16.1175 6.71838 16.0559 6.71918C15.9943 6.71998 15.9439 6.75246 15.9439 6.7915C15.9439 6.83038 15.9015 6.84606 15.8496 6.82606C15.7973 6.80606 15.728 6.83854 15.6944 6.8987C15.6608 6.95854 15.613 6.98702 15.5879 6.9619C15.5627 6.93694 15.4587 6.97582 15.3568 7.04846C15.2547 7.1211 15.1344 7.18606 15.0895 7.19262C15.0445 7.19918 14.9256 7.2691 14.8253 7.34798C14.7251 7.42686 14.5757 7.5083 14.4935 7.52894C14.4112 7.54958 14.3439 7.59022 14.3439 7.61902C14.3439 7.64798 14.2071 7.73838 14.0399 7.82014C13.8727 7.90174 13.7146 8.00126 13.6887 8.04142C13.6627 8.08158 13.4936 8.19166 13.3131 8.28606C13.1325 8.38046 12.925 8.51326 12.8522 8.58126C12.7794 8.6491 12.6952 8.70462 12.6651 8.70462C12.6351 8.70462 12.5487 8.76222 12.4731 8.83262C12.3976 8.90302 12.2931 8.96062 12.2411 8.96062C12.1891 8.96062 12.1642 8.97822 12.1858 8.99982C12.2074 9.02142 12.0111 9.19278 11.7495 9.38046C11.4879 9.56814 11.1944 9.79518 11.0975 9.8851C11.0005 9.97502 10.8832 10.0486 10.8367 10.0486C10.7903 10.0486 10.7701 10.0774 10.7919 10.1126C10.8136 10.1478 10.801 10.1766 10.7637 10.1766C10.7264 10.1766 10.6445 10.227 10.5816 10.2886C10.5189 10.3502 10.3704 10.4726 10.2519 10.5606C10.1331 10.6486 9.86691 10.8862 9.66003 11.0886C9.45315 11.291 9.25603 11.4566 9.22195 11.4566C9.18771 11.4566 9.15987 11.4793 9.15987 11.507C9.15987 11.58 8.54291 12.2264 8.50739 12.1907C8.49091 12.1742 8.43891 12.2328 8.39187 12.3208C8.34483 12.4086 8.28531 12.4806 8.25987 12.4806C8.19027 12.4806 7.88995 12.7824 7.49571 13.2485C7.30211 13.4771 7.08355 13.7312 7.00979 13.8129C6.93603 13.8949 6.80643 14.0742 6.72179 14.2115C6.63715 14.3488 6.52707 14.4619 6.47715 14.4629C6.42739 14.4638 6.40403 14.4821 6.42531 14.5033C6.44659 14.5248 6.40099 14.6078 6.32403 14.688C6.12563 14.8945 5.82739 15.2869 5.83443 15.3321C5.83763 15.3531 5.78083 15.4219 5.70803 15.4849C5.63539 15.548 5.57587 15.6323 5.57587 15.6721C5.57587 15.712 5.54707 15.7446 5.51187 15.7446C5.47667 15.7446 5.44787 15.7763 5.44787 15.815C5.44787 15.8536 5.36147 15.9659 5.25587 16.0646C5.15027 16.1633 5.06387 16.2901 5.06387 16.3462C5.06387 16.4025 5.03507 16.4486 4.99987 16.4486C4.96467 16.4486 4.93587 16.4998 4.93587 16.5625C4.93587 16.6251 4.87827 16.7179 4.80787 16.7686C4.73747 16.8193 4.67987 16.9121 4.67987 16.9747C4.67987 17.0374 4.65635 17.0886 4.62771 17.0886C4.59907 17.0886 4.52675 17.1822 4.46707 17.2966C4.29347 17.6296 4.02451 18.0779 3.97763 18.1126C3.93027 18.1478 3.86563 18.304 3.86147 18.3934C3.86003 18.4248 3.83475 18.468 3.80531 18.4894C3.72035 18.5517 3.59187 18.8057 3.59187 18.9118C3.59187 18.9651 3.56307 19.0086 3.52787 19.0086C3.49267 19.0086 3.46387 19.0518 3.46387 19.1046C3.46387 19.1574 3.43507 19.2006 3.39987 19.2006C3.36467 19.2006 3.33587 19.2582 3.33587 19.3286C3.33587 19.399 3.30707 19.4566 3.27187 19.4566C3.23667 19.4566 3.20787 19.5142 3.20787 19.5846C3.20787 19.655 3.17907 19.7126 3.14387 19.7126C3.10867 19.7126 3.07939 19.7486 3.07891 19.7926C3.07843 19.8366 2.96323 20.1014 2.82291 20.3809C2.68259 20.6605 2.56787 20.9269 2.56787 20.9729C2.56787 21.019 2.53907 21.0566 2.50387 21.0566C2.46867 21.0566 2.43987 21.1145 2.43987 21.1854C2.43987 21.3099 2.41715 21.3717 2.25779 21.6798C2.21715 21.7585 2.18387 21.8825 2.18387 21.9555C2.18387 22.0285 2.15811 22.0723 2.12675 22.0528C2.07379 22.0201 2.00595 22.188 1.94803 22.4952C1.93491 22.5649 1.89619 22.6499 1.86211 22.684C1.82787 22.7182 1.79987 22.8269 1.79987 22.9254C1.79987 23.024 1.77107 23.1046 1.73587 23.1046C1.70067 23.1046 1.67187 23.1718 1.67187 23.2539C1.67187 23.3361 1.65171 23.4233 1.62723 23.448C1.57315 23.5021 1.34627 24.2931 1.32483 24.5021C1.31651 24.5843 1.27939 24.6707 1.24227 24.6941C1.20531 24.7174 1.18051 24.8086 1.18707 24.8966C1.19379 24.9846 1.17395 25.0909 1.14291 25.1328C1.11187 25.1747 1.07987 25.2963 1.07171 25.403C1.06355 25.5097 1.03683 25.6169 1.01235 25.6414C0.987869 25.6659 0.967869 25.8107 0.967869 25.9633C0.967869 26.1158 0.939069 26.2406 0.903869 26.2406C0.868669 26.2406 0.839869 26.3702 0.839869 26.5286C0.839869 26.687 0.81107 26.8166 0.77587 26.8166C0.74067 26.8166 0.71187 26.975 0.71187 27.1686C0.71187 27.3622 0.683069 27.5206 0.647869 27.5206C0.611869 27.5206 0.583869 27.7006 0.583869 27.9328C0.583869 28.1595 0.555069 28.3629 0.519869 28.3846C0.484669 28.4064 0.45587 28.6833 0.45587 29.0001C0.45587 29.3509 0.431869 29.5614 0.394589 29.5382C0.355869 29.5144 0.331869 30.4688 0.329309 32.1219C0.326749 33.8392 0.347869 34.7574 0.390589 34.7838C0.426429 34.8061 0.45587 35.0224 0.45587 35.2646C0.45587 35.5069 0.484669 35.7229 0.519869 35.7446C0.555069 35.7664 0.583869 35.9985 0.583869 36.2605C0.583869 36.5352 0.610909 36.7366 0.647869 36.7366C0.683069 36.7366 0.71187 36.8645 0.71187 37.0208C0.71187 37.1771 0.74067 37.3229 0.77587 37.3446C0.81107 37.3664 0.839869 37.5265 0.839869 37.7005C0.839869 37.8744 0.868669 38.0166 0.903869 38.0166C0.939069 38.0166 0.967869 38.1318 0.967869 38.2726C0.967869 38.4134 0.99267 38.5286 1.02307 38.5286C1.05347 38.5286 1.06979 38.6061 1.05939 38.7008C1.04899 38.7955 1.07315 38.9323 1.11315 39.0048C1.15315 39.0773 1.18867 39.1654 1.19187 39.2006C1.19523 39.2358 1.22387 39.4086 1.25555 39.5846C1.28739 39.7606 1.30755 39.9262 1.30051 39.9526C1.29363 39.979 1.31203 40.0006 1.34163 40.0006C1.37123 40.0006 1.43347 40.1662 1.48003 40.3686C1.52643 40.571 1.58867 40.764 1.61811 40.7974C1.64771 40.8309 1.67187 40.9187 1.67187 40.9926C1.67187 41.0666 1.69827 41.1544 1.73059 41.1878C1.76275 41.2213 1.79875 41.3062 1.81059 41.3766C1.82227 41.447 1.85699 41.523 1.88787 41.5454C1.91859 41.5677 1.94387 41.6613 1.94387 41.7534C1.94387 41.8454 1.96387 41.9206 1.98835 41.9206C2.01267 41.9206 2.07187 42.0646 2.11987 42.2406C2.16787 42.4166 2.23059 42.5606 2.25939 42.5606C2.28835 42.5606 2.31187 42.603 2.31187 42.655C2.31187 42.7432 2.61987 43.479 2.76083 43.7278C2.79555 43.789 2.82387 43.8825 2.82387 43.9358C2.82387 43.9891 2.85267 44.0326 2.88787 44.0326C2.92307 44.0326 2.95187 44.0902 2.95187 44.1606C2.95187 44.231 2.98067 44.2886 3.01587 44.2886C3.05107 44.2886 3.07987 44.3462 3.07987 44.4166C3.07987 44.487 3.10867 44.5446 3.14387 44.5446C3.17907 44.5446 3.20787 44.6022 3.20787 44.6726C3.20787 44.743 3.23667 44.8006 3.27187 44.8006C3.30707 44.8006 3.33587 44.8582 3.33587 44.9286C3.33587 44.999 3.36467 45.0566 3.39987 45.0566C3.43507 45.0566 3.46387 45.1142 3.46387 45.1846C3.46387 45.255 3.48547 45.3128 3.51187 45.3131C3.57027 45.3137 3.71987 45.6245 3.71987 45.7451C3.71987 45.7929 3.74563 45.8163 3.77699 45.7968C3.80851 45.7774 3.85203 45.8326 3.87379 45.9193C3.89571 46.0062 3.98467 46.1822 4.07171 46.3106C4.15875 46.4389 4.21443 46.5691 4.19523 46.6002C4.17603 46.6312 4.18899 46.6566 4.22403 46.6566C4.28355 46.6566 4.57651 47.1181 4.56419 47.1925C4.56115 47.211 4.63955 47.313 4.73827 47.4187C4.83715 47.5245 4.95427 47.6987 4.99875 47.8059C5.04307 47.9129 5.10467 48.0006 5.13571 48.0006C5.16659 48.0006 5.19187 48.0302 5.19187 48.0664C5.19187 48.1027 5.33587 48.3179 5.51187 48.5446C5.68787 48.7713 5.83187 48.9725 5.83187 48.9913C5.83187 49.0219 6.06515 49.3029 6.25219 49.4976C6.28963 49.5366 6.37603 49.655 6.44419 49.7606C6.57523 49.964 6.79587 50.2344 7.02899 50.4776C7.10659 50.5584 7.15939 50.6246 7.14643 50.6246C7.10963 50.6246 7.49011 51.0512 7.89091 51.4594C8.09059 51.6627 8.27523 51.8101 8.30115 51.7869C8.32723 51.7637 8.32947 51.7777 8.30627 51.8182C8.28307 51.8589 8.36419 51.9795 8.48803 52.0881C8.61123 52.1963 8.71187 52.3144 8.71187 52.3507C8.71187 52.387 8.76947 52.4166 8.83987 52.4166C8.91027 52.4166 8.96067 52.4401 8.95187 52.4688C8.94307 52.4976 9.14963 52.7208 9.41075 52.9648C9.67203 53.209 9.95411 53.4734 10.0378 53.5526C10.1213 53.6318 10.2003 53.6966 10.2133 53.6966C10.2263 53.6966 10.3474 53.7971 10.4824 53.92C10.8693 54.2721 10.9493 54.3371 10.9891 54.3307C11.0096 54.3275 11.1035 54.3923 11.1979 54.4747C11.4485 54.6936 12.0919 55.1686 12.1376 55.1686C12.2104 55.1686 12.3543 55.345 12.3141 55.3849C12.2923 55.4069 12.353 55.4246 12.449 55.4246C12.549 55.4246 12.6066 55.452 12.5839 55.4886C12.5615 55.5248 12.6139 55.5526 12.7043 55.5526C12.7923 55.5526 12.8821 55.5814 12.9039 55.6166C12.9855 55.7488 14.1895 55.6933 14.4539 55.5451C14.7616 55.3728 15.0739 55.1549 15.1 55.0944C15.1111 55.0686 15.2191 54.9397 15.34 54.8077C15.461 54.6757 15.5599 54.507 15.5599 54.4329C15.5599 54.3589 15.5907 54.2673 15.6285 54.2296C15.7557 54.1024 15.6264 52.5446 15.4887 52.5446C15.4575 52.5446 15.4319 52.5163 15.4319 52.4817C15.4319 52.3961 15.0488 52.008 14.8698 51.912C14.7893 51.8689 14.7439 51.8025 14.768 51.7635C14.7931 51.7227 14.7826 51.7109 14.7429 51.7354C14.7051 51.7587 14.6307 51.7344 14.5776 51.6813C14.5245 51.6281 14.4648 51.5846 14.4451 51.5846C14.4027 51.5846 14.1951 51.4179 13.9867 51.2166C13.9048 51.1374 13.8146 51.0726 13.7864 51.0726C13.7583 51.0726 13.6128 50.9574 13.4634 50.8166C13.3139 50.6758 13.176 50.5606 13.1568 50.5606C13.1376 50.5606 13.0501 50.4886 12.9621 50.4006C12.8741 50.3126 12.7746 50.2406 12.741 50.2406C12.7074 50.2406 12.6799 50.1974 12.6799 50.1446C12.6799 50.0918 12.6525 50.0486 12.6191 50.0486C12.5856 50.0486 12.4058 49.9046 12.2194 49.7286C12.0328 49.5526 11.8586 49.4086 11.832 49.4086C11.8056 49.4086 11.7839 49.3785 11.7839 49.3417C11.7839 49.2528 11.4887 48.9606 11.3991 48.9606C11.3602 48.9606 11.3435 48.9358 11.3623 48.9056C11.381 48.8754 11.3179 48.777 11.2221 48.687C10.9328 48.4153 10.2941 47.727 10.0559 47.4302C9.93267 47.2768 9.79587 47.1139 9.75187 47.0685C9.70787 47.023 9.67187 46.9691 9.67187 46.9486C9.67187 46.9281 9.58547 46.8211 9.47987 46.7105C9.37427 46.6 9.28787 46.4841 9.28787 46.4528C9.28787 46.4216 9.22835 46.3323 9.15555 46.2544C8.98243 46.0689 8.32787 45.069 8.32787 44.9899C8.32787 44.9562 8.29907 44.9286 8.26387 44.9286C8.22867 44.9286 8.19987 44.9001 8.19987 44.8654C8.19987 44.8305 8.15139 44.7454 8.09203 44.6761C8.03267 44.6069 7.97667 44.499 7.96755 44.4366C7.95827 44.3741 7.92051 44.3128 7.88339 44.3005C7.84627 44.2881 7.81587 44.2371 7.81587 44.1873C7.81587 44.1374 7.79203 44.0966 7.76275 44.0966C7.73363 44.0966 7.64003 43.9454 7.55475 43.7606C7.46963 43.5758 7.37827 43.415 7.35187 43.4033C7.32547 43.3915 7.30387 43.3411 7.30387 43.2913C7.30387 43.2414 7.28227 43.2005 7.25587 43.2001C7.19843 43.1995 7.04787 42.8896 7.04787 42.7718C7.04787 42.7261 7.01907 42.6886 6.98387 42.6886C6.94867 42.6886 6.91987 42.631 6.91987 42.5606C6.91987 42.4902 6.89107 42.4326 6.85587 42.4326C6.82067 42.4326 6.79187 42.3606 6.79187 42.2726C6.79187 42.1846 6.76307 42.1126 6.72787 42.1126C6.69267 42.1126 6.66387 42.0389 6.66387 41.9488C6.66387 41.856 6.63619 41.8022 6.59987 41.8246C6.56467 41.8464 6.53587 41.8189 6.53587 41.7635C6.53587 41.7081 6.50739 41.6129 6.47267 41.5518C6.38275 41.3937 6.15043 40.7661 6.11219 40.5781C6.09459 40.4907 6.05315 40.4027 6.02035 40.3824C5.98739 40.3621 5.95411 40.2678 5.94627 40.1731C5.93843 40.0782 5.90947 40.0006 5.88195 40.0006C5.85443 40.0006 5.83187 39.9344 5.83187 39.8534C5.83187 39.7725 5.80563 39.6789 5.77363 39.6454C5.69139 39.5595 5.51443 38.9315 5.55971 38.8862C5.58035 38.8656 5.56691 38.8486 5.52979 38.8486C5.46019 38.8486 5.40067 38.6317 5.34131 38.1606C5.32243 38.011 5.28115 37.8886 5.24947 37.8886C5.21779 37.8886 5.19187 37.7896 5.19187 37.6685C5.19187 37.5473 5.16307 37.4304 5.12787 37.4086C5.09267 37.3869 5.06387 37.2469 5.06387 37.0976C5.06387 36.9483 5.03795 36.7989 5.00643 36.7654C4.94803 36.7037 4.90259 36.4365 4.83267 35.7446C4.81139 35.5334 4.76835 35.3333 4.73699 35.2998C4.70547 35.2664 4.67987 35.0017 4.67987 34.7117C4.67987 34.4216 4.65107 34.1664 4.61587 34.1446C4.57539 34.1197 4.55187 33.3534 4.55187 32.0571C4.55187 30.708 4.57379 30.0225 4.61587 30.0486C4.65667 30.0737 4.67987 29.8905 4.67987 29.5441C4.67987 29.2449 4.70867 28.9824 4.74387 28.9606C4.77907 28.9389 4.80787 28.7229 4.80787 28.4806C4.80787 28.2384 4.83667 28.0224 4.87187 28.0006C4.90707 27.9789 4.93587 27.8493 4.93587 27.7126C4.93587 27.576 4.96467 27.4464 4.99987 27.4246C5.03507 27.4029 5.06387 27.2917 5.06387 27.1776C5.06387 27.0635 5.08979 26.9429 5.12131 26.9094C5.15283 26.876 5.19315 26.7334 5.21075 26.5926C5.22835 26.4518 5.27715 26.2214 5.31923 26.0806C5.36131 25.9398 5.41059 25.731 5.42883 25.6166C5.44707 25.5022 5.48275 25.4086 5.50819 25.4086C5.53363 25.4086 5.55459 25.3661 5.55459 25.3139C5.55459 25.1848 5.71379 24.6869 5.77907 24.6118C5.80803 24.5784 5.83187 24.4848 5.83187 24.4038C5.83187 24.3229 5.85891 24.2566 5.89187 24.2566C5.92483 24.2566 5.95059 24.2062 5.94899 24.1446C5.94547 24.0003 6.10083 23.5987 6.18387 23.5376C6.21907 23.5117 6.22771 23.4901 6.20307 23.4896C6.17859 23.4891 6.20099 23.3865 6.25315 23.2617C6.30531 23.1371 6.32819 23.003 6.30403 22.964C6.27747 22.9209 6.28931 22.9109 6.33395 22.9385C6.38243 22.9685 6.40787 22.9278 6.40787 22.8205C6.40787 22.7304 6.43667 22.6566 6.47187 22.6566C6.50707 22.6566 6.53587 22.6174 6.53587 22.5694C6.53587 22.5216 6.65107 22.2584 6.79187 21.9846C6.93267 21.7109 7.04787 21.4609 7.04787 21.4291C7.04787 21.3973 7.10547 21.3094 7.17587 21.2339C7.24627 21.1584 7.30387 21.0621 7.30387 21.0198C7.30387 20.8963 7.47267 20.6067 7.51811 20.6523C7.54115 20.6752 7.55987 20.6339 7.55987 20.5606C7.55987 20.4873 7.58147 20.4177 7.60787 20.4059C7.63427 20.3942 7.72323 20.2504 7.80563 20.0865C7.88803 19.9225 8.00867 19.7312 8.07379 19.6613C8.13891 19.5913 8.17539 19.5174 8.15491 19.4969C8.13427 19.4765 8.16467 19.4416 8.22227 19.4195C8.28003 19.3973 8.31315 19.3566 8.29619 19.3291C8.27923 19.3016 8.30819 19.2435 8.36051 19.2C8.41299 19.1565 8.45587 19.0813 8.45587 19.0328C8.45587 18.9843 8.47763 18.9446 8.50419 18.9446C8.53091 18.9446 8.58787 18.8654 8.63091 18.7686C8.67411 18.6718 8.78019 18.5165 8.86675 18.4235C8.95347 18.3305 9.01219 18.2422 8.99731 18.2275C8.98259 18.2126 9.06387 18.1016 9.17795 17.9806C9.29203 17.8597 9.38995 17.7373 9.39571 17.7085C9.40867 17.6419 9.74243 17.2254 10.1519 16.7645C10.3279 16.5664 10.5871 16.2656 10.7279 16.0958C11.1607 15.5745 12.3215 14.4438 13.1256 13.7606C13.312 13.6022 13.5019 13.4366 13.5477 13.3926C13.5933 13.3486 13.6616 13.3126 13.6992 13.3126C13.737 13.3126 13.7679 13.2838 13.7679 13.2486C13.7679 13.2134 13.8091 13.1846 13.8595 13.1846C13.9099 13.1846 13.9695 13.127 13.9919 13.0566C14.0146 12.9851 14.0887 12.9286 14.16 12.9286C14.2301 12.9286 14.2696 12.8998 14.2479 12.8646C14.2261 12.8294 14.24 12.8006 14.2787 12.8006C14.3175 12.8006 14.4111 12.743 14.4866 12.6726C14.5621 12.6022 14.6635 12.5446 14.7117 12.5446C14.76 12.5446 14.7816 12.5158 14.7599 12.4806C14.7381 12.4454 14.7651 12.4166 14.82 12.4166C14.8749 12.4166 14.9199 12.3913 14.9199 12.3605C14.9199 12.3294 15.0063 12.2683 15.1119 12.2246C15.2175 12.1809 15.3039 12.1233 15.3039 12.0966C15.3039 12.0699 15.3903 12.0123 15.4959 11.9686C15.6015 11.9249 15.6879 11.8686 15.6879 11.8435C15.6879 11.8184 15.7258 11.7979 15.772 11.7979C15.8557 11.7979 16.2602 11.5373 16.3351 11.4352C16.3565 11.4057 16.3928 11.3846 16.4157 11.3881C16.4557 11.3944 16.6288 11.2976 16.9679 11.0792C17.0559 11.0225 17.2786 10.9043 17.4629 10.8165C17.6471 10.7285 17.7983 10.635 17.7989 10.6086C17.7994 10.5822 17.8418 10.5606 17.893 10.5606C17.9443 10.5606 18.1328 10.4742 18.3119 10.3686C18.4909 10.263 18.6794 10.1766 18.7307 10.1766C18.7819 10.1766 18.8239 10.143 18.8239 10.1019C18.8239 10.0609 18.8419 10.0454 18.864 10.0675C18.8861 10.0896 19.0311 10.0368 19.1863 9.95006C19.3415 9.8635 19.5106 9.79262 19.5621 9.79262C19.6136 9.79262 19.6559 9.77006 19.6559 9.74254C19.6559 9.71502 19.7351 9.68606 19.8319 9.67806C19.9287 9.67006 20.0175 9.63502 20.0291 9.60014C20.041 9.5651 20.1218 9.53662 20.209 9.53662C20.2983 9.53662 20.3501 9.50878 20.3279 9.47262C20.3048 9.43534 20.3699 9.40862 20.484 9.40862C20.5917 9.40862 20.6799 9.38254 20.6799 9.35054C20.6799 9.3187 20.7404 9.30846 20.8144 9.32782C20.8906 9.34766 20.9714 9.32686 21.0005 9.2795C21.0288 9.23358 21.1052 9.19182 21.17 9.18638C21.2348 9.1811 21.3488 9.1435 21.4234 9.10302C21.498 9.06238 21.5728 9.04286 21.5896 9.05966C21.6064 9.07646 21.7255 9.04638 21.8541 8.99262C21.9826 8.93886 22.0879 8.90814 22.0879 8.92446C22.0879 8.94078 22.1959 8.90782 22.3279 8.85118C22.5648 8.74942 22.9162 8.6651 23.3839 8.59774C23.5159 8.5787 23.6239 8.53742 23.6239 8.5059C23.6239 8.47438 23.7373 8.44862 23.876 8.44862C24.0147 8.44862 24.1429 8.4251 24.1607 8.39614C24.1786 8.36734 24.3458 8.33694 24.5325 8.32862C24.7191 8.32014 24.8992 8.28622 24.9327 8.25294C24.9661 8.21982 25.1623 8.19262 25.3685 8.19262C25.6021 8.19262 25.7285 8.16846 25.7039 8.12862C25.6712 8.07582 26.2639 8.02958 26.7439 8.0475C26.7879 8.0491 26.8239 8.02478 26.8239 7.99358C26.8239 7.96222 27.1647 7.93662 27.581 7.93662C28.5728 7.93662 28.4952 8.1315 28.4735 5.69662L28.4559 3.74462L27.3519 3.72718C26.6301 3.71566 26.2479 3.7323 26.2479 3.77518ZM43.7199 8.38462C43.7199 8.41982 43.6983 8.44526 43.6719 8.4411C43.5133 8.41598 43.3343 8.45822 43.3679 8.51262C43.3896 8.54782 43.3757 8.57662 43.337 8.57662C43.2344 8.57662 42.7013 8.98062 42.6984 9.06062C42.697 9.0979 42.6453 9.1843 42.5834 9.25262C42.4311 9.42062 42.3119 9.70126 42.3119 9.89166C42.3119 9.9779 42.2888 10.0486 42.2607 10.0486C42.2327 10.0486 42.2123 10.1422 42.2155 10.2566C42.2277 10.6832 42.4202 11.4566 42.5141 11.4566C42.5437 11.4566 42.5679 11.4934 42.5679 11.5385C42.5679 11.5835 42.6255 11.6619 42.6959 11.7126C42.7663 11.7633 42.8239 11.8433 42.8239 11.8905C42.8239 11.9376 42.8474 11.9616 42.8762 11.9438C42.905 11.9261 42.969 11.9675 43.0183 12.036C43.0677 12.1046 43.1327 12.1606 43.1626 12.1606C43.1925 12.1606 43.2535 12.1966 43.2979 12.2406C43.3424 12.2846 43.4599 12.3782 43.5591 12.4486C43.6583 12.519 43.7925 12.627 43.8576 12.6886C43.9226 12.7502 43.9939 12.8006 44.0162 12.8006C44.0383 12.8006 44.1618 12.8942 44.2907 13.0086C44.4197 13.123 44.6963 13.3606 44.9058 13.5366C45.1152 13.7126 45.3947 13.9613 45.5272 14.0891C45.6595 14.2169 45.7679 14.3104 45.7679 14.2968C45.7679 14.2675 46.3149 14.8262 46.5136 15.0584C46.5895 15.1469 46.6903 15.244 46.7376 15.2739C46.8546 15.3481 47.4407 16.0017 47.5599 16.1907C47.6127 16.2745 47.7495 16.4315 47.8639 16.5393C47.9783 16.6473 48.0719 16.7585 48.0719 16.7864C48.0719 16.8141 48.1733 16.9384 48.2973 17.0624C48.4215 17.1864 48.5034 17.3195 48.4795 17.3582C48.4535 17.4003 48.4656 17.4102 48.5099 17.3827C48.5506 17.3576 48.5839 17.3603 48.584 17.3888C48.584 17.4173 48.6704 17.5414 48.7759 17.6646C48.8813 17.7878 48.9677 17.9113 48.9677 17.9392C48.9679 17.9944 49.1939 18.3256 49.3594 18.5131C49.4163 18.5777 49.5171 18.7365 49.5834 18.8659C49.6496 18.9952 49.7543 19.1577 49.8159 19.227C49.8775 19.2961 49.9279 19.3905 49.9279 19.4366C49.9279 19.4829 49.9567 19.5206 49.9919 19.5206C50.0271 19.5206 50.0559 19.5782 50.0559 19.6486C50.0559 19.719 50.0811 19.7766 50.112 19.7766C50.1431 19.7766 50.2042 19.863 50.2479 19.9686C50.2915 20.0742 50.3527 20.1606 50.3837 20.1606C50.4146 20.1606 50.4399 20.2182 50.4399 20.2886C50.4399 20.359 50.4687 20.4166 50.5039 20.4166C50.5391 20.4166 50.5679 20.4718 50.5679 20.5393C50.5679 20.6067 50.5898 20.6715 50.6165 20.6833C50.6818 20.712 51.209 21.7713 51.2083 21.8726C51.208 21.9166 51.2367 21.9526 51.2719 21.9526C51.3071 21.9526 51.3359 22.0102 51.3359 22.0806C51.3359 22.151 51.3647 22.2086 51.3999 22.2086C51.4351 22.2086 51.4639 22.2645 51.4639 22.3328C51.4639 22.4011 51.4927 22.4749 51.5279 22.4966C51.5631 22.5184 51.5919 22.5921 51.5919 22.6605C51.5919 22.7288 51.6207 22.7846 51.6559 22.7846C51.6911 22.7846 51.7199 22.8549 51.7199 22.9408C51.7199 23.0267 51.7506 23.1161 51.7882 23.1393C51.8258 23.1625 51.8415 23.2209 51.8231 23.2691C51.8045 23.3171 51.817 23.3736 51.8506 23.3944C51.8843 23.4152 51.9119 23.4885 51.9119 23.5573C51.9119 23.6261 51.9373 23.7323 51.9683 23.7934C52.1167 24.0849 52.1744 24.2382 52.184 24.3653C52.1898 24.4414 52.2173 24.4896 52.2451 24.4725C52.273 24.4552 52.2959 24.5275 52.2959 24.6331C52.2959 24.7387 52.3247 24.8429 52.3599 24.8646C52.3951 24.8864 52.4239 24.9688 52.4239 25.0477C52.4239 25.1265 52.4584 25.2256 52.5007 25.2678C52.5429 25.3101 52.5594 25.3446 52.5371 25.3446C52.5149 25.3446 52.5253 25.4382 52.5602 25.5526C52.705 26.027 52.9205 26.9457 52.9576 27.247C52.9674 27.3253 52.9952 27.4093 53.0195 27.4336C53.0439 27.4581 53.0639 27.6171 53.0639 27.7873C53.0639 27.9574 53.0895 28.0966 53.1208 28.0966C53.1522 28.0966 53.1967 28.3198 53.2197 28.5926C53.2427 28.8654 53.2906 29.3766 53.3263 29.7286C53.4237 30.6926 53.4688 33.4726 53.3871 33.4726C53.3447 33.4726 53.3199 33.7073 53.3199 34.1088C53.3199 34.464 53.2915 34.7625 53.2559 34.7846C53.2207 34.8064 53.1919 35.008 53.1919 35.2326C53.1919 35.4573 53.1631 35.6589 53.1279 35.6806C53.0927 35.7024 53.0639 35.8464 53.0639 36.0006C53.0639 36.1549 53.0351 36.2989 52.9999 36.3206C52.9647 36.3424 52.9359 36.5041 52.9359 36.6801C52.9359 36.8561 52.9143 36.9869 52.8879 36.9707C52.8615 36.9544 52.8325 37.0413 52.8235 37.1637C52.8146 37.2862 52.7786 37.4398 52.7435 37.5053C52.7085 37.5707 52.6799 37.6985 52.6799 37.7893C52.6799 37.8801 52.6546 38.0043 52.6237 38.0654C52.5379 38.2353 52.4239 38.6208 52.4239 38.7411C52.4239 38.8003 52.4011 38.8486 52.3735 38.8486C52.3458 38.8486 52.3162 38.9403 52.3075 39.0523C52.2991 39.1645 52.2667 39.2869 52.2357 39.3243C52.2047 39.3619 52.1591 39.5009 52.1343 39.6333C52.1096 39.7657 52.0634 39.8901 52.0315 39.9097C51.9997 39.9294 51.9904 39.9723 52.0106 40.0051C52.0309 40.0377 52.017 40.0646 51.9797 40.0646C51.9424 40.0646 51.9119 40.1205 51.9119 40.1888C51.9119 40.2571 51.8819 40.3317 51.8453 40.3542C51.8087 40.3769 51.7962 40.4505 51.8176 40.5181C51.8394 40.5865 51.8264 40.6406 51.7882 40.6406C51.7506 40.6406 51.7199 40.7126 51.7199 40.8006C51.7199 40.8886 51.6911 40.9606 51.6559 40.9606C51.6207 40.9606 51.5919 41.0182 51.5919 41.0886C51.5919 41.159 51.5631 41.2166 51.5279 41.2166C51.4927 41.2166 51.4639 41.3006 51.4639 41.4033C51.4639 41.5059 51.4423 41.5995 51.4159 41.6113C51.3895 41.623 51.2106 41.9494 51.0184 42.3366C50.8261 42.7238 50.6461 43.0502 50.6184 43.0619C50.5906 43.0737 50.5679 43.1385 50.5679 43.2059C50.5679 43.2734 50.5391 43.3286 50.5039 43.3286C50.4687 43.3286 50.4399 43.3862 50.4399 43.4566C50.4399 43.527 50.4147 43.5846 50.384 43.5846C50.3533 43.5846 50.2528 43.7358 50.1608 43.9206C50.0688 44.1054 49.9931 44.2294 49.9927 44.196C49.9922 44.1627 49.9173 44.2851 49.8261 44.468C49.7351 44.651 49.6362 44.8006 49.6064 44.8006C49.5768 44.8006 49.5341 44.8584 49.5117 44.9289C49.4893 44.9995 49.4045 45.1363 49.3232 45.2329C49.2419 45.3296 49.1703 45.4374 49.164 45.4726C49.1576 45.5078 49.0821 45.6155 48.9962 45.7121C48.9103 45.8086 48.8399 45.9193 48.8399 45.9584C48.8399 45.9974 48.7535 46.1099 48.6479 46.2086C48.5423 46.3073 48.4559 46.4153 48.4559 46.4488C48.4559 46.4822 48.3763 46.5931 48.2792 46.6952C48.1819 46.7971 48.0383 46.971 47.9599 47.0816C47.8815 47.192 47.7234 47.3822 47.6085 47.5042C47.4938 47.6261 47.1983 47.9489 46.9519 48.2217C46.1466 49.1131 45.3739 49.8429 45.1504 49.9232C45.0976 49.9421 45.0493 49.9853 45.0431 50.0192C45.0267 50.1083 44.6443 50.4326 44.5557 50.4326C44.5143 50.4326 44.4981 50.4614 44.5199 50.4966C44.5416 50.5318 44.5351 50.5606 44.5053 50.5606C44.4755 50.5606 44.3228 50.675 44.1656 50.8149C44.0084 50.9545 43.8503 51.0697 43.8139 51.0709C43.7778 51.0718 43.7066 51.1302 43.6559 51.2006C43.6051 51.271 43.5267 51.3286 43.4818 51.3286C43.4367 51.3286 43.3999 51.3574 43.3999 51.3926C43.3999 51.4278 43.3631 51.4566 43.3179 51.4566C43.273 51.4566 43.1946 51.5142 43.1439 51.5846C43.0931 51.655 43.0147 51.7126 42.9698 51.7126C42.9247 51.7126 42.8879 51.7414 42.8879 51.7766C42.8879 51.8118 42.8447 51.8406 42.7919 51.8406C42.7391 51.8406 42.6959 51.8694 42.6959 51.9046C42.6959 51.9398 42.665 51.9686 42.6274 51.9686C42.5898 51.9686 42.4386 52.0512 42.2914 52.1521C42.1442 52.2531 41.8799 52.4129 41.7039 52.5075C41.3293 52.7088 41.1404 52.8198 41.0959 52.8651C40.9916 52.971 40.4023 53.2386 40.3591 53.1995C40.3306 53.1738 40.328 53.1886 40.3533 53.2326C40.3818 53.2821 40.3613 53.3126 40.2997 53.3126C40.2448 53.3126 40.1999 53.3414 40.1999 53.3766C40.1999 53.4118 40.1423 53.4406 40.0719 53.4406C40.0015 53.4406 39.9439 53.4694 39.9439 53.5046C39.9439 53.5398 39.9079 53.5689 39.8639 53.5693C39.8199 53.5696 39.6405 53.6392 39.4653 53.724C39.2901 53.8088 39.1202 53.8618 39.0876 53.8416C39.0547 53.8214 39.0487 53.8381 39.0738 53.8787C39.1026 53.9254 39.0709 53.9526 38.9877 53.9526C38.9152 53.9526 38.8559 53.9814 38.8559 54.0166C38.8559 54.0518 38.816 54.0806 38.7672 54.0806C38.7184 54.0806 38.5981 54.1224 38.4997 54.1734C38.4015 54.2243 38.2973 54.2515 38.2685 54.2336C38.2395 54.2157 38.2159 54.2315 38.2159 54.2688C38.2159 54.3061 38.1583 54.3366 38.0879 54.3366C38.0175 54.3366 37.9599 54.3654 37.9599 54.4006C37.9599 54.4358 37.8735 54.4646 37.7679 54.4646C37.6623 54.4646 37.5757 54.4862 37.5754 54.5126C37.5746 54.5835 37.2525 54.7206 37.0869 54.7206C37.008 54.7206 36.9252 54.7502 36.9028 54.7864C36.8805 54.8224 36.8284 54.8467 36.7871 54.8403C36.7456 54.8337 36.6687 54.8433 36.6159 54.8614C36.2506 54.9874 36.0443 55.0406 35.9234 55.0406C35.8466 55.0406 35.7839 55.0694 35.7839 55.1046C35.7839 55.1398 35.7032 55.1686 35.6047 55.1686C35.5061 55.1686 35.3949 55.1992 35.3575 55.2366C35.3202 55.2739 35.1877 55.3099 35.0632 55.3166C34.9387 55.3232 34.8499 55.3502 34.8661 55.3766C34.8823 55.403 34.7946 55.4246 34.6714 55.4246C34.5482 55.4246 34.4296 55.4534 34.4079 55.4886C34.3861 55.5238 34.2421 55.5526 34.0879 55.5526C33.9336 55.5526 33.7896 55.5814 33.7679 55.6166C33.7461 55.6518 33.6021 55.6806 33.4479 55.6806C33.2936 55.6806 33.1496 55.7094 33.1279 55.7446C33.1061 55.7798 32.9229 55.8086 32.7208 55.8086C32.5187 55.8086 32.3261 55.8355 32.2927 55.8685C32.2592 55.9014 31.9943 55.9365 31.7039 55.9464C31.4135 55.9563 31.1759 55.987 31.1759 56.0145C31.1759 56.0421 30.8189 56.0646 30.3828 56.0646C29.4104 56.0646 29.5119 55.8069 29.5119 58.2779V60.2886H30.628C31.3032 60.2886 31.7599 60.2633 31.7839 60.2246C31.8056 60.1894 32.032 60.1606 32.2869 60.1606C32.5418 60.1606 32.7776 60.1347 32.8111 60.1032C32.8445 60.0715 33.0735 60.0304 33.3199 60.0118C33.8747 59.9701 34.0672 59.9424 34.4668 59.8467C34.6399 59.8053 34.8138 59.7837 34.8533 59.7989C34.8928 59.8139 34.9771 59.7883 35.0408 59.7419C35.1044 59.6955 35.1944 59.672 35.2411 59.6899C35.2877 59.7078 35.3816 59.6926 35.4498 59.6561C35.5179 59.6197 35.6786 59.5829 35.8068 59.5742C35.9349 59.5656 36.0399 59.5355 36.0399 59.5075C36.0399 59.4795 36.1407 59.4566 36.2639 59.4566C36.3871 59.4566 36.4879 59.4278 36.4879 59.3926C36.4879 59.3574 36.5869 59.3286 36.708 59.3286C36.8291 59.3286 36.9461 59.2998 36.9679 59.2646C36.9896 59.2294 37.0904 59.2006 37.1919 59.2006C37.2933 59.2006 37.3941 59.1718 37.4159 59.1366C37.4376 59.1014 37.524 59.0726 37.6079 59.0726C37.6917 59.0726 37.7781 59.0438 37.7999 59.0086C37.8216 58.9734 37.9098 58.9446 37.9957 58.9446C38.0816 58.9446 38.1519 58.9158 38.1519 58.8806C38.1519 58.8454 38.2383 58.8166 38.3439 58.8166C38.4495 58.8166 38.5359 58.7878 38.5359 58.7526C38.5359 58.7174 38.6223 58.6886 38.7279 58.6886C38.8335 58.6886 38.9199 58.6598 38.9199 58.6246C38.9199 58.5894 38.9634 58.5606 39.0167 58.5606C39.07 58.5606 39.1707 58.5318 39.2407 58.4966C39.3106 58.4614 39.4252 58.4038 39.4951 58.3686C39.565 58.3334 39.6802 58.3046 39.7511 58.3046C39.8219 58.3046 39.8799 58.2758 39.8799 58.2406C39.8799 58.2054 39.9204 58.1766 39.9698 58.1766C40.0192 58.1766 40.1776 58.119 40.3218 58.0486C40.466 57.9782 40.7018 57.863 40.8459 57.7926C40.9901 57.7222 41.1485 57.6646 41.198 57.6646C41.2474 57.6646 41.2879 57.6425 41.2879 57.6157C41.2879 57.5558 41.7634 57.3446 41.8983 57.3446C41.952 57.3446 42.0123 57.3016 42.0325 57.249C42.0528 57.1965 42.0952 57.1694 42.1271 57.1891C42.1587 57.2086 42.2637 57.1704 42.3603 57.104C42.5211 56.9933 42.8955 56.7885 43.2554 56.6141C43.3343 56.5758 43.3991 56.523 43.3994 56.4966C43.3997 56.4702 43.4431 56.4486 43.4959 56.4486C43.5487 56.4486 43.5919 56.4253 43.5919 56.3966C43.5919 56.368 43.6927 56.305 43.8159 56.2566C43.9391 56.2083 44.0399 56.1453 44.0399 56.1166C44.0399 56.088 44.0759 56.0646 44.1199 56.0646C44.1639 56.0645 44.2826 55.9933 44.3837 55.9064C44.4848 55.8194 44.6216 55.7312 44.6877 55.7101C44.7538 55.6891 44.8079 55.6451 44.8079 55.6123C44.8079 55.5795 44.8655 55.5526 44.9359 55.5526C45.0063 55.5526 45.0639 55.5301 45.0639 55.5024C45.0639 55.4749 45.1511 55.4008 45.2576 55.3377C45.3642 55.2749 45.5213 55.1534 45.6067 55.068C45.6922 54.9825 45.8082 54.9126 45.8647 54.9126C45.9211 54.9126 45.9496 54.8838 45.9279 54.8486C45.9061 54.8134 45.9331 54.7846 45.988 54.7846C46.0429 54.7846 46.0879 54.7558 46.0879 54.7206C46.0879 54.6854 46.1239 54.6561 46.1679 54.6557C46.2119 54.655 46.3775 54.5403 46.5359 54.4006C46.6943 54.2609 46.8434 54.1462 46.8672 54.1456C46.8912 54.1451 46.9492 54.1086 46.996 54.0646C47.0979 53.9689 47.4605 53.6539 47.9722 53.2166C48.1781 53.0406 48.6575 52.5901 49.0373 52.2155C49.4173 51.8408 49.7443 51.5504 49.764 51.5701C49.7837 51.5899 49.7999 51.5709 49.7999 51.5281C49.7999 51.4853 49.9007 51.3465 50.0239 51.2197C50.1471 51.0928 50.2479 51.0145 50.2479 51.0456C50.2479 51.0768 50.3255 50.9877 50.4202 50.8475C50.5149 50.7073 50.6949 50.4901 50.8202 50.3649C50.9455 50.2397 51.1339 50.0093 51.2394 49.8529C51.3447 49.6965 51.477 49.5254 51.5333 49.4726C51.5896 49.4198 51.6475 49.345 51.6618 49.3064C51.692 49.2249 52.0695 48.7563 52.2799 48.539C52.3591 48.4573 52.4239 48.3601 52.4239 48.323C52.4239 48.2859 52.5103 48.1651 52.6159 48.0546C52.7215 47.944 52.8079 47.8147 52.8079 47.7672C52.8079 47.7195 52.8319 47.6806 52.861 47.6806C52.8903 47.6806 52.9551 47.6014 53.005 47.5046C53.0551 47.4078 53.1463 47.2728 53.2079 47.2046C53.2695 47.1363 53.3199 47.0427 53.3199 46.9966C53.3199 46.9504 53.3427 46.9126 53.3709 46.9126C53.3989 46.9126 53.5306 46.6984 53.6635 46.4366C53.7965 46.1747 53.9464 45.9264 53.9965 45.8848C54.0467 45.843 54.0879 45.7731 54.0879 45.7294C54.0879 45.6857 54.1458 45.5763 54.2165 45.4864C54.2871 45.3966 54.3627 45.2342 54.3845 45.1258C54.4061 45.0174 54.4491 44.9286 54.4799 44.9286C54.5107 44.9286 54.5359 44.8693 54.5359 44.7968C54.5359 44.7243 54.5586 44.679 54.5863 44.6963C54.6139 44.7134 54.6715 44.643 54.7143 44.54C54.757 44.4369 54.8267 44.2683 54.8695 44.1653C54.9122 44.0622 54.9698 43.9918 54.9975 44.0089C55.0251 44.0262 55.0479 43.9848 55.0479 43.9173C55.0479 43.8496 55.1613 43.5737 55.3 43.304C55.4387 43.0344 55.5279 42.8288 55.4981 42.8473C55.4682 42.8657 55.4771 42.8089 55.5178 42.7213C55.5586 42.6334 55.6135 42.5614 55.6399 42.5611C55.6663 42.5608 55.6879 42.4742 55.6879 42.3686C55.6879 42.263 55.7167 42.1766 55.7519 42.1766C55.7871 42.1766 55.8159 42.1208 55.8159 42.0525C55.8159 41.9841 55.8447 41.9104 55.8799 41.8886C55.9151 41.8669 55.9439 41.7787 55.9439 41.6928C55.9439 41.6069 55.9691 41.5366 55.9999 41.5366C56.0307 41.5366 56.0779 41.443 56.1048 41.3286C56.1317 41.2142 56.1573 41.1062 56.1616 41.0886C56.1658 41.071 56.2023 40.9702 56.2426 40.8646C56.3967 40.4611 56.4123 40.4121 56.4376 40.2566C56.452 40.1686 56.4907 40.0693 56.5239 40.0358C56.5568 40.0024 56.5839 39.8961 56.5839 39.7997C56.5839 39.7032 56.6095 39.6083 56.6408 39.5889C56.672 39.5696 56.7155 39.4456 56.7373 39.3133C56.7829 39.0353 56.8235 38.8305 56.8421 38.7846C56.8491 38.767 56.8515 38.731 56.8474 38.7046C56.8432 38.6782 56.8639 38.6566 56.8931 38.6566C56.9226 38.6566 56.9488 38.6206 56.9515 38.5766C56.9741 38.2126 57.0567 37.7174 57.1031 37.6678C57.1343 37.6344 57.1599 37.4705 57.1599 37.3037C57.1599 37.1368 57.1887 36.9824 57.2239 36.9606C57.2591 36.9389 57.2879 36.7805 57.2879 36.6086C57.2879 36.4368 57.3167 36.2784 57.3519 36.2566C57.3871 36.2349 57.4159 36.0478 57.4159 35.8409C57.4159 35.6342 57.4432 35.3931 57.4767 35.3053C57.5099 35.2174 57.5424 34.8699 57.5487 34.5331C57.5551 34.1963 57.5853 33.9206 57.616 33.9206C57.6467 33.9206 57.6719 32.9846 57.6719 31.8406C57.6719 30.5989 57.6479 29.7606 57.6122 29.7606C57.5795 29.7606 57.5368 29.4942 57.5176 29.1686C57.4475 27.9838 57.4045 27.5846 57.3467 27.5846C57.3144 27.5846 57.2879 27.428 57.2879 27.2365C57.2879 27.0449 57.2591 26.8704 57.2239 26.8486C57.1887 26.8269 57.1599 26.6829 57.1599 26.5286C57.1599 26.3744 57.1311 26.2304 57.0959 26.2086C57.0607 26.1869 57.0319 26.0411 57.0319 25.8848C57.0319 25.7285 57.0091 25.6006 56.9813 25.6006C56.9535 25.6006 56.9344 25.507 56.9389 25.3926C56.9434 25.2782 56.9168 25.127 56.8797 25.0566C56.8427 24.9862 56.8091 24.9142 56.8051 24.8966C56.7167 24.5046 56.689 24.3382 56.7018 24.2726C56.7104 24.2286 56.6874 24.1926 56.6507 24.1926C56.6139 24.1926 56.5839 24.1219 56.5839 24.0357C56.5839 23.9493 56.5587 23.8125 56.528 23.7317C56.4973 23.6507 56.4378 23.4694 56.3959 23.3286C56.3538 23.1878 56.2925 23.0078 56.2597 22.9286C56.1504 22.6653 56.0903 22.499 56.0114 22.2406C55.9683 22.0998 55.8779 21.8625 55.8104 21.7133C55.7431 21.5641 55.6879 21.3985 55.6879 21.3453C55.6879 21.2921 55.6591 21.2486 55.6239 21.2486C55.5887 21.2486 55.5599 21.2003 55.5599 21.1411C55.5599 20.9853 55.4149 20.6086 55.3551 20.6086C55.3269 20.6086 55.3039 20.5349 55.3039 20.4448C55.3039 20.352 55.2762 20.2982 55.2399 20.3206C55.2047 20.3424 55.1759 20.3009 55.1759 20.2285C55.1759 20.156 55.1471 20.0966 55.1119 20.0966C55.0767 20.0966 55.0479 20.039 55.0479 19.9686C55.0479 19.8982 55.0251 19.8406 54.9975 19.8406C54.9698 19.8406 54.9424 19.7784 54.9367 19.7024C54.9309 19.6264 54.9016 19.5472 54.8714 19.5264C54.8413 19.5056 54.7787 19.395 54.7325 19.2806C54.6863 19.1662 54.6231 19.0726 54.592 19.0726C54.5611 19.0726 54.5359 19.0201 54.5359 18.956C54.5359 18.8459 54.176 18.1174 54.0877 18.0486C54.0477 18.0176 53.952 17.7931 53.9512 17.7286C53.9509 17.711 53.909 17.6733 53.8579 17.6446C53.8069 17.6161 53.7819 17.5657 53.8023 17.5326C53.8228 17.4997 53.8141 17.4726 53.7831 17.4726C53.752 17.4726 53.6616 17.3286 53.5821 17.1526C53.5026 16.9766 53.4109 16.8326 53.3786 16.8326C53.3463 16.8326 53.3199 16.7949 53.3199 16.7486C53.3199 16.7025 53.2695 16.6089 53.2079 16.5406C53.1463 16.4725 53.0551 16.3374 53.005 16.2406C52.9551 16.1438 52.8903 16.0646 52.861 16.0646C52.8319 16.0646 52.8079 16.0214 52.8079 15.9686C52.8079 15.9158 52.7791 15.8726 52.7439 15.8726C52.7087 15.8726 52.6799 15.8339 52.6799 15.7865C52.6799 15.7392 52.6223 15.6483 52.5519 15.5846C52.4815 15.5209 52.4239 15.4365 52.4239 15.3968C52.4239 15.3573 52.3663 15.2833 52.2959 15.2326C52.2255 15.1819 52.1679 15.1059 52.1679 15.064C52.1679 15.0219 52.0815 14.9059 51.9759 14.8062C51.8703 14.7065 51.7839 14.6021 51.7839 14.5741C51.7839 14.5142 51.6896 14.395 51.4479 14.1496C51.3511 14.0512 51.2719 13.9385 51.2719 13.899C51.2719 13.8597 51.1135 13.6689 50.9199 13.4753C50.7263 13.2817 50.5679 13.1088 50.5679 13.0907C50.5679 13.0728 50.5175 12.9987 50.4559 12.9261C50.2634 12.6992 49.7359 12.1597 49.7359 12.1897C49.7359 12.2177 49.0671 11.5451 48.9309 11.3801C48.893 11.3342 48.7285 11.1779 48.5655 11.0328C48.4024 10.8877 48.2895 10.7462 48.3144 10.7185C48.3394 10.6907 48.3301 10.6849 48.2938 10.7056C48.2573 10.7262 48.0557 10.5869 47.8458 10.3958C47.6357 10.2049 47.4405 10.0488 47.412 10.0486C47.3835 10.0486 47.3808 10.0153 47.4059 9.9747C47.433 9.93086 47.4237 9.91822 47.3829 9.94334C47.3451 9.9667 47.2115 9.88894 47.0861 9.7707C46.9608 9.65246 46.8432 9.57054 46.825 9.58878C46.8067 9.60702 46.7919 9.59022 46.7919 9.55166C46.7919 9.51294 46.7415 9.46462 46.6799 9.4443C46.6183 9.42398 46.477 9.32846 46.3658 9.23198C45.7971 8.73854 45.3643 8.44862 45.1963 8.44862C45.1235 8.44862 45.0639 8.41982 45.0639 8.38462C45.0639 8.34606 44.7971 8.32062 44.3919 8.32062C43.9866 8.32062 43.7199 8.34606 43.7199 8.38462ZM38.5679 23.1259C38.4271 23.1638 38.2975 23.2149 38.2799 23.2393C38.2623 23.2638 38.1903 23.2939 38.1199 23.3062C38.0495 23.3185 37.936 23.379 37.8679 23.4406C37.7995 23.5022 37.7059 23.5526 37.6599 23.5526C37.6136 23.5526 37.5759 23.5752 37.5759 23.6029C37.5759 23.6304 37.4912 23.703 37.3877 23.7641C37.2842 23.8254 37.0754 23.9888 36.9237 24.1275C36.4973 24.5171 36.4264 24.5766 36.3893 24.5766C36.3703 24.5766 36.2439 24.6846 36.1082 24.8166C35.9725 24.9486 35.7707 25.1286 35.6595 25.2166C35.5485 25.3046 35.4231 25.4059 35.3807 25.4416C35.3384 25.4773 35.1747 25.6069 35.017 25.7296C34.8592 25.8523 34.6576 26.0152 34.569 26.0917C34.1042 26.4929 33.8767 26.6784 33.6949 26.8041C33.5845 26.8806 33.3933 27.0371 33.2701 27.152C32.5341 27.8379 32.3847 27.9686 32.3368 27.9686C32.3077 27.9686 32.1136 28.1141 31.9058 28.2918C31.0501 29.0238 30.8195 29.2184 30.7354 29.28C30.6868 29.3155 30.5355 29.4526 30.3995 29.5846C30.2634 29.7166 30.138 29.8246 30.1207 29.8246C30.0772 29.8246 29.8552 30.0094 29.6015 30.2566C29.4842 30.371 29.3731 30.4646 29.3547 30.4646C29.3205 30.4646 29.1196 30.6221 28.9607 30.7733C28.9119 30.8197 28.8719 30.839 28.8719 30.8163C28.8719 30.7934 28.7872 30.8561 28.6837 30.9557C28.48 31.1518 28.2719 31.332 27.8464 31.6806C27.6962 31.8038 27.488 31.9838 27.3837 32.0806C27.2796 32.1774 27.1757 32.2568 27.1531 32.2569C27.1304 32.2571 26.9752 32.3867 26.808 32.5449C26.641 32.7032 26.4901 32.8326 26.4728 32.8326C26.4306 32.8326 26.2328 32.9997 25.888 33.3264C25.7315 33.4747 25.5829 33.596 25.5576 33.596C25.5325 33.596 25.3679 33.719 25.1919 33.8693C25.0159 34.0195 24.8343 34.1718 24.7883 34.2077C24.7424 34.2433 24.6015 34.3713 24.4751 34.4921C24.221 34.7347 24.24 34.7413 23.9439 34.3081C23.7866 34.0782 23.601 33.8469 23.4479 33.6899C23.3687 33.6088 23.3039 33.5125 23.3039 33.4757C23.3039 33.439 23.2037 33.3027 23.0812 33.1728C22.9587 33.043 22.8699 32.9253 22.8839 32.9113C22.8978 32.8973 22.7965 32.7696 22.6586 32.6275C22.5207 32.4854 22.4079 32.3345 22.4079 32.292C22.4079 32.2496 22.336 32.1473 22.2482 32.0648C22.1602 31.9824 22.1002 31.9029 22.1147 31.8883C22.1293 31.8739 22.0931 31.811 22.0346 31.7489C21.8458 31.5489 21.7039 31.3605 21.7039 31.3101C21.7039 31.283 21.6463 31.2193 21.5759 31.1686C21.5055 31.1179 21.4479 31.0387 21.4479 30.9926C21.4479 30.9465 21.3616 30.816 21.2562 30.7027C20.7445 30.1526 20.636 30.0174 20.6723 29.9765C20.6941 29.9521 20.6778 29.9517 20.636 29.9757C20.5943 29.9995 20.4935 29.9537 20.412 29.8739C20.3306 29.7939 20.1919 29.6968 20.1039 29.6577C20.0159 29.6187 19.8187 29.5251 19.6658 29.4497C19.5128 29.3744 19.2954 29.3126 19.1826 29.3126C19.0698 29.3126 18.9451 29.2803 18.9056 29.2408C18.8045 29.1397 17.5167 29.2653 17.4437 29.3833C17.4242 29.4149 17.3536 29.4406 17.2869 29.4406C17.1607 29.4406 16.6429 29.724 16.393 29.9299C16.1077 30.1649 15.8159 30.4486 15.8159 30.4909C15.8159 30.5145 15.7583 30.5958 15.6879 30.6713C15.6175 30.7469 15.5599 30.8465 15.5599 30.8926C15.5599 30.9389 15.5311 30.9766 15.4959 30.9766C15.4607 30.9766 15.4319 31.0198 15.4319 31.0726C15.4319 31.1254 15.4063 31.1686 15.3751 31.1686C15.3439 31.1686 15.3021 31.2478 15.2824 31.3446C15.2626 31.4414 15.2115 31.679 15.169 31.8726C15.0843 32.2576 15.0456 32.9606 15.109 32.9606C15.1442 32.9606 15.1829 33.199 15.192 33.4726C15.1938 33.5254 15.2211 33.5856 15.2528 33.6064C15.2843 33.6272 15.3149 33.7064 15.3207 33.7824C15.3264 33.8584 15.3538 33.9206 15.3815 33.9206C15.4091 33.9206 15.4319 33.9758 15.4319 34.0433C15.4319 34.1107 15.4586 34.1755 15.4911 34.1873C15.5237 34.199 15.5597 34.2518 15.5711 34.3046C15.5826 34.3574 15.6711 34.4801 15.7679 34.5771C15.8647 34.6742 15.9439 34.767 15.9439 34.7833C15.9439 34.8297 16.3459 35.3974 16.4879 35.5513C16.6503 35.7275 16.7695 35.8792 16.9667 36.1606C17.053 36.2838 17.1535 36.4171 17.1898 36.4568C17.2261 36.4965 17.2991 36.5929 17.3519 36.6712C17.5906 37.0246 17.9325 37.4849 18.0525 37.6144C18.1247 37.6923 18.1839 37.7805 18.1839 37.8102C18.1839 37.8401 18.2357 37.9203 18.2991 37.9886C18.3624 38.0568 18.4874 38.2205 18.5767 38.3523C18.6661 38.4841 18.7557 38.5755 18.7757 38.5555C18.7957 38.5353 18.8311 38.5785 18.8543 38.6513C18.8773 38.7243 18.9314 38.82 18.9741 38.8643C19.017 38.9085 19.1226 39.0454 19.2088 39.1686C19.2951 39.2918 19.4355 39.4717 19.521 39.5683C19.6064 39.6648 19.7221 39.8121 19.7781 39.8957C19.8341 39.9792 19.9579 40.164 20.0533 40.3067C20.1487 40.4493 20.2571 40.5846 20.2943 40.6077C20.3315 40.6307 20.3426 40.6808 20.3191 40.7189C20.2954 40.7571 20.305 40.7705 20.3403 40.7486C20.3757 40.7269 20.4426 40.78 20.489 40.8669C20.5355 40.9536 20.5975 41.0246 20.6267 41.0246C20.6559 41.0246 20.6799 41.0678 20.6799 41.1206C20.6799 41.1734 20.7026 41.2166 20.7306 41.2166C20.7584 41.2166 20.888 41.3174 21.0187 41.4406C21.1493 41.5638 21.2866 41.6646 21.3239 41.6646C21.361 41.6646 21.3709 41.6979 21.3458 41.7385C21.3188 41.7824 21.328 41.795 21.3688 41.7699C21.4066 41.7466 21.4759 41.7654 21.5228 41.812C21.5695 41.8584 21.7015 41.9377 21.8159 41.9881C21.9303 42.0385 22.0239 42.1016 22.0239 42.1283C22.0239 42.1549 22.0959 42.1766 22.1839 42.1766C22.2719 42.1766 22.3439 42.2022 22.3439 42.2334C22.3439 42.2646 22.4375 42.3089 22.5519 42.3318C23.5696 42.5361 23.9468 42.5576 24.4879 42.4419C24.6639 42.4043 24.9018 42.3547 25.0167 42.3317C25.1315 42.3086 25.2411 42.2645 25.2605 42.2333C25.2797 42.2021 25.3514 42.1766 25.4197 42.1766C25.488 42.1766 25.5439 42.1478 25.5439 42.1126C25.5439 42.0774 25.6159 42.0486 25.7039 42.0486C25.7919 42.0486 25.8639 42.0246 25.8639 41.9955C25.8639 41.9662 25.9431 41.9016 26.0399 41.8518C26.1367 41.8022 26.2591 41.7178 26.3119 41.6643C26.3647 41.6109 26.5663 41.4489 26.7599 41.3041C27.0688 41.0734 27.2199 40.9456 27.6613 40.5414C27.717 40.4904 27.784 40.4486 27.8103 40.4486C27.8365 40.4486 27.9685 40.3334 28.1039 40.1926C28.2392 40.0518 28.3808 39.9366 28.4189 39.9366C28.4568 39.9366 28.4879 39.9078 28.4879 39.8726C28.4879 39.8374 28.5328 39.8086 28.5877 39.8086C28.6426 39.8086 28.6696 39.7798 28.6479 39.7446C28.6261 39.7094 28.6388 39.6806 28.676 39.6806C28.7132 39.6806 28.8659 39.5654 29.0154 39.4246C29.1648 39.2838 29.325 39.1686 29.3712 39.1686C29.4176 39.1686 29.4376 39.1398 29.4159 39.1046C29.3941 39.0694 29.4212 39.0406 29.476 39.0406C29.5309 39.0406 29.5759 39.0118 29.5759 38.9766C29.5759 38.9414 29.6191 38.9126 29.6719 38.9126C29.7247 38.9126 29.7679 38.8838 29.7679 38.8486C29.7679 38.8134 29.7999 38.7846 29.8389 38.7846C29.878 38.7846 30.0378 38.655 30.1939 38.4966C30.3501 38.3382 30.5026 38.2086 30.533 38.2086C30.5632 38.2086 30.7215 38.079 30.8845 37.9206C31.0474 37.7622 31.2034 37.6326 31.2309 37.6326C31.2584 37.6326 31.4096 37.5102 31.5667 37.3606C31.724 37.211 31.9602 37.0075 32.0917 36.9083C32.2232 36.8091 32.4008 36.6579 32.4864 36.5723C32.572 36.4867 32.6607 36.4166 32.6834 36.4166C32.7061 36.4166 32.8255 36.3158 32.9487 36.1926C33.0719 36.0694 33.1914 35.9681 33.2143 35.9677C33.2371 35.967 33.3461 35.8878 33.4565 35.7917C33.8496 35.4486 33.9627 35.3568 34.1839 35.2008C34.3071 35.1139 34.4994 34.9558 34.6112 34.8497C34.7232 34.7435 35.0056 34.4982 35.2389 34.3046C35.472 34.111 35.8053 33.8177 35.9792 33.6529C36.1531 33.4883 36.3531 33.335 36.4235 33.3126C36.4941 33.2904 36.5519 33.2403 36.5519 33.2016C36.5519 33.163 36.5701 33.1494 36.5924 33.1717C36.6146 33.1939 36.7082 33.1334 36.8004 33.0371C36.8925 32.9408 37.0975 32.7627 37.2559 32.6411C37.4143 32.5197 37.5904 32.3691 37.6474 32.3064C37.7043 32.2438 37.7771 32.1926 37.8093 32.1926C37.8413 32.1926 37.9091 32.135 37.9599 32.0646C38.0106 31.9942 38.0906 31.9366 38.1378 31.9366C38.1848 31.9366 38.2056 31.9078 38.1839 31.8726C38.1621 31.8374 38.1892 31.8086 38.244 31.8086C38.2989 31.8086 38.3439 31.7846 38.3439 31.7555C38.3439 31.7262 38.4149 31.6643 38.5016 31.6177C38.5885 31.5713 38.6443 31.5089 38.6259 31.479C38.6074 31.4491 38.6256 31.4246 38.6664 31.4246C38.7072 31.4246 38.8168 31.3443 38.9103 31.2462C39.0036 31.148 39.1807 30.9976 39.3039 30.9118C39.5704 30.7265 39.6271 30.6814 39.8971 30.4398C40.0109 30.3381 40.1752 30.2085 40.2623 30.1518C40.4226 30.0473 40.7096 29.7979 41.1724 29.3606C41.312 29.2286 41.4522 29.1206 41.4837 29.1206C41.5765 29.1206 42.2327 28.4373 42.2786 28.2929C42.3016 28.2201 42.3474 28.1606 42.3802 28.1606C42.413 28.1606 42.4399 28.103 42.4399 28.0326C42.4399 27.9622 42.4615 27.9045 42.4879 27.9041C42.5594 27.9033 42.6959 27.5805 42.6959 27.4118C42.6959 27.3309 42.7247 27.2646 42.7599 27.2646C42.7995 27.2646 42.8239 26.9233 42.8239 26.3686C42.8239 25.8139 42.7995 25.4726 42.7599 25.4726C42.7247 25.4726 42.6959 25.3862 42.6959 25.2806C42.6959 25.175 42.6671 25.0886 42.6319 25.0886C42.5967 25.0886 42.5679 25.031 42.5679 24.9606C42.5679 24.8902 42.5391 24.8326 42.5039 24.8326C42.4687 24.8326 42.4399 24.775 42.4399 24.7046C42.4399 24.6342 42.4111 24.5766 42.3759 24.5766C42.3407 24.5766 42.3119 24.5373 42.3119 24.4893C42.3119 24.3747 41.6898 23.7384 41.4639 23.6217C41.3671 23.5718 41.2879 23.507 41.2879 23.4777C41.2879 23.4486 41.2327 23.4246 41.1651 23.4246C41.0978 23.4246 41.033 23.4014 41.0211 23.3733C40.9156 23.1185 39.2263 22.9483 38.5679 23.1259Z" fill="url(#paint0_linear_675_1576)"/>
<path fill-rule="evenodd" clip-rule="evenodd" d="M28.4884 0.201786L28.296 0.403386V2.05107C28.296 3.45651 28.31 3.70403 28.392 3.73555C28.5339 3.78995 28.532 7.64883 28.3899 7.83651C28.2632 8.00419 28.2507 10.9949 28.376 11.2143C28.5724 11.5587 29.0761 11.788 29.3526 11.6587C29.4403 11.6178 29.584 11.5507 29.672 11.5095C29.76 11.4683 29.832 11.4107 29.832 11.3815C29.832 11.3523 29.8707 11.3283 29.918 11.3283C29.9654 11.3283 30.0563 11.2707 30.12 11.2003C30.1836 11.1299 30.2614 11.0723 30.2928 11.0723C30.3241 11.0723 30.4224 10.9999 30.511 10.9111C30.5996 10.8224 30.6939 10.7634 30.7204 10.7797C30.747 10.796 30.8091 10.7535 30.8584 10.685C30.9078 10.6163 30.9931 10.5603 31.048 10.5603C31.1028 10.5603 31.1892 10.5027 31.24 10.4323C31.2907 10.3619 31.3619 10.3043 31.398 10.3042C31.4344 10.3042 31.5648 10.2178 31.688 10.1123C31.8112 10.0069 31.9416 9.92051 31.9779 9.92051C32.014 9.92035 32.0852 9.86275 32.136 9.79235C32.1867 9.72195 32.2731 9.66435 32.328 9.66435C32.3828 9.66435 32.4692 9.60675 32.52 9.53635C32.5707 9.46595 32.6504 9.40835 32.6969 9.40835C32.7436 9.40835 32.8488 9.34355 32.9307 9.26435C33.0124 9.18515 33.115 9.11219 33.1585 9.10211C33.202 9.09203 33.2779 9.04355 33.3272 8.99427C33.3764 8.94499 33.4742 8.88643 33.5443 8.86419C33.6145 8.84195 33.672 8.79875 33.672 8.76835C33.672 8.73795 33.726 8.69587 33.7921 8.67491C33.8582 8.65379 33.995 8.56563 34.0961 8.47859C34.1972 8.39171 34.3096 8.32051 34.3459 8.32035C34.382 8.32035 34.4532 8.26275 34.504 8.19235C34.5547 8.12195 34.6369 8.06435 34.6865 8.06435C34.7363 8.06435 34.8235 8.01379 34.8804 7.95187C34.9374 7.89011 35.0632 7.79875 35.16 7.74915C35.2568 7.69939 35.336 7.63475 35.336 7.60547C35.336 7.57635 35.3728 7.55235 35.4179 7.55235C35.4628 7.55235 35.5412 7.49475 35.592 7.42435C35.6427 7.35395 35.7291 7.29635 35.784 7.29635C35.8388 7.29635 35.9252 7.23875 35.976 7.16835C36.0267 7.09795 36.1089 7.04035 36.1585 7.04035C36.2083 7.04035 36.2955 6.98995 36.3524 6.92835C36.4094 6.86675 36.5568 6.76019 36.68 6.69155C37.4494 6.26291 37.5868 5.61571 37.0217 5.08195C36.8577 4.92707 36.6849 4.80035 36.6377 4.80035C36.5905 4.80035 36.552 4.77507 36.552 4.74419C36.552 4.71315 36.4656 4.65203 36.36 4.60835C36.2544 4.56467 36.168 4.50675 36.168 4.47987C36.168 4.45299 36.0744 4.38371 35.96 4.32595C35.6494 4.16899 35.5091 4.07651 35.3934 3.95235C35.336 3.89075 35.2624 3.84035 35.23 3.84035C35.1976 3.84035 35.0715 3.75507 34.9496 3.65091C34.8276 3.54675 34.6984 3.46035 34.662 3.45891C34.6259 3.45747 34.5547 3.39875 34.504 3.32835C34.4532 3.25795 34.3604 3.20035 34.2979 3.20035C34.2352 3.20035 34.184 3.17635 34.184 3.14723C34.184 3.11795 34.1048 3.05331 34.008 3.00355C33.9112 2.95395 33.7854 2.86259 33.7284 2.80083C33.6715 2.73891 33.5843 2.68835 33.5345 2.68835C33.4849 2.68835 33.4027 2.63075 33.352 2.56035C33.3012 2.48995 33.2084 2.43235 33.1459 2.43235C33.0832 2.43235 33.032 2.40467 33.032 2.37075C33.032 2.33683 32.852 2.18723 32.632 2.03827C32.412 1.88931 32.1939 1.72979 32.1473 1.68387C32.1009 1.63795 32.0262 1.60035 31.9812 1.60035C31.9364 1.60035 31.8476 1.54275 31.784 1.47235C31.7203 1.40195 31.6214 1.34435 31.5641 1.34435C31.507 1.34435 31.4187 1.28675 31.368 1.21635C31.3172 1.14595 31.2308 1.08835 31.176 1.08835C31.1211 1.08835 31.0347 1.03075 30.984 0.960346C30.9332 0.889946 30.8536 0.832346 30.807 0.832346C30.7603 0.832346 30.6523 0.762426 30.5668 0.676986C30.4814 0.591546 30.3243 0.470106 30.2177 0.407226C30.1112 0.344186 30.024 0.270106 30.024 0.242586C30.024 0.214906 29.9931 0.192346 29.9553 0.192346C29.9177 0.192346 29.8436 0.149146 29.7908 0.0963463C29.5894 -0.105094 28.714 -0.0340537 28.4884 0.201786ZM46.984 9.69011C46.984 9.70275 47.087 9.79171 47.2129 9.88771C47.3985 10.0293 47.4264 10.0376 47.3603 9.93187C47.2905 9.82019 46.984 9.62323 46.984 9.69011ZM47.9475 10.4799C47.9494 10.5064 48.0392 10.5981 48.147 10.6834C48.3166 10.8176 48.332 10.821 48.2619 10.7088C48.175 10.5696 47.9417 10.3997 47.9475 10.4799ZM42.1884 10.6045C42.186 10.6816 42.2128 10.7626 42.248 10.7843C42.3236 10.8311 42.3236 10.7685 42.248 10.5923C42.195 10.469 42.1928 10.4693 42.1884 10.6045ZM44.04 12.837C44.04 12.88 44.1504 12.9875 44.3283 13.1179C44.3985 13.1693 44.3713 13.1189 44.268 13.0059C44.0784 12.7986 44.04 12.7701 44.04 12.837ZM50.568 13.093C50.568 13.1407 50.74 13.3123 50.788 13.3123C50.8083 13.3123 50.7891 13.2547 50.7451 13.1843C50.67 13.0642 50.568 13.0115 50.568 13.093ZM7.39996 13.2717C7.211 13.4912 7.17532 13.5781 7.33644 13.4263C7.43804 13.3306 7.50828 13.2399 7.4926 13.2247C7.47676 13.2096 7.43516 13.2307 7.39996 13.2717ZM6.75484 14.0405C6.61532 14.1923 6.45884 14.4643 6.5126 14.4616C6.543 14.4602 6.63388 14.3557 6.71452 14.2295C6.86204 13.9983 6.88284 13.9013 6.75484 14.0405ZM47.308 15.9043C47.308 15.9395 47.3504 16.0242 47.402 16.0925C47.4537 16.161 47.496 16.188 47.496 16.1528C47.496 16.1176 47.4537 16.033 47.402 15.9645C47.3504 15.8962 47.308 15.8691 47.308 15.9043ZM4.36908 17.3535C4.32396 17.4258 4.30108 17.4989 4.31836 17.516C4.33548 17.5333 4.383 17.4848 4.42396 17.4083C4.52076 17.2276 4.4758 17.1827 4.36908 17.3535ZM4.14716 17.698C4.12332 17.7675 4.08652 17.8675 4.06524 17.9203C4.04412 17.9732 4.075 17.9508 4.13404 17.8708C4.19324 17.7906 4.23004 17.6906 4.21596 17.6483C4.20156 17.6053 4.17148 17.6271 4.14716 17.698ZM8.68588 18.6563C8.62812 18.7444 8.60588 18.8163 8.63628 18.8163C8.66652 18.8163 8.72428 18.7444 8.76428 18.6563C8.80444 18.5683 8.82668 18.4963 8.81388 18.4963C8.80108 18.4963 8.74348 18.5683 8.68588 18.6563ZM49.4169 18.6751C49.4164 18.7205 49.4771 18.8213 49.5518 18.8991C49.672 19.0239 49.6796 19.0255 49.618 18.9123C49.482 18.6629 49.418 18.5872 49.4169 18.6751ZM17.832 29.2484C17.7852 29.324 17.8478 29.324 18.024 29.2484C18.1473 29.1954 18.147 29.1931 18.0118 29.1888C17.9347 29.1864 17.8537 29.2132 17.832 29.2484ZM16.3006 29.925C16.2328 29.9744 16.1897 30.0274 16.2048 30.0424C16.2198 30.0575 16.2876 30.0293 16.3553 29.9797C16.4232 29.9303 16.4662 29.8773 16.4512 29.8623C16.4361 29.8472 16.3683 29.8754 16.3006 29.925ZM21 30.3759C21 30.4111 21.0422 30.4957 21.0939 30.5642C21.1456 30.6325 21.188 30.6596 21.188 30.6244C21.188 30.5892 21.1456 30.5045 21.0939 30.4362C21.0422 30.3677 21 30.3407 21 30.3759ZM22.4868 32.4484C22.5619 32.5685 22.664 32.6212 22.664 32.5397C22.664 32.492 22.492 32.3204 22.444 32.3204C22.4236 32.3204 22.4428 32.378 22.4868 32.4484ZM29.1603 39.296C29.0964 39.3666 29.0651 39.4244 29.0907 39.4244C29.158 39.4244 29.3404 39.2316 29.3059 39.197C29.2897 39.1808 29.2243 39.2253 29.1603 39.296ZM28.234 40.0469C28.1502 40.1415 28.1524 40.148 28.2553 40.1085C28.3187 40.0842 28.3825 40.0644 28.3972 40.0644C28.412 40.0644 28.424 40.0356 28.424 40.0004C28.424 39.9063 28.3409 39.9266 28.234 40.0469ZM19.916 40.1604C19.916 40.1956 19.9584 40.2802 20.01 40.3485C20.0617 40.417 20.104 40.444 20.104 40.4088C20.104 40.3736 20.0617 40.289 20.01 40.2205C19.9584 40.1522 19.916 40.1252 19.916 40.1604ZM20.3716 40.8004C20.4116 40.8884 20.4694 40.9604 20.4996 40.9604C20.53 40.9604 20.5078 40.8884 20.45 40.8004C20.3924 40.7124 20.3348 40.6404 20.322 40.6404C20.3092 40.6404 20.3315 40.7124 20.3716 40.8004ZM49.6228 44.6724C49.5788 44.7428 49.5649 44.8004 49.592 44.8004C49.619 44.8004 49.6771 44.7428 49.7211 44.6724C49.7651 44.602 49.779 44.5444 49.752 44.5444C49.7249 44.5444 49.6668 44.602 49.6228 44.6724ZM53.9276 45.9527C53.8636 46.0234 53.8265 46.0962 53.8451 46.1148C53.8635 46.1332 53.9264 46.0754 53.9848 45.9863C54.1123 45.7917 54.0868 45.7767 53.9276 45.9527ZM10.1222 47.4624C10.1256 47.5444 10.4393 47.9181 10.4396 47.8404C10.4396 47.8052 10.3678 47.6927 10.28 47.5904C10.192 47.4882 10.1209 47.4306 10.1222 47.4624ZM47.2177 47.8468C47.1526 47.936 47.1115 48.0212 47.1262 48.0359C47.1409 48.0508 47.2166 47.9767 47.2944 47.8716C47.3721 47.7664 47.4134 47.6813 47.3859 47.6824C47.3584 47.6834 47.2827 47.7575 47.2177 47.8468ZM12.936 50.3311C12.936 50.3984 13.1288 50.5808 13.1633 50.5463C13.1795 50.5301 13.135 50.4647 13.0643 50.4007C12.9937 50.3368 12.936 50.3055 12.936 50.3311ZM41.992 52.2941C41.8857 52.381 41.875 52.4028 41.96 52.3588C42.1688 52.2509 42.2844 52.1623 42.216 52.1628C42.1808 52.1631 42.08 52.2221 41.992 52.2941ZM28.5766 52.3642C28.5588 52.3928 28.4884 52.4164 28.4201 52.4164C28.3518 52.4164 28.296 52.4452 28.296 52.4804C28.296 52.5156 28.2528 52.5444 28.2 52.5444C28.1472 52.5444 28.104 52.5674 28.104 52.5956C28.104 52.6236 27.9896 52.7172 27.8497 52.8036C27.7099 52.8898 27.5947 52.982 27.5937 53.0084C27.5928 53.0348 27.556 53.0564 27.512 53.0565C27.468 53.0565 27.3312 53.1429 27.208 53.2484C27.0848 53.3538 26.9544 53.4402 26.918 53.4402C26.8819 53.4404 26.8107 53.498 26.76 53.5684C26.7092 53.6388 26.6228 53.6964 26.568 53.6964C26.5131 53.6964 26.4267 53.754 26.376 53.8244C26.3252 53.8948 26.243 53.9524 26.1934 53.9524C26.1436 53.9524 26.0564 54.0029 25.9995 54.0648C25.9425 54.1266 25.8168 54.218 25.72 54.2676C25.6232 54.3173 25.544 54.382 25.544 54.4112C25.544 54.4404 25.5008 54.4644 25.448 54.4644C25.3952 54.4644 25.352 54.4932 25.352 54.5284C25.352 54.5636 25.3088 54.5924 25.256 54.5924C25.2032 54.5924 25.16 54.6212 25.16 54.6564C25.16 54.6916 25.1217 54.7204 25.0752 54.7204C25.0284 54.7204 24.9227 54.7924 24.84 54.8804C24.7572 54.9684 24.6435 55.0404 24.587 55.0404C24.5304 55.0404 24.4427 55.098 24.392 55.1684C24.3412 55.2388 24.2548 55.2964 24.2 55.2964C24.1451 55.2964 24.0587 55.354 24.008 55.4244C23.9572 55.4948 23.875 55.5524 23.8254 55.5524C23.7756 55.5524 23.6884 55.6029 23.6315 55.6648C23.5745 55.7266 23.4488 55.818 23.352 55.8676C23.2552 55.9173 23.176 55.982 23.176 56.0112C23.176 56.0404 23.1328 56.0644 23.08 56.0644C23.0272 56.0644 22.984 56.0932 22.984 56.1284C22.984 56.1636 22.9555 56.1924 22.9208 56.1924C22.8859 56.1924 22.7971 56.2428 22.7233 56.3044C22.6496 56.366 22.5124 56.4812 22.4185 56.5604C22.3248 56.6394 22.2184 56.7042 22.182 56.7044C22.1459 56.7044 22.0747 56.762 22.024 56.8324C21.9732 56.9028 21.8868 56.9604 21.832 56.9604C21.7771 56.9604 21.6907 57.018 21.64 57.0884C21.5892 57.1588 21.5028 57.2164 21.448 57.2164C21.3931 57.2164 21.3078 57.2724 21.2584 57.341C21.2091 57.4095 21.1489 57.4533 21.1246 57.4383C21.0576 57.3968 20.7486 57.684 20.6444 57.8847C20.5393 58.0876 20.5193 58.5604 20.616 58.5604C20.6512 58.5604 20.68 58.6056 20.68 58.661C20.68 58.7751 20.7992 58.9026 20.9334 58.9324C20.9832 58.9434 21.0723 59.0082 21.1315 59.0764C21.1905 59.1445 21.2729 59.2004 21.3144 59.2004C21.3558 59.2004 21.4595 59.2701 21.5448 59.3554C21.63 59.4407 21.7584 59.529 21.8299 59.5517C21.9014 59.5744 21.96 59.6164 21.96 59.6448C21.96 59.6735 22.0464 59.7327 22.152 59.7764C22.2576 59.82 22.344 59.8807 22.344 59.9109C22.344 59.9412 22.416 59.984 22.504 60.0061C22.592 60.0282 22.664 60.0719 22.664 60.1032C22.664 60.1348 22.7089 60.1604 22.7638 60.1604C22.8187 60.1604 22.8457 60.1892 22.824 60.2244C22.8022 60.2596 22.8374 60.2884 22.902 60.2884C22.9668 60.2884 23.0612 60.346 23.112 60.4164C23.1627 60.4868 23.2491 60.5444 23.304 60.5444C23.3588 60.5444 23.4452 60.602 23.496 60.6724C23.5467 60.7428 23.6179 60.8004 23.654 60.8005C23.6904 60.8005 23.8208 60.8869 23.944 60.9924C24.0672 61.0978 24.204 61.1842 24.248 61.1842C24.292 61.1844 24.328 61.2084 24.328 61.2375C24.328 61.2668 24.4072 61.3314 24.504 61.3812C24.6008 61.4308 24.7265 61.5221 24.7835 61.5839C24.8404 61.6458 24.9276 61.6964 24.9774 61.6964C25.027 61.6964 25.1092 61.754 25.16 61.8244C25.2107 61.8948 25.2891 61.9524 25.334 61.9524C25.3792 61.9524 25.416 61.9812 25.416 62.0164C25.416 62.0516 25.4592 62.0804 25.512 62.0804C25.5648 62.0804 25.608 62.1092 25.608 62.1444C25.608 62.1796 25.638 62.2084 25.6747 62.2084C25.7113 62.2084 25.8032 62.266 25.8787 62.3364C25.9542 62.4068 26.0539 62.4644 26.1 62.4644C26.1462 62.4644 26.184 62.4866 26.184 62.5138C26.184 62.541 26.292 62.6199 26.424 62.689C26.556 62.7581 26.7105 62.8653 26.7675 62.9274C26.8244 62.9896 26.9116 63.0404 26.9614 63.0404C27.011 63.0404 27.0932 63.098 27.144 63.1684C27.1947 63.2388 27.2811 63.2964 27.336 63.2964C27.3908 63.2964 27.4772 63.354 27.528 63.4244C27.5787 63.4948 27.6571 63.5524 27.702 63.5524C27.7472 63.5524 27.784 63.5764 27.784 63.6055C27.784 63.6348 27.8632 63.6996 27.96 63.7495C28.0568 63.7996 28.174 63.8764 28.2206 63.9204C28.358 64.0504 29.2707 64.0263 29.4289 63.8884C29.6758 63.6732 29.8462 60.2884 29.6102 60.2884C29.4638 60.2884 29.4616 56.2519 29.608 56.1055C29.7235 55.99 29.7536 53.1586 29.64 53.0884C29.6048 53.0666 29.576 52.9772 29.576 52.8896C29.576 52.7189 29.3187 52.4164 29.1736 52.4164C29.1251 52.4164 29.0636 52.3948 29.0374 52.3684C28.9718 52.3028 28.6166 52.2996 28.5766 52.3642ZM47.3678 53.7287C47.2852 53.8165 47.2326 53.8884 47.251 53.8884C47.3145 53.8884 47.5803 53.6314 47.5491 53.6002C47.532 53.5829 47.4502 53.6407 47.3678 53.7287ZM37.16 54.6564C37.1382 54.6916 37.1636 54.7204 37.2164 54.7204C37.2692 54.7204 37.3302 54.6916 37.352 54.6564C37.3737 54.6212 37.3483 54.5924 37.2955 54.5924C37.2427 54.5924 37.1817 54.6212 37.16 54.6564ZM15.1508 55.0136C15.0907 55.1701 15.1038 55.1856 15.208 55.0815C15.3168 54.9727 15.3307 54.9124 15.2468 54.9124C15.2153 54.9124 15.1721 54.958 15.1508 55.0136Z" fill="url(#paint1_linear_675_1576)"/>
<defs>
<linearGradient id="paint0_linear_675_1576" x1="0.329102" y1="10.0086" x2="58.1414" y2="12.4083" gradientUnits="userSpaceOnUse">
<stop stop-color="#FF7A00"/>
<stop offset="1" stop-color="#FFA800"/>
</linearGradient>
<linearGradient id="paint1_linear_675_1576" x1="4.05859" y1="7.09265" x2="54.5107" y2="8.70609" gradientUnits="userSpaceOnUse">
<stop stop-color="#FF7A00"/>
<stop offset="1" stop-color="#FFA800"/>
</linearGradient>
</defs>
</svg>
