<svg width="40" height="40" viewBox="0 0 40 40" fill="none" xmlns="http://www.w3.org/2000/svg">
<g clip-path="url(#clip0_675_1559)">
<path d="M18.0052 39.9169C14.8363 39.5903 11.7915 38.5102 9.12521 36.7669C6.88021 35.3044 6.37271 34.7019 6.37271 33.5019C6.37271 31.0894 9.02771 26.8619 13.5702 22.0444C16.1477 19.3069 19.7427 16.0994 20.1302 16.1869C20.8852 16.3569 26.9252 22.2444 29.1852 25.0144C32.7602 29.3969 34.4052 32.9869 33.5702 34.5869C32.9352 35.8019 28.9952 38.1794 26.1027 39.0919C23.7177 39.8444 20.5852 40.1644 18.0052 39.9169ZM3.34021 30.9919C1.47271 28.1319 0.530209 25.3169 0.0752088 21.2419C-0.0747912 19.8944 -0.0197912 19.1269 0.417709 16.3669C0.962709 12.9244 2.92271 8.9419 5.28021 6.4919C6.28271 5.4494 6.37271 5.4244 7.59521 5.8344C9.08271 6.3344 10.6702 7.4294 13.1277 9.6544L14.5627 10.9519L13.7802 11.9144C10.1402 16.3819 6.30021 22.7144 4.85021 26.6319C4.06271 28.7619 3.74521 30.8994 4.08521 31.7894C4.31271 32.3894 4.10271 32.1644 3.33521 30.9919H3.34021ZM36.0927 31.4794C36.2777 30.5794 36.0452 28.9294 35.4977 27.2619C34.3152 23.6544 30.3602 16.9419 26.7277 12.3794L25.5852 10.9419L26.8202 9.8069C28.4352 8.3244 29.5577 7.4369 30.7702 6.6819C31.7227 6.0894 33.0877 5.5619 33.6727 5.5619C34.0352 5.5619 35.3077 6.8819 36.3352 8.3219C37.97 10.6517 39.1125 13.2905 39.6927 16.0769C40.0752 17.8969 40.1077 21.7919 39.7527 23.6069C39.4195 25.2325 38.9167 26.8187 38.2527 28.3394C37.8052 29.3219 36.6927 31.2294 36.2027 31.8494C35.9527 32.1694 35.9527 32.1669 36.0952 31.4794H36.0927ZM18.3377 4.8794C16.6627 4.0294 14.0777 3.1169 12.6477 2.8719C12.0198 2.77838 11.3847 2.7424 10.7502 2.7644C9.57271 2.8244 9.62521 2.7644 11.5152 1.8694C12.9968 1.15787 14.5626 0.637048 16.1752 0.3194C18.1752 -0.1031 21.9402 -0.1056 23.9102 0.3069C26.0352 0.7569 28.5427 1.6869 29.9552 2.5569L30.3752 2.8144L29.4127 2.7644C27.4977 2.6694 24.7127 3.4394 21.7177 4.8969C20.8152 5.3369 20.0277 5.6869 19.9702 5.6769C19.4174 5.42732 18.8722 5.16137 18.3352 4.8794H18.3377Z" fill="black"/>
</g>
<defs>
<clipPath id="clip0_675_1559">
<rect width="40" height="40" fill="white"/>
</clipPath>
</defs>
</svg>
