<svg width="40" height="40" viewBox="0 0 40 40" fill="none" xmlns="http://www.w3.org/2000/svg">
<g clip-path="url(#clip0_675_1565)">
<path d="M5.89883 0C3.60758 0 2.76758 0.84625 2.76758 3.13125V30.735C2.76758 30.9962 2.78133 31.2362 2.80133 31.4587C2.86008 31.96 2.86008 32.4487 3.32758 32.995C3.37258 33.06 3.84258 33.405 3.84258 33.405C4.09633 33.5288 4.27133 33.62 4.55758 33.7363L18.4513 39.5563C19.1676 39.8825 19.4751 40.02 19.9951 40H20.0013C20.5276 40.02 20.8351 39.8838 21.5513 39.5563L35.4376 33.7363C35.7313 33.62 35.8988 33.5275 36.1588 33.405C36.1588 33.405 36.6288 33.0462 36.6738 32.995C37.1426 32.4487 37.1426 31.96 37.2001 31.4587C37.2201 31.2375 37.2338 30.9975 37.2338 30.7425V3.1325C37.2338 0.8475 36.3876 0.00125 34.1026 0.00125L5.89883 0ZM28.1588 5.18125H29.2901C31.1788 5.18125 32.1038 6.1 32.1038 8.015V11.1462H29.8126V8.1375C29.8126 7.52625 29.5326 7.24625 28.9388 7.24625H28.5488C27.9376 7.24625 27.6576 7.52625 27.6576 8.1375V17.8237C27.6576 18.435 27.9376 18.715 28.5488 18.715H28.9851C29.5701 18.715 29.8501 18.435 29.8501 17.8237V14.36H32.1413V17.935C32.1413 19.8412 31.2051 20.78 29.3101 20.78H28.1588C26.2576 20.78 25.3251 19.835 25.3251 17.935V8.03125C25.3251 6.125 26.2563 5.18 28.1588 5.18V5.18125ZM7.84508 5.31375H13.0338V7.4425H10.1751V11.7775H12.9301V13.9013H10.1751V18.5225H13.0738V20.6525H7.84508V5.31375ZM14.2051 5.31375H17.8651C19.7588 5.31375 20.6963 6.2575 20.6963 8.16375V12.24C20.6963 14.1462 19.7576 15.085 17.8651 15.085H16.5438V20.6512H14.2051V5.31375ZM21.7513 5.31375H24.0813V20.6525H21.7513V5.31375ZM16.5363 7.37625V13.0262H17.5001C18.0863 13.0262 18.3663 12.7413 18.3663 12.1275V8.27375C18.3663 7.6625 18.0863 7.375 17.5001 7.375L16.5363 7.37625ZM10.1101 24.2962H10.4551L10.5338 24.31H10.6588L10.7238 24.33H10.7888L10.8476 24.3488L10.9126 24.3625L10.9638 24.3762L11.0801 24.4025L11.1463 24.4213L11.1913 24.435L11.2426 24.455L11.3076 24.475L11.3526 24.4937L11.4188 24.52L11.4776 24.5462L11.5288 24.5775L11.5876 24.6038L11.6326 24.635L11.6988 24.6688L11.7501 24.7L11.8013 24.7262L11.8526 24.765L11.9063 24.7988L11.9513 24.8375L12.1076 24.9562L12.0676 25.0075L12.0226 25.0525L11.9826 25.0988L11.9376 25.15L11.9063 25.195L11.8663 25.2413L11.8213 25.2863L11.7813 25.3375L11.7501 25.3825L11.7038 25.4363L11.6651 25.4813L11.6201 25.5325L11.5801 25.5787L11.5488 25.63L11.5026 25.675L11.4638 25.7288L11.4188 25.7738L11.3788 25.8188L11.3338 25.7875L11.2826 25.7413L11.2288 25.71L11.1326 25.645L11.0738 25.6112L11.0201 25.58L10.9613 25.5462L10.9163 25.52L10.8651 25.495L10.7601 25.455L10.6951 25.4437L10.6438 25.43L10.5851 25.4163L10.5188 25.4025L10.4538 25.3962H10.3888L10.3126 25.3825H10.1876L10.1226 25.3888H10.0576L9.99258 25.4087L9.94133 25.4225L9.88258 25.4425L9.82383 25.4538L9.77008 25.48L9.70508 25.5063L9.61508 25.5713L9.56133 25.6025L9.51633 25.6425L9.47133 25.6737L9.42508 25.7137L9.39383 25.7588L9.34008 25.8037L9.27508 25.895L9.24383 25.9463L9.21758 26.005L9.18633 26.0513L9.15258 26.11L9.13258 26.1687L9.10758 26.22L9.08758 26.285L9.08133 26.35L9.06258 26.41L9.04883 26.475V26.54L9.04258 26.605V26.755L9.04883 26.82V26.8713L9.05508 26.9362L9.06633 26.995L9.08633 27.0462L9.09258 27.1125L9.11258 27.1638L9.13133 27.2087L9.15758 27.2738L9.19133 27.3388L9.21633 27.385L9.28133 27.4887L9.32133 27.54L9.35258 27.5863L9.40633 27.625L9.43758 27.67L9.48258 27.71L9.58758 27.7888L9.63258 27.8137L9.68383 27.8475L9.74383 27.8737L9.80883 27.8988L9.85383 27.925L9.98383 27.9638L10.0426 27.97L10.1076 27.99L10.1726 27.9963H10.4526L10.5313 27.99H10.5901L10.6563 27.9638L10.7213 27.9575L10.7863 27.9387L10.8376 27.925L10.8963 27.8988L10.9476 27.8737L11.0063 27.8475L11.0463 27.8213L11.0976 27.79V27.21H10.1788V26.28H12.2551V28.3638L12.2101 28.395L12.1651 28.4338L12.1188 28.4675L12.0676 28.5063L12.0163 28.5325L11.9713 28.5725L11.8663 28.6375L11.8013 28.6687L11.6976 28.7337L11.6313 28.76L11.5801 28.785L11.5213 28.8112L11.3913 28.8625L11.3401 28.8888L11.2213 28.9275L11.1626 28.9412L11.1038 28.9613L11.0388 28.9812L10.9876 28.9925L10.7926 29.0325L10.7326 29.0388L10.6026 29.0525L10.5313 29.0588L10.4663 29.0637L10.3951 29.07H10.0701L10.0051 29.0588H9.94008L9.87508 29.045H9.81633L9.75133 29.025L9.56133 28.9862L9.51008 28.9663L9.45133 28.96L9.38633 28.9338L9.26758 28.895L9.15133 28.8438L9.08633 28.8175L9.04133 28.7913L8.97633 28.7663L8.93008 28.7263L8.86508 28.7013L8.82633 28.6675L8.77508 28.6362L8.67008 28.5575L8.61883 28.5238L8.57883 28.485L8.52758 28.445L8.44258 28.3612L8.39758 28.3212L8.35883 28.2763L8.31258 28.23L8.28133 28.1787L8.24133 28.14L8.21008 28.0863L8.17008 28.035L8.13883 27.99L8.10508 27.9387L8.07383 27.8787L8.04758 27.8275L8.02133 27.7687L7.99633 27.7175L7.94508 27.5988L7.92508 27.5537L7.89883 27.495L7.88508 27.4362L7.87383 27.385L7.86008 27.32L7.84008 27.26L7.82633 27.195L7.82008 27.1437L7.80883 27.0788L7.79508 26.9625L7.78133 26.8325V26.4875L7.79508 26.4212V26.3562L7.81508 26.2913V26.2263L7.83383 26.1675L7.85383 26.1025L7.88008 25.9862L7.89883 25.9212L7.91883 25.8625L7.99758 25.6862L8.02258 25.635L8.04883 25.5763L8.08258 25.5163L8.10758 25.465L8.14133 25.42L8.20633 25.315L8.24508 25.2638L8.28508 25.2188L8.31633 25.1675L8.40133 25.0825L8.44008 25.0362L8.48633 24.9912L8.52508 24.9463L8.57883 24.9062L8.66883 24.8275L8.72008 24.7887L8.77383 24.755L8.81883 24.7163L8.87008 24.6825L8.92383 24.6575L8.98258 24.6237L9.04758 24.5925L9.09258 24.5588L9.15758 24.5338L9.21633 24.5075L9.27508 24.4762L9.32883 24.4625L9.39383 24.4425L9.44508 24.4163L9.50383 24.405L9.56258 24.385L9.62758 24.3713L9.68133 24.3513L9.74633 24.3375H9.81133L9.87008 24.3188H9.93508L10.0001 24.305H10.0588L10.1101 24.2962ZM30.0913 24.31H30.4363L30.5151 24.3237H30.6388L30.7038 24.3425H30.7751L30.8401 24.3625L30.9563 24.3888L31.0213 24.4025L31.0801 24.4137L31.1463 24.4338L31.2051 24.4538L31.2563 24.4675L31.3151 24.4863L31.3801 24.5062L31.4313 24.5325L31.4963 24.5575L31.5563 24.5837L31.6151 24.6175L31.6601 24.6425L31.7188 24.6762L31.7776 24.7013L31.8313 24.735L31.8901 24.7738L31.9351 24.8075L32.0401 24.8862L32.0913 24.9175L32.0513 24.9688L32.0201 25.0225L31.9813 25.0675L31.9413 25.1187L31.9101 25.1775L31.8763 25.2312L31.8376 25.2763L31.7976 25.3275L31.7663 25.3813L31.7263 25.4325L31.6951 25.4775L31.6551 25.5288L31.6238 25.5888L31.5838 25.64L31.5451 25.685L31.5051 25.7363L31.4738 25.79L31.4226 25.75L31.3626 25.7188L31.3176 25.685L31.2663 25.6538L31.2076 25.6275L31.1538 25.5938L31.0951 25.5688L31.0501 25.5425L30.9851 25.5175L30.9388 25.4912L30.8876 25.4713L30.7713 25.4325L30.6413 25.3925L30.4463 25.3538L30.3813 25.3475L30.2626 25.3337H30.1263L30.0551 25.3475L29.9901 25.3612L29.9313 25.375L29.8801 25.4L29.8338 25.4263L29.7826 25.4713L29.7438 25.53L29.7176 25.59V25.745L29.7513 25.8162L29.7763 25.8562L29.8163 25.895L29.8813 25.9287L29.9326 25.96L29.9913 25.9862L30.0563 26.0112L30.1413 26.0312L30.1863 26.0513L30.2401 26.065L30.3051 26.0788L30.3563 26.0975L30.4151 26.1112L30.4863 26.1313L30.5513 26.1512L30.6226 26.17L30.6938 26.1838L30.7526 26.2037L30.8238 26.2225L30.8888 26.2362L30.9476 26.25L31.1438 26.3088L31.1951 26.3288L31.2601 26.3488L31.3188 26.3738L31.3838 26.4075L31.5138 26.4587L31.5726 26.4925L31.6776 26.5575L31.7738 26.6287L31.8338 26.6675L31.8788 26.7125L31.9238 26.7663L31.9701 26.8112L32.0013 26.8563L32.0476 26.9213L32.0788 26.9675L32.1051 27.0325L32.1301 27.0712L32.1501 27.1362L32.1701 27.19L32.1838 27.2487L32.2088 27.3787L32.2151 27.4438L32.2213 27.5025V27.6588L32.2151 27.73L32.2013 27.86L32.1876 27.925L32.1688 27.9837L32.1551 28.0487L32.1351 28.1137L32.1163 28.1725L32.0901 28.2188L32.0638 28.2775L32.0326 28.3288L31.9926 28.375L31.9276 28.4788L31.8488 28.57L31.8038 28.6012L31.7526 28.6475L31.7126 28.6862L31.6613 28.725L31.6101 28.7512L31.5588 28.7913L31.4988 28.8225L31.3826 28.8812L31.3176 28.9075L31.2588 28.9325L31.1938 28.9525L31.1351 28.9725L31.0813 28.9862L30.9513 29.0112L30.9063 29.025L30.8413 29.0388H30.7763L30.7176 29.0525H30.6526L30.5876 29.0662H30.1238L29.9288 29.0462L29.8638 29.0325L29.8051 29.0263L29.6751 29.0013L29.6038 28.9875L29.5451 28.9738L29.4801 28.9538L29.4138 28.94L29.3551 28.9212L29.2901 28.9013L29.2251 28.875L29.1738 28.8562L29.1088 28.8363L29.0438 28.81L28.9976 28.785L28.9326 28.765L28.8813 28.7313L28.8163 28.7062L28.7651 28.6725L28.7188 28.6413L28.6538 28.6075L28.6088 28.5825L28.5576 28.5425L28.5063 28.5112L28.4526 28.4713L28.4076 28.4325L28.3563 28.3925L28.3101 28.3612L28.2588 28.315L28.2988 28.2638L28.3438 28.2188L28.3826 28.1725L28.4288 28.1213L28.4601 28.0763L28.5001 28.025L28.5451 27.9787L28.5838 27.9338L28.6301 27.8825L28.6613 27.8362L28.7076 27.7913L28.7463 27.74L28.7863 27.6938L28.8313 27.6425L28.8626 27.5975L28.9088 27.5513L28.9538 27.5L28.9988 27.54L29.0588 27.5788L29.1038 27.6175L29.1688 27.6513L29.2138 27.685L29.2726 27.7238L29.3263 27.7575L29.3851 27.7825L29.4301 27.8162L29.4888 27.835L29.5538 27.8612L29.6076 27.8875L29.6663 27.9062L29.7176 27.9325L29.7826 27.9525L29.8413 27.9713L29.9063 27.9912L29.9713 27.9975L30.0313 28.0175L30.0963 28.0238H30.1676L30.2263 28.0425H30.5776L30.6363 28.0312L30.7013 28.0175L30.7463 28.0112L30.8001 27.9912L30.8451 27.9662L30.9038 27.9263L30.9376 27.8813L30.9626 27.83L30.9826 27.77V27.62L30.9563 27.5612L30.9251 27.51L30.8851 27.4712L30.8263 27.4312L30.7813 27.4125L30.7226 27.3862L30.6576 27.36L30.5863 27.3288L30.5401 27.315L30.4888 27.3013L30.4238 27.2812L30.3788 27.27L30.3138 27.25L30.2488 27.2437L30.1826 27.2175L30.1176 27.2112L30.0463 27.1925L29.9876 27.1787L29.9226 27.1587L29.8576 27.145L29.7926 27.1263L29.7338 27.1062L29.6688 27.0925L29.6176 27.0725L29.4988 27.0338L29.4338 27.0075L29.3688 26.9888L29.2388 26.935L29.1801 26.9038L29.1151 26.87L29.0701 26.8388L29.0101 26.805L28.9651 26.7738L28.9063 26.74L28.8213 26.655L28.7763 26.6162L28.6976 26.525L28.6638 26.48L28.6388 26.435L28.5988 26.375L28.5801 26.33L28.5201 26.1737L28.5088 26.1087L28.4951 26.05V25.9912L28.4813 25.9262V25.66L28.4951 25.53L28.5088 25.4762L28.5201 25.4175L28.5401 25.3662L28.5538 25.3012L28.5801 25.2563L28.6051 25.19L28.6313 25.1388L28.6563 25.0737L28.6901 25.0288L28.7351 24.9775L28.7688 24.9237L28.8201 24.8787L28.8588 24.8338L28.8988 24.78L28.9576 24.735L28.9976 24.7013L29.0488 24.6625L29.1526 24.5975L29.2113 24.5637L29.3301 24.505L29.3813 24.4863L29.4401 24.4662L29.5051 24.44L29.5701 24.4213L29.6163 24.4075L29.6751 24.3937L29.7263 24.38L29.7851 24.3662L29.8501 24.3525L29.9801 24.3412L30.0401 24.335L30.0913 24.31ZM14.6938 24.355H15.8726L15.9263 24.4738L15.9513 24.525L15.9713 24.59L15.9976 24.6488L16.0163 24.7L16.0501 24.7587L16.0888 24.8775L16.1226 24.9362L16.1738 25.0525L16.1876 25.1038L16.2913 25.3387L16.3113 25.3975L16.3376 25.4513L16.3688 25.51L16.3826 25.5688L16.4163 25.6338L16.4276 25.6925L16.4876 25.8088L16.5126 25.855L16.5388 25.92L16.5588 25.985L16.5776 26.03L16.6113 26.095L16.6313 26.1488L16.6563 26.2138L16.6763 26.2588L16.7026 26.3237L16.7613 26.44L16.7801 26.4987L16.7938 26.5588L16.8201 26.6175L16.8513 26.6687L16.8776 26.7337L16.9038 26.7925L16.9226 26.8438L16.9763 26.9625L16.9951 27.0213L17.0213 27.08L17.0413 27.1388L17.0663 27.19L17.1001 27.25L17.1251 27.3088L17.1513 27.36L17.1651 27.425L17.2163 27.5413L17.2426 27.595L17.2613 27.6537L17.3151 27.77L17.3463 27.835L17.3601 27.8862L17.3938 27.9525L17.4051 27.9975L17.4313 28.0625L17.4651 28.1275L17.4901 28.1725L17.5101 28.2375L17.5363 28.2912L17.5551 28.3562L17.5888 28.4013L17.6276 28.5312L17.6538 28.5775L17.6788 28.6425L17.7126 28.6938L17.7388 28.7588L17.7501 28.8175L17.7701 28.8687L17.7963 28.9275L17.8276 28.9812H16.5263L16.4951 28.9275L16.4751 28.8687L16.4488 28.81L16.4238 28.745L16.4101 28.6938L16.3563 28.5775L16.3376 28.5238L16.2863 28.4075L16.2663 28.3562L16.2401 28.2912L16.2013 28.1725L16.1751 28.1213H14.3651L14.3401 28.18L14.3201 28.2337L14.2938 28.2987L14.2688 28.3575L14.2551 28.4087L14.2288 28.4737L14.2038 28.525L14.1838 28.5838L14.1576 28.6375L14.1326 28.7025L14.1126 28.7475L14.0863 28.8125L14.0676 28.8775L14.0413 28.9237L14.0213 28.9888H12.7326L12.7513 28.9287L12.8051 28.8125L12.8238 28.7475L12.8438 28.6963L12.8776 28.6375L12.9026 28.5788L12.9288 28.525L12.9426 28.4663L12.9676 28.4013L13.0013 28.35L13.0263 28.2912L13.0663 28.1725L13.1251 28.0562L13.1451 27.9975L13.1701 27.9463L13.1901 27.8862L13.2688 27.7113L13.2951 27.6463L13.3138 27.595L13.3338 27.5362L13.3676 27.4825L13.3926 27.4175L13.4126 27.3587L13.4326 27.3075L13.4576 27.2425L13.4913 27.1963L13.5113 27.1313L13.5363 27.08L13.5563 27.0213L13.5826 26.9563L13.6138 26.905L13.6338 26.84L13.6588 26.7937L13.6788 26.7287L13.7051 26.6637L13.7301 26.6187L13.7563 26.5537L13.7763 26.5L13.8013 26.435L13.8213 26.39L13.8551 26.325L13.8801 26.26L13.9063 26.2087L13.9201 26.15L13.9451 26.09L13.9788 26.0312L14.0038 25.98L14.0176 25.915L14.0438 25.8562L14.0701 25.8025L14.1213 25.6862L14.1401 25.635L14.1938 25.505L14.2188 25.4588L14.2451 25.3938L14.2651 25.3425L14.2838 25.2775L14.3101 25.2188L14.3438 25.1675L14.3688 25.1025L14.3888 25.0562L14.4088 24.9912L14.4338 24.94L14.4676 24.8813L14.4876 24.8162L14.5063 24.7625L14.5326 24.6975L14.5576 24.6525L14.5913 24.5875L14.6113 24.5225L14.6301 24.4775L14.6563 24.4125L14.6938 24.355ZM18.3538 24.3888H19.6426L19.6826 24.44L19.7476 24.545L19.7788 24.6038L19.8126 24.6488L19.8438 24.7075L19.8776 24.7587L19.9088 24.8187L19.9426 24.87L19.9738 24.915L20.0076 24.9738L20.0388 25.0275L20.0851 25.0788L20.1038 25.13L20.1438 25.1887L20.1751 25.2425L20.2151 25.2875L20.2413 25.3463L20.2726 25.3975L20.3126 25.4513L20.3313 25.5025L20.3776 25.5612L20.4738 25.7175L20.5001 25.7687L20.5388 25.82L20.5726 25.8713L20.6038 25.9313L20.7026 26.0863L20.7338 26.1462L20.7676 26.1975L20.8063 26.1462L20.8326 26.08L20.8713 26.035L20.9051 25.9762L20.9363 25.9313L20.9626 25.8663L21.0076 25.82L21.0413 25.7612L21.0676 25.7162L21.0988 25.6625L21.1388 25.6038L21.1701 25.5588L21.2038 25.4938L21.2351 25.4487L21.2751 25.3888L21.3001 25.3438L21.3338 25.2787L21.3651 25.24L21.3988 25.1863L21.4376 25.1213L21.4713 25.0763L21.4963 25.0175L21.5363 24.9712L21.5676 24.9062L21.6013 24.8675L21.6401 24.8162L21.6738 24.7513L21.7051 24.705L21.7388 24.6462L21.7701 24.6012L21.8038 24.5362L21.8426 24.49L21.8688 24.4312L21.9026 24.3863H23.2113V29.035H21.9863V26.3L21.9551 26.3462L21.9151 26.4112L21.8838 26.45L21.8438 26.5013L21.8188 26.5662L21.7788 26.6125L21.7476 26.6575L21.7076 26.7225L21.6426 26.8138L21.6038 26.865L21.5701 26.93L21.5313 26.9762L21.4976 27.0213L21.4726 27.0863L21.4326 27.1313L21.4013 27.1775L21.3613 27.2425L21.3301 27.2875L21.2901 27.3388L21.2588 27.3975L21.2326 27.4438L21.1938 27.495L21.1601 27.5537L21.1213 27.5988L21.0813 27.6525L21.0563 27.7038L21.0226 27.7625L20.9838 27.8088L20.9438 27.86L20.9188 27.925L20.8726 27.9638L20.8476 28.015L20.8076 28.0812L20.7763 28.1262H20.7501L20.7113 28.0675L20.6776 28.0137L20.6463 27.955L20.6126 27.91L20.5738 27.8512L20.5401 27.8L20.5013 27.7463L20.4676 27.695L20.4363 27.6362L20.4026 27.5912L20.3576 27.5312L20.3313 27.48L20.2926 27.4212L20.2588 27.3762L20.2276 27.3175L20.1876 27.2638L20.1563 27.1988L20.1163 27.1537L20.0851 27.095L20.0513 27.0412L20.0201 26.9825L19.9801 26.9375L19.9488 26.8787L19.9088 26.8275L19.8838 26.7738L19.8438 26.7225L19.8126 26.6637L19.7726 26.6187L19.7413 26.5588L19.7013 26.5075L19.6763 26.4487L19.6301 26.4037L19.6051 26.3438L19.5651 26.2925V29.0337H18.3613V24.43L18.3538 24.3888ZM24.1338 24.3888H27.8001V25.4375H25.3513V26.1862H27.5513V27.1762H25.3513V27.97H27.8313V29.025H24.1401V24.4287L24.1338 24.3888ZM15.2663 25.8137L15.2463 25.8725L15.2276 25.9262L15.2013 25.9912L15.1751 26.05L15.1563 26.1087L15.1026 26.225L15.0776 26.29L15.0576 26.3438L15.0376 26.4088L15.0126 26.4538L14.9926 26.5187L14.9663 26.5837L14.9413 26.63L14.9213 26.695L14.8963 26.7463L14.8763 26.8112L14.8426 26.87L14.8288 26.9213L14.8038 26.9863L14.7776 27.0462L14.7576 27.0975L14.7326 27.1625H15.8063L15.7813 27.0975L15.7613 27.0387L15.7101 26.92L15.6901 26.8612L15.6638 26.81L15.6451 26.745L15.6188 26.6863L15.5988 26.6275L15.5738 26.5738L15.5538 26.515L15.5276 26.45L15.5088 26.3988L15.4551 26.2825L15.4438 26.2225L15.4176 26.1637L15.3913 26.0987L15.3726 26.0538L15.3188 25.9237L15.3001 25.865L15.2663 25.8137ZM13.3538 34.5187H26.7051L19.8901 36.765L13.3538 34.5187Z" fill="black"/>
</g>
<defs>
<clipPath id="clip0_675_1565">
<rect width="40" height="40" fill="white"/>
</clipPath>
</defs>
</svg>
