<svg width="19" height="24" viewBox="0 0 19 24" fill="none" xmlns="http://www.w3.org/2000/svg">
<path d="M6.34739 0.434021C6.56987 0.239251 6.83801 0.103923 7.12685 0.0406297C7.41569 -0.0226633 7.71585 -0.0118645 7.99939 0.0720213C8.21739 0.144021 8.40539 0.275021 8.60839 0.405021C8.76839 0.506021 8.95639 0.550021 9.10139 0.666021C9.17339 0.724021 9.11539 0.826021 9.11539 0.898021C9.30439 1.34802 9.40539 1.84002 9.24539 2.31802C9.11539 2.47802 8.88339 2.52102 8.69539 2.59402C8.66539 2.79702 8.73839 2.98402 8.76739 3.18802C8.72439 3.21702 8.69539 3.24602 8.65139 3.27502C8.92739 3.26002 9.20239 3.20202 9.47839 3.14502C9.57939 3.04302 9.73839 3.10102 9.86839 3.08602C9.88339 2.88302 9.95639 2.69502 9.95639 2.49202C9.99647 2.48928 10.0357 2.47946 10.0724 2.46302C10.0864 2.60802 10.0724 2.75302 10.1154 2.89802C10.1884 2.95602 10.3044 2.92702 10.3914 2.94102C10.3914 2.99902 10.3914 3.05702 10.4054 3.11502C12.0864 3.10102 13.7824 3.11502 15.4634 3.11502V3.36202H15.6234V2.41902H15.8114C15.8114 2.67902 15.7974 2.92602 15.8114 3.18702C15.8313 3.20534 15.8573 3.21567 15.8844 3.21602C15.8844 3.24502 15.8984 3.30302 15.8984 3.33202C15.9564 3.27402 16.0284 3.23002 16.1164 3.25902C16.1304 3.30302 16.1454 3.34602 16.1594 3.40402C16.1014 3.46202 16.0724 3.53402 16.1014 3.62202C16.5654 3.63602 17.0294 3.62202 17.5074 3.62202C17.5514 3.56402 17.6234 3.53502 17.6964 3.50602C17.7275 3.52201 17.7567 3.54147 17.7834 3.56402H18.4634C18.4897 3.67303 18.4948 3.78609 18.4784 3.89702H17.7824C17.7565 3.92485 17.7273 3.94937 17.6954 3.97002C17.6234 3.92602 17.5654 3.89702 17.4934 3.85402H16.2324C15.9854 3.92602 15.7244 3.91202 15.4784 3.86802V4.14302H13.4044C13.3232 4.21489 13.222 4.26025 13.1144 4.27302C13.1584 4.49102 12.9124 4.54902 12.8244 4.70902C12.7686 4.79086 12.6874 4.85202 12.5934 4.88302C12.5204 5.33202 12.6804 5.75302 12.7964 6.17302C12.6664 6.20202 12.5204 6.24502 12.3904 6.27402C12.3174 6.56402 12.2454 6.86802 12.1874 7.15802C12.1547 7.28786 12.0917 7.40811 12.0036 7.50892C11.9154 7.60973 11.8047 7.68824 11.6804 7.73802C11.5064 7.94102 11.2744 8.14402 10.9984 8.15802C10.8974 8.18802 10.8244 8.11502 10.7524 8.05702C10.3904 8.08602 10.0564 7.91202 9.73739 7.76702C9.39039 7.60702 9.07139 7.40402 8.73739 7.21702C8.76739 7.41902 8.66539 7.59302 8.59239 7.76702C8.75239 7.83902 8.96939 7.89702 9.05639 8.07102C9.11439 8.20102 9.17239 8.34702 9.17239 8.50602C9.15839 9.02802 9.10039 9.55002 9.07139 10.071C9.08539 10.448 8.89739 10.825 8.63639 11.101C8.46239 11.086 8.31739 11.013 8.15839 10.941C8.10039 11.071 7.96939 11.201 8.04239 11.361C8.10039 11.55 8.10039 11.753 8.18739 11.927C8.68446 12.4423 9.09538 13.0342 9.40439 13.68C9.70839 14.304 9.94039 14.956 10.1874 15.608C10.2304 15.608 10.3174 15.593 10.3614 15.593C10.4194 15.782 10.3614 15.999 10.4774 16.173C10.5784 16.333 10.5494 16.521 10.5494 16.709C10.5204 17.144 10.4914 17.579 10.4484 18.014C10.4184 18.318 10.3464 18.623 10.3034 18.927C10.3174 19.159 10.4194 19.391 10.4044 19.623C10.3904 19.84 10.3904 20.072 10.2164 20.231C10.2304 20.724 10.1004 21.217 10.2744 21.695C10.5064 22.015 10.7674 22.318 11.0424 22.594C11.3464 22.739 11.7094 22.768 11.9704 23.029C12.0704 23.189 12.0134 23.376 11.9844 23.55C11.3641 23.637 10.7347 23.637 10.1144 23.55C9.86839 23.492 9.63639 23.391 9.39039 23.362C9.05639 23.376 8.66539 23.507 8.36039 23.275C8.33239 22.884 8.47739 22.507 8.54939 22.13C8.57839 22 8.70939 21.913 8.69439 21.782C8.66439 21.332 8.63639 20.869 8.60739 20.42C8.54939 20.39 8.44739 20.362 8.46239 20.275C8.46239 20.057 8.39039 19.84 8.33239 19.637C8.23535 19.0817 8.18186 18.5197 8.17239 17.956C8.15839 17.796 8.25939 17.68 8.37539 17.579C8.40539 17.333 8.43339 17.072 8.44839 16.825C8.40439 16.695 8.30339 16.593 8.24539 16.477C7.98439 16.507 7.60739 16.564 7.44839 16.289C7.07139 15.724 6.67939 15.144 6.30339 14.579C6.14339 14.564 5.95539 14.579 5.81039 14.477C5.65039 14.303 5.54939 14.072 5.44739 13.854C5.40439 14.028 5.37539 14.216 5.27339 14.361C5.18639 14.506 5.04239 14.608 4.94039 14.738C4.83939 14.97 4.75239 15.202 4.66539 15.434C4.56339 15.724 4.41839 16.014 4.38939 16.333C4.37539 16.492 4.34639 16.637 4.28839 16.782C4.21539 16.898 4.08539 16.942 3.96939 16.999C3.88239 17.188 3.82439 17.376 3.69439 17.536C3.60739 17.637 3.46239 17.666 3.40439 17.796C3.34639 17.97 3.25939 18.13 3.18639 18.289C3.15739 18.463 3.27339 18.652 3.21639 18.825C3.11439 19.26 2.89639 19.666 2.69439 20.057C2.59239 20.347 2.52039 20.652 2.37439 20.927C2.31739 21.043 2.17239 21.072 2.05639 21.087C1.92639 21.405 1.78039 21.71 1.69439 22.043C1.65544 22.3651 1.6454 22.6901 1.66439 23.014C1.66439 23.159 1.75239 23.275 1.81039 23.405C1.86739 23.579 1.82439 23.753 1.79539 23.927C1.23039 24 0.650389 24.057 0.0993894 23.884C0.0413895 23.84 0.0563894 23.768 0.0413894 23.71C-0.00161064 23.449 -0.0306105 23.174 0.0563895 22.927C0.244389 22.246 0.404389 21.565 0.592389 20.884C0.520389 20.811 0.418389 20.754 0.418389 20.637C0.404389 20.449 0.418389 20.246 0.462389 20.057C0.549389 19.738 0.780389 19.492 0.896389 19.187C0.940389 19.057 0.92639 18.927 0.94039 18.797C0.94039 18.492 1.11439 18.246 1.24439 17.985C1.37439 17.767 1.47639 17.535 1.65039 17.347C1.76639 17.246 1.76639 17.087 1.85339 16.956C1.94039 16.796 2.08539 16.666 2.08539 16.477C2.11439 16.246 2.02739 16.014 2.05539 15.782C2.11439 15.101 2.24539 14.434 2.36039 13.752C2.30239 13.68 2.21539 13.608 2.18639 13.506C2.20139 13.434 2.21639 13.376 2.23039 13.303L2.10039 13.086C2.15739 12.999 2.21539 12.898 2.27339 12.811C2.21539 12.767 2.14339 12.709 2.08539 12.666C2.15739 12.448 2.12839 12.129 2.38939 12.028C2.41939 12.042 2.49139 12.057 2.51939 12.071C2.47639 11.695 2.47639 11.303 2.43339 10.926C2.33698 10.5228 2.31227 10.1058 2.36039 9.69402C2.50539 9.47702 2.78039 9.39002 3.02739 9.37602C2.70839 9.30302 2.38939 9.27402 2.08539 9.17302C2.07039 8.91202 2.11439 8.65102 2.15739 8.39002C2.28739 7.88302 2.23039 7.36102 2.30239 6.84002C2.37539 6.69402 2.56339 6.66502 2.72239 6.69402C2.91139 6.72402 3.09939 6.66502 3.28839 6.60702C3.28839 6.53502 3.30239 6.44702 3.28839 6.37502C3.17239 5.86802 3.20139 5.34602 3.28839 4.85402C3.40439 4.21602 3.66539 3.59302 4.14339 3.14402C4.46239 2.83902 4.92639 2.69402 5.36039 2.70902C5.50539 2.70902 5.59239 2.85402 5.70839 2.94102C5.76639 2.88302 5.82439 2.82502 5.86839 2.76702C5.79539 2.52002 5.67939 2.25902 5.69439 1.99802C5.72339 1.41802 5.91139 0.824021 6.34639 0.433021L6.34739 0.434021ZM10.8684 4.53502C10.8974 4.56402 10.8974 4.56402 10.8684 4.53502V4.53502ZM11.0714 4.56402C11.0854 4.66502 11.1144 4.76702 11.0564 4.85402C10.9844 4.88302 10.8964 4.88302 10.8244 4.92602C11.0274 4.92602 11.2304 4.94102 11.4344 4.92602C11.5934 4.88302 11.5344 4.68002 11.5344 4.56402C11.4344 4.44802 11.2164 4.52002 11.0714 4.56402ZM10.5644 5.17302C10.7094 5.33202 10.7814 5.57802 10.9114 5.73802C11.1004 5.49102 11.2454 5.23002 11.4624 5.01302C11.2024 4.99802 10.9404 5.02802 10.6804 4.99802C10.6364 5.05602 10.6074 5.11402 10.5644 5.17202V5.17302Z" fill="white"/>
</svg>
