<svg width="198" height="28" viewBox="0 0 198 28" fill="none" xmlns="http://www.w3.org/2000/svg">
<path d="M28.0368 0.168093C23.6333 0.936514 19.9162 3.70493 17.9626 7.64177C16.3047 10.9891 16.1146 15.0944 17.4557 18.6312C18.7757 22.1154 21.6797 25.0733 25.1856 26.4733C28.4698 27.7891 32.1341 27.7997 35.376 26.4944C38.3962 25.2733 40.92 23.0312 42.4407 20.1997C44.1725 16.9681 44.5315 12.9786 43.3911 9.47335C41.7965 4.59967 37.6253 1.02072 32.5354 0.168093C31.321 -0.031908 29.1984 -0.031908 28.0368 0.168093ZM29.3568 2.99967C29.3568 4.04177 29.3779 4.12598 29.6208 4.36809C29.8743 4.63125 30.3917 4.71546 30.7824 4.56809C31.1203 4.44177 31.2576 3.94704 31.2576 2.90493V1.89441L31.7645 1.95757C32.5143 2.0523 34.0983 2.47335 34.848 2.77862C38.6179 4.30493 41.617 8.22072 42.0605 12.1786L42.1239 12.7365H41.0679C39.5472 12.7365 39.072 12.9891 39.072 13.7891C39.072 13.9891 39.1671 14.2102 39.336 14.3681C39.5789 14.6207 39.6528 14.6312 40.8672 14.6312H42.145L42.0816 15.126C41.9443 16.1891 41.7859 16.8207 41.4269 17.7891C40.3181 20.7786 38.2167 23.0733 35.3655 24.4102C34.2355 24.9365 32.377 25.4733 31.6695 25.4733H31.2787L31.2365 24.4102C31.2048 23.3576 31.2048 23.347 30.8458 23.0312C30.5607 22.7786 30.4339 22.726 30.1699 22.7786C29.9904 22.8207 29.737 22.947 29.5997 23.0733C29.3779 23.2839 29.3568 23.3891 29.3568 24.3891V25.4733H28.945C28.2375 25.4733 26.3789 24.9365 25.249 24.4102C23.5488 23.6102 22.0599 22.4207 20.9194 20.9576C19.6839 19.3681 18.7863 17.1891 18.5434 15.1786L18.4695 14.6312H19.7472C20.9616 14.6312 21.0355 14.6207 21.2784 14.3681C21.7325 13.926 21.5741 13.1365 20.9616 12.8944C20.7293 12.7891 20.2224 12.7365 19.5466 12.7365H18.4906L18.5539 12.1786C18.6595 11.1997 19.1031 9.70493 19.5783 8.70493C21.1411 5.41019 24.024 3.06283 27.5616 2.22072C28.3431 2.03125 28.6387 1.97862 29.2301 1.90493C29.3251 1.89441 29.3568 2.17862 29.3568 2.99967Z" fill="url(#paint0_linear_639_16913)"/>
<path d="M34.0562 9.17864C31.9231 10.7681 32.1343 10.6734 31.2261 10.526C30.6137 10.4207 30.2757 10.4207 29.6949 10.526L28.9452 10.6523L28.2271 10.1471C27.8364 9.87338 27.0972 9.34706 26.6009 8.97864C25.7349 8.35759 25.4181 8.21022 25.3125 8.38917C25.2597 8.47338 25.3231 9.2418 25.5554 11.7155L25.6716 12.8523L25.2281 14.326C24.8479 15.5892 24.8057 15.8207 24.9324 15.9365C25.0169 16.0102 25.5765 16.1576 26.189 16.2628C26.8015 16.3681 27.509 16.4839 27.7625 16.526C28.1532 16.5892 28.301 16.705 28.8079 17.2734C29.8428 18.4418 30.2757 18.8418 30.5081 18.8418C30.6559 18.8418 30.941 18.6207 31.2895 18.2418C32.8313 16.5576 32.7151 16.6523 33.581 16.4839C34.014 16.3997 34.7426 16.2734 35.1861 16.1997C35.6402 16.1365 36.0521 16.0207 36.1154 15.9471C36.1893 15.8523 36.1788 15.6734 36.0732 15.3576C35.9887 15.105 35.8725 14.726 35.8197 14.526C35.7564 14.326 35.6085 13.8102 35.4924 13.3892C35.2706 12.6418 35.2706 12.5892 35.429 10.5155C35.5769 8.52601 35.5769 8.19969 35.3973 8.22075C35.3551 8.22075 34.7532 8.65232 34.0562 9.17864Z" fill="url(#paint1_linear_639_16913)"/>
<path d="M28.0232 0.149527C23.6196 0.917946 19.9025 3.68637 17.9489 7.62321C16.291 10.9706 16.1009 15.0758 17.442 18.6127C18.762 22.0969 21.666 25.0548 25.172 26.4548C28.4561 27.7706 32.1204 27.7811 35.3624 26.4758C38.3825 25.2548 40.9064 23.0127 42.427 20.1811C44.1588 16.9495 44.5179 12.9601 43.3774 9.45479C41.7828 4.5811 37.6116 1.00216 32.5217 0.149527C31.3073 -0.0504742 29.1848 -0.0504742 28.0232 0.149527ZM29.3432 2.9811C29.3432 4.02321 29.3643 4.10742 29.6072 4.34953C29.8606 4.61268 30.378 4.69689 30.7688 4.54952C31.1067 4.42321 31.244 3.92847 31.244 2.88637V1.87584L31.7508 1.939C32.5006 2.03374 34.0846 2.45479 34.8344 2.76005C38.6043 4.28637 41.6033 8.20216 42.0468 12.1601L42.1102 12.7179H41.0542C39.5336 12.7179 39.0584 12.9706 39.0584 13.7706C39.0584 13.9706 39.1534 14.1916 39.3224 14.3495C39.5652 14.6022 39.6392 14.6127 40.8536 14.6127H42.1313L42.068 15.1074C41.9307 16.1706 41.7723 16.8022 41.4132 17.7706C40.3044 20.76 38.203 23.0548 35.3518 24.3916C34.2219 24.9179 32.3633 25.4548 31.6558 25.4548H31.2651L31.2228 24.3916C31.1912 23.339 31.1912 23.3285 30.8321 23.0127C30.547 22.76 30.4203 22.7074 30.1563 22.76C29.9768 22.8022 29.7233 22.9285 29.586 23.0548C29.3643 23.2653 29.3432 23.3706 29.3432 24.3706V25.4548H28.9313C28.2238 25.4548 26.3652 24.9179 25.2353 24.3916C23.5352 23.5916 22.0462 22.4022 20.9057 20.939C19.6702 19.3495 18.7726 17.1706 18.5297 15.1601L18.4558 14.6127H19.7336C20.948 14.6127 21.0219 14.6022 21.2648 14.3495C21.7188 13.9074 21.5604 13.1179 20.948 12.8758C20.7156 12.7706 20.2088 12.7179 19.5329 12.7179H18.4769L18.5403 12.1601C18.6459 11.1811 19.0894 9.68637 19.5646 8.68637C21.1275 5.39163 24.0104 3.04426 27.548 2.20216C28.3294 2.01268 28.6251 1.96005 29.2164 1.88637C29.3115 1.87584 29.3432 2.16005 29.3432 2.9811Z" fill="url(#paint2_linear_639_16913)"/>
<path d="M34.0562 9.1786C31.9231 10.7681 32.1343 10.6733 31.2261 10.526C30.6137 10.4207 30.2757 10.4207 29.6949 10.526L28.9452 10.6523L28.2271 10.147C27.8364 9.87334 27.0972 9.34702 26.6009 8.9786C25.7349 8.35754 25.4181 8.21017 25.3125 8.38912C25.2597 8.47333 25.3231 9.24176 25.5554 11.7155L25.6716 12.8523L25.2281 14.326C24.8479 15.5892 24.8057 15.8207 24.9324 15.9365C25.0169 16.0102 25.5765 16.1576 26.189 16.2628C26.8015 16.3681 27.509 16.4839 27.7625 16.526C28.1532 16.5892 28.301 16.7049 28.8079 17.2734C29.8428 18.4418 30.2757 18.8418 30.5081 18.8418C30.6559 18.8418 30.941 18.6207 31.2895 18.2418C32.8313 16.5576 32.7151 16.6523 33.581 16.4839C34.014 16.3997 34.7426 16.2734 35.1861 16.1997C35.6402 16.1365 36.0521 16.0207 36.1154 15.947C36.1893 15.8523 36.1788 15.6734 36.0732 15.3576C35.9887 15.1049 35.8725 14.726 35.8197 14.526C35.7564 14.326 35.6085 13.8102 35.4924 13.3891C35.2706 12.6418 35.2706 12.5891 35.429 10.5154C35.5769 8.52596 35.5769 8.19965 35.3973 8.2207C35.3551 8.2207 34.7532 8.65228 34.0562 9.1786Z" fill="url(#paint3_linear_639_16913)"/>
<path d="M123.425 2.29408C122.929 3.54671 121.862 6.20987 121.07 8.20986C120.268 10.2099 118.99 13.4309 118.219 15.3678C117.448 17.3046 116.16 20.5256 115.368 22.5256C114.576 24.5256 113.847 26.3678 113.731 26.6309L113.53 27.1046L115.706 27.1362C116.909 27.1467 117.923 27.1256 117.965 27.0835C117.997 27.0309 118.441 25.9783 118.948 24.7362C119.444 23.4941 120.151 21.7572 120.532 20.8941L121.207 19.3151L125.907 19.2835L130.606 19.2625L131.334 21.073C131.746 22.073 132.464 23.852 132.95 25.0204L133.827 27.1572H136.023H138.23L138.135 26.9151C137.977 26.5046 136.477 22.7362 134.566 17.9467C133.552 15.3993 132.369 12.4414 131.947 11.3678C131.525 10.2941 130.437 7.56776 129.539 5.31513C128.631 3.05197 127.797 0.936182 127.67 0.59934L127.448 -0.000659943H125.896H124.344L123.425 2.29408ZM126.762 8.95723C127.195 10.1993 127.881 12.1678 128.293 13.3362L129.032 15.473H125.875H122.717L123.034 14.5993C123.214 14.1257 123.626 12.9993 123.942 12.1046C125.938 6.47302 125.885 6.60987 125.938 6.6625C125.959 6.68355 126.329 7.71513 126.762 8.95723Z" fill="url(#paint4_linear_639_16913)"/>
<path d="M145.728 0.0734634C144.968 0.178728 143.331 0.652411 142.613 0.968201C139.413 2.42083 137.703 4.88399 137.703 8.05241C137.713 11.3261 139.181 13.484 142.212 14.6735C143.416 15.1366 145.39 15.5156 148.104 15.7893C151.779 16.1682 153.173 17.0945 153.152 19.1577C153.131 20.7787 151.853 22.1998 149.794 22.905C148.706 23.2735 146.816 23.3682 145.654 23.1261C143.468 22.6524 141.863 21.2735 141.652 19.6629L141.578 19.1577L139.519 19.1787L137.449 19.2103L137.481 19.7787C137.565 21.505 138.283 23.0103 139.646 24.3682C141.029 25.7471 142.434 26.505 144.619 27.0735C145.971 27.4208 148.611 27.4208 149.994 27.0735C151.6 26.6735 153.099 25.9892 154.229 25.1577C154.345 25.0735 154.799 24.6314 155.243 24.1892C155.887 23.5471 156.151 23.1682 156.531 22.3998C157.144 21.1577 157.281 20.5261 157.281 19.1577C157.281 17.8103 157.122 17.0208 156.658 16.0524C155.802 14.2629 153.965 12.9577 151.304 12.2524C150.153 11.9471 148.284 11.6208 147.101 11.5261C144.82 11.3366 143.226 10.7893 142.465 9.93662C141.958 9.3682 141.821 8.94715 141.821 7.99978C141.821 6.54715 142.571 5.46294 144.081 4.73662C145.169 4.22083 145.918 4.06294 147.312 4.06294C149.065 4.06294 150.375 4.49452 151.41 5.42083C151.916 5.87346 152.487 6.82083 152.487 7.19978C152.487 7.38925 153.025 7.41031 155.264 7.29452C156.806 7.22083 156.732 7.30504 156.394 6.08399C155.57 3.13662 153.469 1.19978 150.111 0.294518C149.371 0.105043 146.573 -0.042326 145.728 0.0734634Z" fill="url(#paint5_linear_639_16913)"/>
<path d="M76.9609 0.326244C74.1836 0.810453 71.9237 1.97888 69.9596 3.9473C68.0482 5.85256 66.9711 7.75783 66.2002 10.5789C65.8834 11.7473 65.7989 14.6841 66.0418 16.0526C66.5381 18.8841 67.8581 21.4105 69.9068 23.4947C71.7865 25.3999 73.8985 26.5473 76.6124 27.1263C77.7951 27.3789 80.4245 27.3684 81.5756 27.1157C85.7362 26.1894 88.8725 23.7789 90.7417 20.0526C91.0373 19.4526 91.8716 17.2105 91.8716 16.9999C91.8716 16.9684 90.9423 16.9473 89.8124 16.9473C88.3551 16.9473 87.7532 16.9789 87.7532 17.0631C87.7532 17.2947 87.1829 18.4841 86.7394 19.1684C84.9548 21.9263 81.9769 23.4105 78.566 23.2315C75.2607 23.0631 72.2511 20.9684 70.7199 17.7684C69.6956 15.621 69.5794 12.7368 70.4348 10.442C71.533 7.51572 73.814 5.36835 76.718 4.51572C77.4361 4.30519 77.7951 4.26309 79.1468 4.26309C80.8892 4.26309 81.6812 4.43151 83.0645 5.05256C84.9125 5.88414 86.5282 7.57888 87.2991 9.49467L87.5948 10.2105H89.6329H91.6604L91.597 9.91572C91.4386 9.25256 90.9001 7.83151 90.541 7.12625C89.9285 5.91572 89.2421 4.95782 88.2812 3.95782C86.2431 1.84203 84.0255 0.736771 80.8892 0.263086C79.5164 0.0630856 78.3548 0.0736122 76.9609 0.326244Z" fill="url(#paint6_linear_639_16913)"/>
<path d="M176.985 13.6836V27.1572H179.045H181.104V15.7888V4.42041H184.409C187.915 4.42041 188.411 4.47305 189.362 4.95725C190.027 5.2941 190.787 6.12568 191.167 6.92567C191.484 7.59936 191.505 7.69409 191.505 8.89409C191.505 10.1151 191.495 10.1888 191.157 10.873C190.745 11.6941 190.006 12.473 189.288 12.8309C188.327 13.3046 187.873 13.3678 184.99 13.3678H182.265V14.3783V15.3888L182.92 16.1888C183.279 16.6309 183.987 17.473 184.483 18.0625C184.979 18.652 186.236 20.1572 187.281 21.4099C188.327 22.673 189.288 23.8309 189.414 23.9783C189.552 24.1362 190.196 24.9151 190.84 25.7046L192.033 27.1467H194.599C197.081 27.1572 197.166 27.1467 197.134 26.9572C197.113 26.8414 196.532 26.0835 195.835 25.2625C195.138 24.4414 194.114 23.2309 193.565 22.5888C193.015 21.9362 191.991 20.7257 191.294 19.8941C190.597 19.0625 189.805 18.1257 189.531 17.7993C189.256 17.473 189.024 17.1783 189.024 17.1362C189.024 17.1046 189.277 17.0204 189.583 16.9467C190.375 16.7678 191.938 15.9993 192.625 15.4625C194.378 14.0836 195.423 12.1467 195.666 9.80988C196.057 6.04146 194.124 2.4941 190.882 1.052C189.203 0.30463 188.221 0.220419 181.927 0.209892H176.985V13.6836Z" fill="url(#paint7_linear_639_16913)"/>
<path d="M0 13.7362V27.1572H2.0064H4.0128V21.473V15.7888H9.3984H14.784V13.6835V11.5783H9.3984H4.0128V7.9993V4.42035H10.032H16.0512V2.36771V0.315081H8.0256H0V13.7362Z" fill="url(#paint8_linear_639_16913)"/>
<path d="M43.0106 0.809818C43.2112 1.09403 44.1933 2.45193 45.1965 3.8414C46.1997 5.23088 47.1818 6.5993 47.3824 6.88351C47.5831 7.1572 48.0899 7.85193 48.5018 8.42035C48.9242 8.98878 49.336 9.5572 49.4205 9.68352C49.505 9.80983 50.1703 10.7256 50.8989 11.7151C51.6275 12.7151 52.2611 13.5783 52.3034 13.6519C52.3879 13.7888 52.1344 14.1362 47.9949 19.7993C46.7805 21.4625 45.7034 22.9256 45.6189 23.052C45.5344 23.1783 44.8691 24.0941 44.1405 25.0835C43.4119 26.0835 42.7783 26.9572 42.7255 27.0309C42.6621 27.1256 43.1795 27.1572 45.1754 27.1572H47.6887L48.8291 25.5993C49.8851 24.1572 51.881 21.4204 53.9402 18.5783C54.4259 17.9151 54.8589 17.3677 54.9011 17.3677C54.9434 17.3677 55.7987 18.5046 56.8125 19.9046C57.8263 21.2941 58.9245 22.7888 59.2413 23.2204C59.5581 23.6414 60.3395 24.7046 60.9731 25.5783L62.1347 27.1572H64.648H67.1613L66.0314 25.5993C65.4083 24.7467 64.3523 23.2941 63.6765 22.3677C63.0007 21.4414 61.3427 19.1783 60.0016 17.3362C58.6499 15.5046 57.52 13.9256 57.4883 13.8519C57.4567 13.7783 58.0163 12.9151 58.7239 11.9362C59.4314 10.9572 60.2339 9.85194 60.5085 9.47299C61.2055 8.50457 63.761 4.97824 64.12 4.47298C65.1232 3.10456 66.3904 1.35719 66.5277 1.15719C66.6122 1.03087 66.7706 0.809818 66.8762 0.683502C66.9712 0.546659 67.0557 0.409817 67.0557 0.378239C67.0557 0.346659 65.9469 0.315081 64.5847 0.315081H62.1136L59.0407 4.49403C57.3511 6.7993 55.9149 8.76772 55.841 8.86246C55.7671 8.96772 55.5347 9.28351 55.3341 9.57825C55.1335 9.86246 54.9328 10.1046 54.9011 10.1046C54.8695 10.1046 54.4576 9.56773 53.993 8.91509C53.5178 8.27299 52.5779 6.96772 51.8915 6.03088C51.1946 5.08351 49.9802 3.42035 49.1671 2.31508L47.7098 0.315081H45.1859H42.6621L43.0106 0.809818Z" fill="url(#paint9_linear_639_16913)"/>
<path d="M93.4561 13.7362V27.1572H95.5153H97.5745V21.3677V15.5783H103.118H108.662V21.3677V27.1572H110.722H112.781V13.7362V0.315081H110.722H108.662V5.89404V11.473H103.118H97.5745V5.89404V0.315081H95.5153H93.4561V13.7362Z" fill="url(#paint10_linear_639_16913)"/>
<path d="M158.928 13.7362V27.1572H167.217H175.507V25.1046V23.052H169.329H163.152V19.4204V15.7888H169.171H175.19V13.6835V11.5783H169.171H163.152V7.9993V4.42035H169.329H175.507V2.36771V0.315081H167.217H158.928V13.7362Z" fill="url(#paint11_linear_639_16913)"/>
<defs>
<linearGradient id="paint0_linear_639_16913" x1="30.3091" y1="27.4668" x2="30.3091" y2="0.0180931" gradientUnits="userSpaceOnUse">
<stop stop-color="#FFA800"/>
<stop offset="1" stop-color="#FF7A00"/>
</linearGradient>
<linearGradient id="paint1_linear_639_16913" x1="30.5156" y1="18.8418" x2="30.5156" y2="8.21982" gradientUnits="userSpaceOnUse">
<stop stop-color="#FFA800"/>
<stop offset="1" stop-color="#FF7A00"/>
</linearGradient>
<linearGradient id="paint2_linear_639_16913" x1="30.2954" y1="27.4482" x2="30.2954" y2="-0.00047493" gradientUnits="userSpaceOnUse">
<stop stop-color="#FFA800"/>
<stop offset="1" stop-color="#FF7A00"/>
</linearGradient>
<linearGradient id="paint3_linear_639_16913" x1="30.5156" y1="18.8418" x2="30.5156" y2="8.21978" gradientUnits="userSpaceOnUse">
<stop stop-color="#FFA800"/>
<stop offset="1" stop-color="#FF7A00"/>
</linearGradient>
<linearGradient id="paint4_linear_639_16913" x1="125.88" y1="27.1572" x2="125.88" y2="-0.000659943" gradientUnits="userSpaceOnUse">
<stop stop-color="#FFA800"/>
<stop offset="1" stop-color="#FF7A00"/>
</linearGradient>
<linearGradient id="paint5_linear_639_16913" x1="147.365" y1="27.334" x2="147.365" y2="0.0324974" gradientUnits="userSpaceOnUse">
<stop stop-color="#FFA800"/>
<stop offset="1" stop-color="#FF7A00"/>
</linearGradient>
<linearGradient id="paint6_linear_639_16913" x1="78.8865" y1="27.3105" x2="78.8865" y2="0.123802" gradientUnits="userSpaceOnUse">
<stop stop-color="#FFA800"/>
<stop offset="1" stop-color="#FF7A00"/>
</linearGradient>
<linearGradient id="paint7_linear_639_16913" x1="187.062" y1="27.1572" x2="187.062" y2="0.209892" gradientUnits="userSpaceOnUse">
<stop stop-color="#FFA800"/>
<stop offset="1" stop-color="#FF7A00"/>
</linearGradient>
<linearGradient id="paint8_linear_639_16913" x1="8.0256" y1="27.1572" x2="8.0256" y2="0.315079" gradientUnits="userSpaceOnUse">
<stop stop-color="#FFA800"/>
<stop offset="1" stop-color="#FF7A00"/>
</linearGradient>
<linearGradient id="paint9_linear_639_16913" x1="54.9117" y1="27.1572" x2="54.9117" y2="0.315079" gradientUnits="userSpaceOnUse">
<stop stop-color="#FFA800"/>
<stop offset="1" stop-color="#FF7A00"/>
</linearGradient>
<linearGradient id="paint10_linear_639_16913" x1="103.118" y1="27.1572" x2="103.118" y2="0.315079" gradientUnits="userSpaceOnUse">
<stop stop-color="#FFA800"/>
<stop offset="1" stop-color="#FF7A00"/>
</linearGradient>
<linearGradient id="paint11_linear_639_16913" x1="167.217" y1="27.1572" x2="167.217" y2="0.315079" gradientUnits="userSpaceOnUse">
<stop stop-color="#FFA800"/>
<stop offset="1" stop-color="#FF7A00"/>
</linearGradient>
</defs>
</svg>
