<svg width="249" height="234" viewBox="0 0 249 234" fill="none" xmlns="http://www.w3.org/2000/svg">
<g clip-path="url(#clip0_675_1508)">
<path d="M123.499 176.796C170.607 176.796 208.796 138.608 208.796 91.4997C208.796 44.3917 170.607 6.20312 123.499 6.20312C76.3912 6.20312 38.2026 44.3917 38.2026 91.4997C38.2026 138.608 76.3912 176.796 123.499 176.796Z" stroke="#FF7A00" stroke-width="13"/>
<path d="M129.6 6.20339C129.6 2.77735 126.822 0 123.396 0C119.97 0 117.193 2.77735 117.193 6.20339V24.8136C117.193 28.2396 119.97 31.017 123.396 31.017C126.822 31.017 129.6 28.2396 129.6 24.8136V6.20339Z" fill="#FF7A00"/>
<path d="M129.393 158.188C129.393 154.762 126.616 151.984 123.19 151.984C119.764 151.984 116.986 154.762 116.986 158.188V176.798C116.986 180.224 119.764 183.001 123.19 183.001C126.616 183.001 129.393 180.224 129.393 176.798V158.188Z" fill="#FF7A00"/>
<path d="M58.8814 85.4004H38.2034C34.7774 85.4004 32 88.1777 32 91.6038C32 95.0298 34.7774 97.8072 38.2034 97.8072H58.8814C62.3074 97.8072 65.0847 95.0298 65.0847 91.6038C65.0847 88.1777 62.3074 85.4004 58.8814 85.4004Z" fill="#FF7A00"/>
<path d="M208.798 85.4004H188.12C184.694 85.4004 181.917 88.1777 181.917 91.6038C181.917 95.0298 184.694 97.8072 188.12 97.8072H208.798C212.224 97.8072 215.001 95.0298 215.001 91.6038C215.001 88.1777 212.224 85.4004 208.798 85.4004Z" fill="#FF7A00"/>
<path d="M124.663 79.3137L114.13 71.3413L119.801 70.2865C123.093 69.6744 126.467 69.686 129.748 70.321L135.019 71.3413L124.663 79.3137Z" fill="#FF7A00"/>
<path d="M92.6432 85.6338L110.782 83.2285L109.664 110.683L88.7171 106.855C87.5972 106.65 86.9444 105.6 87.2568 104.505L92.6432 85.6338Z" fill="#FF7A00"/>
<path d="M148.35 95.9652L156.384 84.502L162.43 104.655C162.766 105.775 162.035 106.897 160.834 107.105L138.53 110.967L148.35 95.9652Z" fill="#FF7A00"/>
<path d="M121.639 124.068L109.666 110.684H139.72L127.843 124.068L127.664 124.239C126.027 125.799 123.288 125.721 121.639 124.068Z" fill="#FF7A00"/>
<path d="M96.2061 76.4043L145.256 108.56L124.368 116.639L102.264 107.844C101.609 107.584 101.151 107.027 101.043 106.363L96.2061 76.4043Z" fill="#FF7A00"/>
<path d="M134.858 71.4388C134.924 71.4047 134.996 71.3813 135.07 71.3702L140.407 70.555C140.882 70.4827 141.253 70.9043 141.091 71.3317L139.852 74.5984C139.837 74.6387 139.817 74.6774 139.793 74.714L138.043 77.4063C137.857 77.6935 137.462 77.7921 137.162 77.6265L131.212 74.3424C130.791 74.1098 130.816 73.5262 131.257 73.2986L134.858 71.4388Z" fill="#FF7A00"/>
<path d="M127.28 71.4355H92.7617V87.3803H127.28V71.4355Z" fill="#FF7A00"/>
<path d="M92.6909 85.6075L151.207 67.4258L161.742 105.92L109.369 110.401L92.6909 85.6075Z" fill="#FF7A00"/>
<path d="M144.588 64.2223L156.544 55.3941C157.403 54.7597 158.609 55.4346 158.517 56.4985L157.204 71.753L156.377 85.2971L134.769 71.3664L144.588 64.2223Z" fill="#FF7A00"/>
<path d="M90.1978 57.1809C90.0832 55.7732 91.6717 54.8786 92.816 55.7064L114.367 71.2924L92.6444 85.6805L91.3458 71.2924L90.1978 57.1809Z" fill="#FF7A00"/>
</g>
<path d="M5.424 211.648H18.864V206.752H5.424V197.296H20.592V192.448H0.576V226H5.424V211.648ZM50.7945 209.2C50.7945 212.656 49.4025 215.68 47.2425 217.888C44.9865 220.144 41.8665 221.536 38.5545 221.536C35.2425 221.536 32.1705 220.144 29.9625 217.888C27.7545 215.68 26.3625 212.608 26.3625 209.2C26.3625 205.792 27.7545 202.72 29.9625 200.512C32.1705 198.256 35.2425 196.864 38.5545 196.864C41.8665 196.864 44.9865 198.256 47.2425 200.512C49.4025 202.72 50.7945 205.744 50.7945 209.2ZM21.4665 209.2C21.4665 213.952 23.4345 218.224 26.4585 221.344C29.5305 224.512 33.8505 226.432 38.5545 226.432C43.3065 226.432 47.5785 224.512 50.6985 221.344C53.7225 218.224 55.6905 213.952 55.6905 209.2C55.6905 204.448 53.7225 200.176 50.6985 197.056C47.5785 193.936 43.3065 191.968 38.5545 191.968C33.8505 191.968 29.5305 193.936 26.4585 197.056C23.4345 200.176 21.4665 204.448 21.4665 209.2ZM54.3746 192.448C57.4466 196.72 62.9186 204.352 66.5186 209.296L54.3746 226H60.3266L69.4466 213.424L78.6146 226H84.5186C81.3026 221.536 75.9746 214.24 72.3746 209.296L84.5186 192.448H78.6146L69.4466 205.024L60.3266 192.448H54.3746ZM83.3471 209.296C83.3471 213.952 85.2671 218.176 88.1471 221.248C91.0751 224.32 95.2031 226.24 99.7631 226.24C107.587 226.24 113.731 221.056 115.651 213.424H110.899C109.171 218.512 104.851 221.44 99.7631 221.44C96.5471 221.44 93.6191 220.048 91.5071 217.84C89.3951 215.632 88.0511 212.656 88.0511 209.296C88.0511 205.84 89.3951 202.864 91.5071 200.656C93.6191 198.448 96.5471 197.056 99.7631 197.056C104.707 197.056 108.835 199.6 110.611 204.64H115.411C113.491 197.056 107.443 192.256 99.7631 192.256C95.2031 192.256 91.0751 194.224 88.1471 197.248C85.2671 200.32 83.3471 204.544 83.3471 209.296ZM122.849 192.448H118.001V226H122.849V211.408H137.057V226H141.953V192.448H137.057V206.608H122.849V192.448ZM158.607 199.696L162.735 211.552H154.383L158.607 199.696ZM168.639 226H173.823L160.335 191.968H156.783L143.295 226H148.527C149.583 223.216 151.263 219.184 152.559 216.112H164.607L168.639 226ZM196.967 200.896C196.103 194.752 190.727 192.064 185.543 192.064C181.655 192.064 177.623 193.6 175.367 196.528C173.927 198.4 173.351 200.656 173.543 202.912V202.864C174.071 209.872 180.215 211.024 185.447 211.552C188.807 211.888 192.263 212.32 192.839 214.864C192.935 215.296 192.983 215.68 192.983 216.016C192.983 219.472 189.047 221.488 185.447 221.488C182.327 221.488 178.535 219.856 178.199 216.736V216.928L178.151 216.208L173.255 216.304L173.303 217.216C173.927 223.216 180.215 226.288 185.398 226.288C191.447 226.288 197.879 222.544 197.879 216.064C197.879 215.392 197.783 214.576 197.639 213.856C196.343 208.48 190.631 207.28 186.023 206.704C182.423 206.368 178.631 205.936 178.391 202.48C178.295 201.328 178.535 200.224 179.207 199.36C180.551 197.632 183.047 196.864 185.303 196.816C188.231 196.768 191.495 198.064 192.167 201.088L196.967 200.896ZM205.113 211.648H220.329V206.752H205.113V197.296H220.665V192.448H200.217V226H220.713V221.152H205.113V211.648ZM229.486 211.264L241.726 226H248.014L237.406 213.376C243.166 212.368 246.094 207.856 246.094 203.104C246.094 197.776 242.446 192.4 235.15 192.4H222.91V226H227.71V197.296H235.15C239.23 197.296 241.246 200.224 241.246 203.104C241.246 206.032 239.23 208.96 235.15 208.96H229.486V211.264Z" fill="#FF7A00"/>
<defs>
<clipPath id="clip0_675_1508">
<rect width="183" height="183" fill="white" transform="translate(32)"/>
</clipPath>
</defs>
</svg>
