<svg width="24" height="20" viewBox="0 0 24 20" fill="none" xmlns="http://www.w3.org/2000/svg">
<path d="M8.94534 0.993774V17.886L12.6094 19.0063V4.86096C12.6094 4.45376 12.6093 4.2509 12.8125 4.0469C12.9141 3.8437 13.1171 3.84374 13.3203 3.94534C13.8291 4.14854 14.136 4.55594 14.136 5.37034V10.9657C15.3568 11.5761 16.3731 11.5761 17.1875 10.9657C18.0019 10.3553 18.4094 9.44049 18.4094 7.91409C18.4102 6.28609 18.1042 5.26831 17.3922 4.45471C16.7818 3.64031 15.6632 2.92757 14.0344 2.41877C11.9992 1.80837 10.2685 1.29937 8.94534 0.993774ZM7.92815 11.5782L3.2469 13.2063L2.53596 13.511C1.41676 14.0198 0.806274 14.5287 0.806274 15.0375C0.907874 15.6479 1.11112 16.4631 2.63752 16.9719C4.06233 17.4807 5.18167 17.6839 8.03127 16.8703V15.0375C5.28247 15.9527 4.87598 15.8517 4.46878 15.6485C4.06157 15.4453 4.06093 15.2407 4.16252 15.1391C4.46813 14.9359 5.58753 14.5282 5.58753 14.5282L7.92815 13.7141V11.5782ZM18.2828 12.3703C17.9521 12.3592 17.6215 12.3653 17.2907 12.3907C16.1715 12.3907 15.1529 12.5944 13.9313 12.9V15.0375L16.1703 14.2219L17.3907 13.8157C17.3907 13.8157 17.9007 13.7141 18.2063 13.6125C18.7151 13.5109 19.325 13.7141 19.325 13.7141C19.6306 13.7141 19.8344 13.8148 19.8344 14.0188C19.936 14.222 19.7323 14.325 19.2235 14.5282L18.1047 14.936L14.0344 16.461V18.5985L15.8657 17.9875L20.9532 16.1563L21.5641 15.85C22.7849 15.4428 23.2938 14.9339 23.1922 14.3235C23.1922 13.7139 22.4802 13.3072 21.2594 12.9C20.267 12.5946 19.275 12.4037 18.2828 12.3703Z" fill="white"/>
</svg>
