<svg width="24" height="24" viewBox="0 0 24 24" fill="none" xmlns="http://www.w3.org/2000/svg">
<path d="M3.51799 0.47998C2.39109 0.47998 1.47645 0.922051 0.881101 1.59148C0.28575 2.2609 0 3.13242 0 3.99615C0 4.85989 0.28575 5.73033 0.881101 6.39976C0.993146 6.52574 1.12034 6.64079 1.25429 6.74924C1.51676 10.6834 3.19871 19.1171 12.2007 23.3276C12.2027 23.3285 12.204 23.3299 12.206 23.3308C12.2232 23.3397 12.2751 23.3666 12.3803 23.4142L12.6145 23.52L12.8455 23.4067C12.9242 23.3684 13.008 23.3287 13.008 23.3287C25.0072 17.7179 23.9779 4.59572 23.9779 4.59572L23.9565 4.32853L23.7331 4.18211C20.8091 2.26334 16.9435 1.63115 12.777 1.59789H12.7749H12.4359H12.4338C10.3606 1.61466 8.37023 1.789 6.52592 2.18677C5.90882 1.16711 4.79212 0.47998 3.51799 0.47998ZM3.51799 1.57438C4.86244 1.57438 5.93995 2.6524 5.93995 3.99615C5.93995 5.33991 4.86244 6.41686 3.51799 6.41686C2.66483 6.41686 2.09379 6.11679 1.69911 5.67301C1.30444 5.22923 1.09496 4.61669 1.09496 3.99615C1.09496 3.37561 1.30444 2.762 1.69911 2.31822C2.09379 1.87444 2.66483 1.57438 3.51799 1.57438ZM12.4423 2.69121L12.4381 2.69228H12.7728L12.7685 2.69121C16.7115 2.72269 20.2617 3.34644 22.8851 4.97085C22.9124 5.37775 23.0623 8.3676 21.8885 11.9059C21.397 11.0136 20.2703 10.1146 18.7255 9.81333C18.1835 9.72304 17.4605 9.85885 17.0542 10.2195L16.6928 10.1297V10.0848C16.6928 10.0848 17.3703 9.63322 17.6413 9.54294C17.6413 9.54294 17.7766 9.49696 17.8669 9.45209C17.8669 9.36181 17.8214 9.27143 17.4606 9.09086C17.0992 8.91028 16.603 8.9562 16.603 8.9562L16.9644 8.73069V8.6858L16.1967 7.91844V7.78378L15.8812 7.46743C15.8812 7.46743 15.9261 7.33222 15.7903 7.24193C15.6551 7.10677 15.5198 7.01695 15.4749 6.97154C15.43 6.92612 15.2942 6.88069 15.2942 6.88069C15.2942 6.88069 15.384 6.70059 15.384 6.6103C15.384 6.6103 15.3845 6.56541 15.3391 6.56541C15.2942 6.56541 14.8418 6.2496 14.7061 6.20418C14.5708 6.15876 14.1639 6.06952 14.119 6.06952C14.0736 6.06952 14.0292 6.11442 14.0292 6.15929C14.0292 6.20471 13.9832 6.42968 13.9832 6.42968L14.3446 6.56541L14.2997 6.70008L14.0741 6.65519C13.9389 6.5649 13.2613 6.29447 12.5386 6.20418C11.8159 6.11389 11.0025 6.06952 10.9122 6.06952C10.8218 6.06952 10.7319 6.11498 10.2802 6.25013C9.82856 6.38529 9.51243 6.52053 9.33176 6.52053C9.15109 6.56594 8.51909 6.56541 8.51909 6.56541C8.51909 6.56541 8.5185 6.52102 8.24749 6.38586C7.97649 6.25071 7.34388 5.93377 7.11831 5.8889C7.07342 5.8889 7.0734 5.93485 7.0734 5.93485C7.0734 5.93485 6.93867 5.93491 6.93867 6.16036C6.89323 6.11549 6.80394 6.11547 6.80394 6.11547L6.71305 6.34098C6.5146 6.30102 6.3651 6.26076 6.23614 6.22128C6.7346 5.6144 7.03491 4.83899 7.03491 3.99615C7.03491 3.72891 7.00215 3.46968 6.94509 3.21917C8.64207 2.87026 10.4937 2.70698 12.4423 2.69121ZM7.02742 6.06738C7.02742 6.06738 8.02193 6.3827 8.24749 6.56328C8.11227 6.56328 7.84116 6.60816 7.84116 6.60816C7.84116 6.60816 7.70519 6.47295 6.98251 6.38266C6.98251 6.20208 7.02742 6.06738 7.02742 6.06738ZM10.5957 6.15822C10.5957 6.15822 11.2283 6.33837 11.9056 6.60923C11.9056 6.60923 11.1383 7.06024 11.0929 7.06024C11.048 7.06024 10.9121 7.15053 10.6866 7.06024C10.4156 6.96995 9.78299 6.74496 9.73809 6.74496C9.69265 6.74496 9.37667 6.56434 9.37667 6.56434C9.37667 6.56434 10.5508 6.15822 10.5957 6.15822ZM6.26074 6.33777C6.35107 6.38264 6.4864 6.42863 6.66707 6.4735V6.51839L6.71198 6.38266L7.56956 6.60816C7.56956 6.60816 7.37634 6.63567 7.27122 6.64771L7.29903 6.65412C7.29903 6.65412 6.6216 6.78878 6.53127 6.78878C6.53127 6.83365 6.48636 6.83421 6.48636 6.87962H6.44038V7.06024L6.39547 7.10513V7.15002C6.4858 7.19543 6.75745 7.37606 6.84778 7.42148H6.9376L6.98251 7.46637C6.98251 7.46637 6.80179 7.42097 6.75689 7.51125C6.712 7.60154 6.66707 7.91738 6.66707 7.91738C6.66707 7.91738 6.6666 8.05311 6.9376 8.05311V8.09799L6.89269 8.14288H6.8018L6.71198 8.05311L6.666 7.96333L6.25967 7.73783V7.91844H6.30565V8.18884H6.25967V8.00822L6.21476 8.32457H5.94423L5.98914 7.8276C5.98914 7.8276 5.85442 7.78323 5.89932 7.69294C5.89932 7.60265 5.94423 6.97047 5.94423 6.97047C5.94423 6.97047 6.03518 6.60863 6.26074 6.33777ZM12.267 6.69901C12.3573 6.69901 12.8098 6.74498 13.3063 6.78985C13.8483 6.88014 13.9383 6.88018 13.9832 6.97047C13.9832 6.97047 14.1185 7.42152 14.2088 7.6021C14.2992 7.82754 14.3435 8.00822 14.2986 8.00822H13.1246C12.6729 8.05364 11.9505 8.09906 11.9505 8.09906C11.9505 8.09906 11.8152 8.00822 11.7698 8.00822L11.4083 7.55721C11.4083 7.55721 11.2736 7.37657 11.3185 7.3317C11.364 7.24142 11.4084 7.19595 11.634 7.06024C11.8595 6.92454 12.1301 6.74496 12.1301 6.74496C12.1301 6.74496 12.1766 6.69901 12.267 6.69901ZM5.64803 6.78451L5.80949 6.88176L5.76458 7.42362L5.71967 7.4685V7.55828L5.76458 7.60423L5.71967 7.82974L5.67476 7.91951H5.71967V7.96547H5.76458V8.01036H5.44914L5.49405 7.51339C5.49405 7.51339 5.40316 7.51389 5.40316 7.37873C5.40316 7.32006 5.41966 7.11908 5.4331 6.93841C5.50692 6.89016 5.57817 6.838 5.64803 6.78451ZM5.2278 7.06345H5.26843C5.26843 7.06345 5.26792 7.24361 5.35825 7.55935C5.31281 7.60476 5.1781 8.011 5.26843 8.46244C5.40366 8.91387 5.90053 9.41045 6.48743 9.59103C7.07433 9.77161 7.61661 9.31957 7.61661 9.31957L7.79732 9.54507L8.24856 9.63592C8.24856 9.63592 7.97756 10.312 8.24856 10.9441C8.51956 11.5761 9.42275 12.0278 9.82898 12.0278C10.2352 12.0278 10.7781 11.7119 11.0491 11.4859C11.3201 11.2605 11.5447 10.8094 11.5901 10.6288C11.9963 10.9445 12.4488 11.0808 12.8102 10.9002L12.9909 10.9451L14.119 11.5768L15.0226 11.8931C15.0226 11.8931 15.0226 12.3896 15.2482 12.6605C15.4737 12.9313 16.0609 13.2013 16.2416 13.2013C16.4222 13.2013 16.8747 13.2022 17.2809 12.6605V12.6145C17.9582 13.4271 18.9065 13.7431 19.8547 13.7431C20.3655 13.7431 20.7523 13.9503 20.893 14.2978C20.9011 14.2908 20.9074 14.2854 20.9155 14.2785C19.9531 16.2226 18.5301 18.1935 16.4362 19.8991C15.9167 17.3746 11.2058 13.8912 6.30565 13.1093C5.19973 12.9252 4.26405 12.7011 3.52227 12.3452C2.84815 10.4716 2.53632 8.71291 2.40164 7.35094C2.74402 7.45319 3.11706 7.51125 3.51799 7.51125C4.1383 7.51125 4.72075 7.3475 5.2278 7.06345ZM9.783 7.1062C9.783 7.1062 9.81405 7.11104 9.83005 7.15109C9.83662 7.15327 9.96372 7.19876 9.96372 7.33063C9.96372 7.42092 9.91877 7.51125 9.82898 7.51125C9.7381 7.46638 9.69264 7.46637 9.69318 7.46637L9.60229 7.51232H9.55738L9.60229 7.19597L9.68998 7.16712C9.71954 7.13428 9.75782 7.1062 9.783 7.1062ZM9.68998 7.16712C9.66643 7.19283 9.6472 7.22061 9.6472 7.24086C9.6472 7.33115 9.64774 7.37608 9.69318 7.46637C9.69318 7.46637 9.82792 7.46632 9.82792 7.28575C9.84529 7.21572 9.83976 7.17839 9.83005 7.15215L9.82792 7.15109H9.73809L9.68998 7.16712ZM10.3251 7.28575C10.3251 7.28575 11.0476 7.46698 11.4992 7.78271C10.822 7.64756 10.3251 7.64698 10.3251 7.64698V7.28575ZM14.5702 7.37659C14.5702 7.37659 15.1574 7.51196 15.5187 8.27968L14.6152 7.96333L14.3446 7.46743L14.5702 7.37659ZM8.91473 7.58606C8.94861 7.58039 9.01662 7.58046 9.15212 7.60316C9.42312 7.64858 9.91883 7.69349 10.0546 7.78378C10.1904 7.87407 10.2802 7.9644 10.2802 7.9644L10.3711 8.14502C10.4615 8.28018 10.5058 8.32564 10.5058 8.32564C10.5058 8.32564 10.5962 8.4165 10.7315 8.46137C10.8667 8.46137 11.0929 8.50625 11.0929 8.50625C11.0929 8.50625 11.9506 9.31871 12.3119 10.2216L12.7642 10.5379L11.7698 10.2205C11.7698 10.2205 11.906 9.49792 11.4094 8.9562C10.8674 8.41447 10.1898 8.32457 9.783 8.32457C9.37677 8.36998 8.78958 8.77511 8.60892 9.04597C8.42825 9.04597 7.97589 9.00108 7.97589 9.00108L7.88607 9.1817L7.84116 9.22659H7.79625L7.52465 9.31743C7.52465 9.31743 7.47969 9.36231 7.29903 9.27147C7.25358 9.22661 7.20865 9.22712 7.11831 9.1817C7.02798 9.22712 6.80283 9.2271 6.62216 9.13681C6.3966 9.04653 6.30618 8.86587 6.26074 8.77558H6.21583V8.41434L6.84885 8.91024H6.89376L7.0734 8.82047C7.0734 8.82047 7.11831 8.77449 7.11831 8.72962C7.11831 8.68475 7.16429 8.59496 7.16429 8.59496L7.29903 8.45923C7.25358 8.36894 7.02848 8.0082 6.98358 7.96333L7.0734 7.6021C7.0734 7.6021 7.48029 8.0991 7.57063 8.27968L7.84009 8.18991C7.86692 8.01644 7.96711 7.84947 8.06785 7.78271C8.20308 7.69243 8.33838 7.87356 8.33838 7.87356C8.33838 7.87356 8.20363 7.73787 8.06785 7.91844C7.88718 8.14389 7.84229 8.50467 8.06785 8.59496C7.93262 8.59496 7.88712 8.59597 7.84223 8.37052C7.83128 8.31635 7.8319 8.25909 7.83902 8.20273C7.82643 8.2673 7.7733 8.60042 7.97696 8.64092L8.20258 8.6858H8.29347C8.29347 8.6858 8.56456 8.55165 8.65489 8.46137C8.74523 8.32621 8.74523 8.14499 8.65489 8.00929C8.79012 7.96442 9.37736 7.87413 10.0097 8.00929C9.9648 7.96442 9.91881 7.87463 9.91881 7.87463C9.87336 7.82976 9.64808 7.78374 8.88052 7.60316C8.88052 7.60316 8.88086 7.59174 8.91473 7.58606ZM6.8018 8.14395V8.50412L6.71198 8.549V8.18884L6.8018 8.14395ZM12.9332 8.27968C13.509 8.27968 14.2994 8.32461 15.1573 8.50519C13.9381 8.45977 12.9897 8.64049 12.5386 9.09193C12.5386 9.09193 12.2675 8.6403 11.9965 8.32457C11.9965 8.32457 12.3573 8.27968 12.9332 8.27968ZM11.3196 8.55007C11.319 8.55007 11.9062 8.59512 12.4028 9.22659L12.1312 9.27147L11.9965 9.22659C11.9965 9.22659 11.5906 8.73065 11.3196 8.55007ZM16.2416 8.6858L16.603 8.73069L16.4683 9.00215C15.5649 9.00215 14.9777 9.45316 14.9777 9.45316V9.58889C14.9777 9.59765 14.986 9.60633 14.9948 9.61454C15.0205 9.62439 15.0488 9.63378 15.0685 9.63378L15.0482 9.65195C15.0811 9.66836 15.1135 9.67867 15.1135 9.67867C15.339 9.76895 16.1069 10.0853 16.2875 10.1756C16.2864 10.1756 15.971 10.2206 15.7454 10.4011L14.751 10.0848L14.6611 9.99502L15.0472 9.65195C15.0258 9.64155 15.0084 9.62822 14.9948 9.61454C14.9614 9.60196 14.9327 9.58889 14.9327 9.58889C14.9327 9.54402 14.9322 9.40826 14.9777 9.36339C15.068 9.2731 15.384 9.13787 15.5647 9.04704C15.7454 9.00217 16.0614 8.95618 16.1068 8.91131C16.1523 8.86589 16.2416 8.6858 16.2416 8.6858ZM10.6406 9.31743L10.2342 9.95013L10.1444 9.99502L9.783 9.72355C9.783 9.72355 10.144 9.27201 10.6406 9.31743ZM10.8673 9.40721C10.8673 9.40721 11.2736 9.63282 11.2736 10.1297L10.5508 10.0848L10.5058 10.0399L10.8673 9.40721ZM9.60229 9.99502L9.91774 10.3103V10.4011L9.5114 10.9868C9.51195 10.9874 9.2864 10.5816 9.60229 9.99502ZM14.4794 10.1307L14.5702 10.2205L14.8857 10.3563L14.2986 10.9879L13.7116 10.8073L14.4794 10.1307ZM17.7461 10.2237C19.1397 10.1521 21.0907 11.6532 21.2095 13.1542C20.5317 12.4768 18.7712 13.1545 17.5065 12.2971C17.7321 11.8911 17.822 11.4388 17.7771 11.1225C17.7316 10.7165 17.5968 10.6266 17.3258 10.446C17.2804 10.4012 17.2349 10.4017 17.19 10.3563C17.3594 10.2772 17.547 10.234 17.7461 10.2237ZM11.2287 10.446C11.2281 10.4466 11.1382 10.942 10.6866 11.2583L10.4609 10.5369L10.5058 10.4909L11.2287 10.446ZM15.2482 10.492L15.5187 10.5818C15.5187 10.5812 15.1578 10.988 15.0675 11.3491L14.6152 11.2134L15.2482 10.492ZM10.0535 10.6715H10.1444L10.415 11.348C10.415 11.3486 9.91874 11.4842 9.60229 11.2134L10.0535 10.6715ZM17.0991 10.9879V11.0328L16.7377 11.4848L16.6928 11.5297L16.603 11.394C16.603 11.3935 16.9185 10.9879 17.0991 10.9879ZM17.3258 11.0328C17.3258 11.0328 17.5509 11.2589 17.4606 11.5746H16.9644V11.5287L17.3258 11.0328ZM16.4672 11.6195C16.5126 11.7098 16.557 11.8001 16.5121 11.8001V11.891L16.2865 12.3869C16.2859 12.3869 16.2416 12.0704 16.4672 11.6195ZM17.4616 11.845C17.4611 11.8456 17.4156 12.0257 17.2799 12.2062C17.1446 12.3868 17.0093 12.5226 17.0093 12.5226L16.8735 11.9359L16.9195 11.8899L17.4616 11.845ZM16.6019 12.1165H16.6468L16.8275 12.6583C16.8281 12.6583 16.6024 12.7486 16.3763 12.6583L16.3314 12.6124L16.6019 12.1165ZM4.85996 14.4634C9.7829 14.644 14.9773 17.3069 15.9261 19.6543C15.9856 19.8177 16.0284 20.0117 16.0395 20.2144C15.0432 20.9785 13.9076 21.6851 12.6038 22.3005C8.42412 20.3268 5.93969 17.4061 4.4579 14.5062C4.5876 14.4791 4.72441 14.4634 4.85996 14.4634Z" fill="white"/>
</svg>
