<svg width="64" height="64" viewBox="0 0 64 64" fill="none" xmlns="http://www.w3.org/2000/svg">
<path d="M60.7871 3.20935C61.0457 3.46836 61.2225 3.79765 61.2956 4.15631C61.3686 4.51497 61.3347 4.88719 61.198 5.22674L39.4615 59.573C39.27 60.0516 38.9501 60.4681 38.5371 60.7766C38.1241 61.0851 37.6341 61.2736 37.1208 61.3215C36.6076 61.3694 36.0911 61.2748 35.6282 61.048C35.1653 60.8212 34.7739 60.4711 34.4971 60.0362L22.6259 41.3754L3.96739 29.5027C3.53153 29.2261 3.18052 28.8346 2.9531 28.3712C2.72568 27.9077 2.63069 27.3905 2.6786 26.8765C2.72652 26.3625 2.91548 25.8718 3.22463 25.4584C3.53379 25.045 3.95112 24.7251 4.43058 24.5339L58.77 2.80213C59.1095 2.66544 59.4817 2.63152 59.8403 2.70458C60.1989 2.77764 60.5282 2.95446 60.7871 3.21308V3.20935ZM26.3539 40.2845L36.6674 56.4908L54.3472 12.2876L26.3539 40.2845ZM51.7063 9.64631L7.50858 27.3284L23.7167 37.6395L51.71 9.64631H51.7063Z" fill="url(#paint0_linear_675_1587)"/>
<defs>
<linearGradient id="paint0_linear_675_1587" x1="2.6665" y1="9.18549" x2="61.8163" y2="11.6074" gradientUnits="userSpaceOnUse">
<stop stop-color="#FF7A00"/>
<stop offset="1" stop-color="#FFA800"/>
</linearGradient>
</defs>
</svg>
