<svg width="24" height="24" viewBox="0 0 24 24" fill="none" xmlns="http://www.w3.org/2000/svg">
<path d="M0.4935 15.4995C1.24619 17.9602 2.76897 20.1142 4.8377 21.6444C6.90643 23.1747 9.41179 24.0004 11.985 24C18.621 24 24 18.627 24 12C24 5.373 18.621 8.99676e-07 11.9865 8.99676e-07C8.94041 -0.00117747 6.00769 1.15524 3.78218 3.23509C1.55668 5.31494 0.204696 8.16279 0 11.202L0.0045 11.211L6.4605 13.8645C7.04277 13.479 7.7324 13.2883 8.43 13.32L11.37 9.054L11.3685 8.994C11.3697 7.78404 11.8508 6.62396 12.7062 5.76826C13.5616 4.91255 14.7215 4.43109 15.9315 4.4295C17.1415 4.43109 18.3014 4.91255 19.1568 5.76826C20.0122 6.62396 20.4933 7.78404 20.4945 8.994C20.494 9.60199 20.3723 10.2038 20.1363 10.7641C19.9004 11.3245 19.555 11.8321 19.1205 12.2573C18.6859 12.6825 18.1709 13.0168 17.6055 13.2404C17.0402 13.4641 16.4359 13.5728 15.828 13.56L11.622 16.56C11.6363 17.1157 11.5114 17.6661 11.2587 18.1613C11.006 18.6564 10.6336 19.0805 10.1752 19.395C9.71687 19.7096 9.18716 19.9045 8.63427 19.9621C8.08138 20.0197 7.52286 19.9382 7.0095 19.725C6.51678 19.5197 6.08073 19.1988 5.73819 18.7894C5.39565 18.38 5.15669 17.8942 5.0415 17.373L0.495 15.4995H0.4935Z" fill="white"/>
<path d="M7.302 19.0245C7.92695 19.263 8.62025 19.2488 9.23485 18.9847C9.84946 18.7207 10.337 18.2276 10.5942 17.6101C10.8514 16.9925 10.8579 16.2991 10.6123 15.6769C10.3668 15.0547 9.88855 14.5525 9.279 14.277C8.67463 14.0248 7.99655 14.0141 7.3845 14.247L8.919 14.883C9.14849 14.9785 9.35691 15.1183 9.53237 15.2944C9.70782 15.4705 9.84688 15.6794 9.94159 15.9092C10.0363 16.1391 10.0848 16.3853 10.0844 16.6339C10.0839 16.8825 10.0345 17.1285 9.939 17.358C9.84347 17.5875 9.70367 17.7959 9.52758 17.9714C9.3515 18.1468 9.14258 18.2859 8.91275 18.3806C8.68293 18.4753 8.4367 18.5238 8.18812 18.5234C7.93954 18.5229 7.69349 18.4735 7.464 18.378L5.979 17.763C6.24924 18.332 6.72052 18.7808 7.302 19.023V19.0245ZM12.891 8.99399C12.8914 9.80054 13.2118 10.574 13.7818 11.1446C14.3518 11.7152 15.125 12.0363 15.9315 12.0375C16.738 12.0363 17.5112 11.7152 18.0812 11.1446C18.6512 10.574 18.9716 9.80054 18.972 8.99399C18.9708 8.18797 18.6501 7.41529 18.0801 6.84535C17.5102 6.2754 16.7375 5.95468 15.9315 5.95349C15.1255 5.95468 14.3528 6.2754 13.7829 6.84535C13.2129 7.41529 12.8922 8.18797 12.891 8.99399ZM15.936 6.70349C16.2362 6.70369 16.5334 6.76301 16.8107 6.87808C17.088 6.99314 17.3399 7.16169 17.552 7.37411C17.7641 7.58652 17.9324 7.83864 18.0471 8.11606C18.1618 8.39349 18.2207 8.69079 18.2205 8.99099C18.2203 9.29119 18.161 9.58842 18.0459 9.86569C17.9309 10.143 17.7623 10.3949 17.5499 10.607C17.3375 10.8191 17.0854 10.9874 16.8079 11.1021C16.5305 11.2168 16.2332 11.2757 15.933 11.2755C15.3267 11.2751 14.7454 11.0339 14.317 10.6049C13.8886 10.1759 13.6481 9.59428 13.6485 8.98799C13.6489 8.38171 13.8901 7.80041 14.3191 7.37198C14.7481 6.94356 15.3297 6.70309 15.936 6.70349Z" fill="white"/>
</svg>
