<svg width="24" height="17" viewBox="0 0 24 17" fill="none" xmlns="http://www.w3.org/2000/svg">
<path d="M1.756 0.345025C1.482 0.0290254 1.042 -0.0849742 0.65 0.0630258C0.259 0.209026 0 0.583026 0 1.00003V8.00002C0 8.24202 0.088 8.47703 0.248 8.65802L7.248 16.658C7.438 16.876 7.711 17 8 17H14C14.392 17 14.747 16.771 14.91 16.415C15.073 16.06 15.013 15.641 14.756 15.345L1.756 0.345025ZM23.325 1.05403C22.921 0.916025 22.473 1.04903 22.211 1.38603L15.211 10.386C14.977 10.688 14.935 11.097 15.102 11.44C15.27 11.782 15.618 12 16 12H21C21.334 12 21.646 11.833 21.832 11.555L23.832 8.55503C23.941 8.39102 24 8.19702 24 8.00002V2.00003C24 1.57303 23.729 1.19203 23.325 1.05403Z" fill="white"/>
</svg>
