<svg width="64" height="64" viewBox="0 0 64 64" fill="none" xmlns="http://www.w3.org/2000/svg">
<path d="M32.8888 0C18.1876 0 6.22217 11.854 6.22217 26.4185C6.22217 40.2401 17.0029 51.6002 30.6666 52.7252V58.7078H12.8888C12.5944 58.7037 12.302 58.7576 12.0287 58.8664C11.7555 58.9752 11.5068 59.1367 11.2971 59.3415C11.0873 59.5463 10.9208 59.7904 10.8072 60.0596C10.6935 60.3287 10.635 60.6176 10.635 60.9093C10.635 61.2011 10.6935 61.49 10.8072 61.7591C10.9208 62.0283 11.0873 62.2724 11.2971 62.4772C11.5068 62.682 11.7555 62.8435 12.0287 62.9523C12.302 63.0611 12.5944 63.115 12.8888 63.1109H52.8888C53.1833 63.115 53.4757 63.0611 53.7489 62.9523C54.0222 62.8435 54.2709 62.682 54.4806 62.4772C54.6903 62.2724 54.8569 62.0283 54.9705 61.7591C55.0842 61.49 55.1427 61.2011 55.1427 60.9093C55.1427 60.6176 55.0842 60.3287 54.9705 60.0596C54.8569 59.7904 54.6903 59.5463 54.4806 59.3415C54.2709 59.1367 54.0222 58.9752 53.7489 58.8664C53.4757 58.7576 53.1833 58.7037 52.8888 58.7078H35.1111V52.7252C48.7748 51.6002 59.5555 40.2401 59.5555 26.4185C59.5555 11.854 47.5901 0 32.8888 0ZM32.8888 4.40309C38.2356 4.40309 43.1314 6.26374 46.96 9.36516L41.4797 14.7945C39.0252 13.0071 36.1548 11.7416 32.8888 11.7416C29.6229 11.7416 26.7524 13.0071 24.298 14.7945L18.8177 9.36516C22.6463 6.26374 27.542 4.40309 32.8888 4.40309ZM15.6753 12.4783L21.1556 17.9076C19.3514 20.3392 18.074 23.183 18.074 26.4185C18.074 29.6541 19.3514 32.4978 21.1556 34.9294L15.6753 40.3587C12.5447 36.5658 10.6666 31.7155 10.6666 26.4185C10.6666 21.1215 12.5447 16.2712 15.6753 12.4783ZM50.1024 12.4783C53.2329 16.2712 55.1111 21.1215 55.1111 26.4185C55.1111 31.7155 53.2329 36.5658 50.1024 40.3587L44.6221 34.9294C46.4263 32.4978 47.7037 29.6541 47.7037 26.4185C47.7037 23.183 46.4263 20.3392 44.6221 17.9076L50.1024 12.4783ZM32.8888 16.1446C38.6426 16.1446 43.2592 20.7183 43.2592 26.4185C43.2592 32.1187 38.6426 36.6924 32.8888 36.6924C27.1351 36.6924 22.5185 32.1187 22.5185 26.4185C22.5185 20.7183 27.1351 16.1446 32.8888 16.1446ZM24.298 38.0425C26.7524 39.83 29.6229 41.0955 32.8888 41.0955C36.1548 41.0955 39.0252 39.83 41.4797 38.0425L46.96 43.4719C43.1314 46.5733 38.2356 48.4339 32.8888 48.4339C27.542 48.4339 22.6463 46.5733 18.8177 43.4719L24.298 38.0425Z" fill="url(#paint0_linear_675_1582)"/>
<defs>
<linearGradient id="paint0_linear_675_1582" x1="6.22217" y1="7.01233" x2="60.0204" y2="8.87384" gradientUnits="userSpaceOnUse">
<stop stop-color="#FF7A00"/>
<stop offset="1" stop-color="#FFA800"/>
</linearGradient>
</defs>
</svg>
